<svg width="488" height="488" viewBox="0 0 488 488" fill="none" xmlns="http://www.w3.org/2000/svg">
<path d="M482.14 37.86L458.95 14.67C455.05 10.77 449.93 8.81 444.81 8.81C439.84 8.81 434.88 10.65 431.01 14.34C418.21 26.55 403.6 32 383.65 32C362.24 32 336.62 25.56 309.49 18.74C274.55 9.94999 234.95 0 191.62 0C173.53 0 145.67 1.88001 115.68 10.82C99.49 15.65 84.55 21.96 70.98 29.68C68.34 21.73 60.84 16 52 16H20C8.95 16 0 24.95 0 36V212C0 223.05 8.95 232 20 232H52C63.05 232 72 223.05 72 212C72 196.44 77.86 183.5 89.43 173.55C99.15 165.18 112.57 159.42 125.33 158.12C130.77 157.57 136.34 157.28 141.89 157.28C170.86 157.28 196.89 164.64 224.45 172.43C235.84 175.65 247.39 178.91 259.21 181.62C224.14 207.31 185.68 236.81 154.55 278.73C115.15 331.8 96 393.71 96 468C96 479.05 104.95 488 116 488H372C383.05 488 392 479.05 392 468C392 365.03 397.63 299.77 411.43 242.76C425.82 183.31 449.58 131.17 485.76 61.19C489.77 53.45 488.3 44.02 482.14 37.86Z" fill="#1A1D2B"/>
<path d="M191.62 20C149.76 20 92.76 30.62 52 68V36H20V212H52C52 164.36 93.26 141.28 123.3 138.22C194.52 130.97 247.95 168.14 310.85 168.14C237.19 226.12 116 286.81 116 468C185.12 468 317.55 468 372 468C372 265.02 393.32 196.45 468 52L444.81 28.81C385.16 85.69 299.11 20 191.62 20Z" fill="#F0323A"/>
<path d="M292.01 146.95C273.24 144.86 254.7 139.42 235.33 133.94C206.36 125.75 176.41 117.28 141.89 117.28C135 117.28 128.06 117.63 121.28 118.32C120.97 118.35 120.66 118.38 120.35 118.42C81.33 122.69 52 156.06 52 195.31V192H20V212H52C52 164.36 93.26 141.28 123.3 138.22C194.52 130.97 247.95 168.14 310.85 168.14C318.29 162.1 326.61 155.28 335.5 148.14C335.5 148.14 318.65 149.92 292.01 146.95Z" fill="#C9181F"/>
<path d="M453.75 37.75C448.18 47.31 443.55 55.84 443.55 55.84C375.25 189.79 353.49 264.56 352.08 448.01H116.85C116.3 454.49 116 461.15 116 468.01C185.12 468.01 317.55 468.01 372 468.01C372 265.03 393.32 196.46 468 52.01L453.75 37.75Z" fill="#C9181F"/>
<path d="M383.64 91.9901C354.82 91.9901 325.7 84.6801 294.88 76.9301C273.89 71.6501 252.2 66.2001 230.01 62.9701C224.54 62.1801 220.76 57.1001 221.56 51.6301C222.36 46.1701 227.42 42.3701 232.9 43.1801C256.09 46.5601 278.28 52.1301 299.74 57.5301C329.35 64.9701 357.29 71.9901 383.64 71.9901C387.9 71.9901 392.22 71.7901 396.46 71.3801C401.97 70.8401 406.84 74.8901 407.36 80.3901C407.88 85.8901 403.85 90.7701 398.35 91.2901C393.49 91.7601 388.54 91.9901 383.64 91.9901Z" fill="#FFC2C3"/>
<path d="M61.9998 109.53C59.2898 109.53 56.5998 108.44 54.6298 106.29C50.8998 102.22 51.1698 95.8899 55.2398 92.1599L65.5198 82.7399C86.9398 63.0899 115.38 49.9699 150.03 43.7399C155.45 42.7699 160.66 46.3699 161.64 51.8099C162.62 57.2499 159 62.4399 153.57 63.4199C122.7 68.9699 97.6298 80.4299 79.0398 97.4699L68.7598 106.9C66.8398 108.66 64.4198 109.53 61.9998 109.53Z" fill="#FFC2C3"/>
<path d="M191.62 60C197.143 60 201.62 55.5228 201.62 50C201.62 44.4772 197.143 40 191.62 40C186.097 40 181.62 44.4772 181.62 50C181.62 55.5228 186.097 60 191.62 60Z" fill="#FFC2C3"/>
<path d="M149.71 428C149.2 428 148.69 427.96 148.17 427.88C142.71 427.03 138.97 421.92 139.82 416.47C156.96 305.73 228.27 253.7 291.2 207.8C301.42 200.34 310.6 193.62 319.39 186.83C323.76 183.45 330.04 184.26 333.42 188.63C336.8 193 335.99 199.28 331.62 202.66C322.63 209.61 313.34 216.42 302.99 223.97C243.21 267.58 175.46 317.01 159.59 419.55C158.82 424.47 154.56 428 149.71 428Z" fill="#FFC2C3"/>
</svg>
