<svg width="488" height="488" viewBox="0 0 488 488" fill="none" xmlns="http://www.w3.org/2000/svg">
<path d="M458 352C455.96 352 454.4 352.26 450.63 352.88C441.27 354.42 417.66 358.29 386.46 358.91C396.52 351.68 406.39 343.69 416.03 334.93C446.19 307.51 464.22 281.53 469.03 274.22C473.08 268.06 478.12 258.49 475.07 246.58C471.67 233.29 459.72 224 446.01 224C443.51 224 441.01 224.31 438.58 224.94C437.33 225.26 420.36 231.67 407.67 235.31C423.72 217.72 433.65 203.35 437.03 198.21C441.08 192.05 446.12 182.48 443.07 170.57C439.67 157.28 427.72 147.99 414.01 147.99C411.51 147.99 409.01 148.31 406.58 148.93C404.46 149.47 403.1 150.11 399.45 151.81C326.5 185.88 270.66 193.03 236.66 193.03C207.96 193.03 182.16 187.98 159.97 178.01C135.4 166.98 114.59 149.53 98.04 126.15C92.14 94.4999 92.01 72.2 92 71.97V30C92 13.46 78.54 0 62 0C45.46 0 32 13.46 32 30V72C32 89.93 25.2401 112.53 18.0801 136.46C9.19008 166.18 0 196.91 0 228.32C0 334.39 56.8901 396.9 104.61 430.66C164.37 472.94 233.13 488 277.57 488C320.92 488 365.11 476.22 408.93 452.99C444.94 433.9 468.84 413.18 475.31 407.29C480.76 402.32 488.01 394.3 488.01 382.01C488 365.46 474.54 352 458 352Z" fill="#1A1D2B"/>
<path d="M283.37 255.21C310.38 255.21 339.63 251.79 369.21 245.36C397.14 220.25 414.72 195.75 420.32 187.24C423.53 182.36 424.59 179.04 423.7 175.54C422.33 170.19 416.89 166.96 411.54 168.33C407.27 169.42 219.76 268.72 108.21 167.75C109.23 171.1 110.31 174.42 111.41 177.7C149.38 229.12 207.21 255.21 283.37 255.21Z" fill="#FFCE33"/>
<path d="M283.37 255.21C310.39 255.21 339.64 251.79 369.23 245.35C379.87 235.78 389.01 226.3 396.56 217.76C357.83 229.08 318.56 235.21 283.37 235.21C283.36 235.21 283.36 235.21 283.35 235.21C234.36 235.21 193.83 223.57 162.26 200.54C143.11 193.4 124.81 182.77 108.19 167.71C109.21 171.07 110.29 174.39 111.4 177.68C149.38 229.12 207.21 255.21 283.37 255.21Z" fill="#FFB329"/>
<path d="M188.65 297.72C238.34 340.32 300.33 354.61 350.77 358.08C408.18 325.28 443.87 276.08 452.32 263.23C455.53 258.35 456.59 255.03 455.7 251.53C454.33 246.18 448.89 242.95 443.54 244.32C439.1 245.45 253.17 322.19 133.97 229.46C148.79 256.35 167.06 279.21 188.65 297.72Z" fill="#FFCE33"/>
<path d="M318.13 313.62C313 313.62 308.63 309.69 308.18 304.48C307.7 298.98 311.78 294.13 317.28 293.66C339.89 291.71 363.12 287.95 386.34 282.48C391.72 281.22 397.1 284.55 398.36 289.92C399.62 295.3 396.29 300.68 390.92 301.94C366.76 307.62 342.57 311.54 319 313.57C318.71 313.61 318.42 313.62 318.13 313.62Z" fill="#FFEEB8"/>
<path d="M188.65 297.72C238.35 340.33 300.37 354.62 350.82 358.08C361.2 352.15 370.86 345.68 379.79 338.99C379.19 338.99 378.6 339 378 339C327.61 339 256.12 329.2 201.68 282.53C191.62 273.91 182.35 264.21 173.84 253.51C159.99 247.19 146.6 239.23 133.95 229.38C148.76 256.31 167.05 279.2 188.65 297.72Z" fill="#FFB329"/>
<path d="M458 372C452.86 372 287.71 409 175.63 312.9C133.29 276.6 108.25 229.75 93.4399 187.04C86.8999 168.17 82.3499 150.1 79.1899 134.11C76.6299 121.16 74.9899 109.57 73.9199 100.01H48.6399C40.4399 139.15 19.99 185.02 19.99 228.33C19.99 404.8 190.56 468.01 277.56 468.01C371.99 468.01 447 406.02 461.83 392.51C466.15 388.57 468 385.62 468 382.01C468 376.48 463.52 372 458 372Z" fill="#FFCE33"/>
<path d="M72.27 80C72 74.86 72 72 72 72V30C72 24.48 67.52 20 62 20C56.48 20 52 24.48 52 30V72C52 74.61 51.8699 77.29 51.6599 80H72.27Z" fill="#81492E"/>
<path d="M277.57 448C241.04 448 179.87 434.91 127.72 398.01C87.71 369.7 40.01 317.28 40.01 228.32C40.01 209.99 41.5401 190.84 44.3701 171.94C47.9501 148.09 50.3101 124.08 51.3601 100H48.6499C40.4499 139.14 20.01 185.01 20.01 228.32C20.01 404.79 190.58 468 277.58 468C350.61 468 411.98 430.94 442.93 407.89C392.66 438.86 316 448 277.57 448Z" fill="#FFB329"/>
<path d="M62 40C67.5228 40 72 35.5228 72 30C72 24.4772 67.5228 20 62 20C56.4772 20 52 24.4772 52 30C52 35.5228 56.4772 40 62 40Z" fill="#96593C"/>
<path d="M103.57 285.71C100.32 285.71 97.1401 284.13 95.2201 281.22C81.9501 261.13 70.49 238.84 61.16 214.97C59.15 209.83 61.6902 204.03 66.8302 202.01C71.9802 200 77.7702 202.54 79.7902 207.68C88.6202 230.24 99.42 251.28 111.92 270.19C114.96 274.8 113.7 281 109.09 284.05C107.38 285.18 105.46 285.71 103.57 285.71Z" fill="#FFEEB8"/>
<path d="M338.98 417.29C338.68 417.29 338.39 417.28 338.09 417.25C262.46 410.55 199.05 385.66 149.6 343.27C145.41 339.68 144.92 333.36 148.52 329.17C152.11 324.98 158.43 324.49 162.62 328.09C208.84 367.72 268.47 391.01 339.86 397.34C345.36 397.83 349.43 402.68 348.94 408.18C348.47 413.37 344.1 417.29 338.98 417.29Z" fill="#FFEEB8"/>
<path d="M458 392C463.523 392 468 387.523 468 382C468 376.477 463.523 372 458 372C452.477 372 448 376.477 448 382C448 387.523 452.477 392 458 392Z" fill="#FFB329"/>
<path d="M446 264C451.523 264 456 259.523 456 254C456 248.477 451.523 244 446 244C440.477 244 436 248.477 436 254C436 259.523 440.477 264 446 264Z" fill="#FFB329"/>
<path d="M414 188C419.523 188 424 183.523 424 178C424 172.477 419.523 168 414 168C408.477 168 404 172.477 404 178C404 183.523 408.477 188 414 188Z" fill="#FFB329"/>
<path d="M127.74 317.51C133.263 317.51 137.74 313.033 137.74 307.51C137.74 301.987 133.263 297.51 127.74 297.51C122.217 297.51 117.74 301.987 117.74 307.51C117.74 313.033 122.217 317.51 127.74 317.51Z" fill="#FFEEB8"/>
</svg>
