<svg width="489" height="489" viewBox="0 0 489 489" fill="none" xmlns="http://www.w3.org/2000/svg">
<path d="M357 225C353.32 225 349.69 225.19 346.08 225.49C343.3 208.93 341.8 193.23 341.59 178.45C352.03 187.97 363.98 195.98 377.36 202.33C402.78 214.41 433.55 220.69 468.82 220.99C468.88 220.99 468.94 220.99 468.99 220.99C474.26 220.99 479.32 218.91 483.07 215.19C486.86 211.43 488.99 206.32 488.99 200.99C488.99 126.71 450.49 86.05 418.19 65.02C410.48 60 402.48 55.68 394.4 51.97C402.7 43.48 405.52 30.47 400.46 18.94C395.68 8.02997 384.89 0.97998 372.98 0.97998C368.81 0.97998 364.76 1.82998 360.94 3.50998C341.17 12.18 322.94 22.14 306.08 33C196.65 33.35 126.9 43.99 80.45 67.38C53.26 81.07 33.6299 99.17 20.4299 122.7C7.64993 145.49 1.30001 172.88 1.01001 206.43C0.94001 214.28 5.47009 221.44 12.5901 224.74C15.2801 225.99 18.15 226.6 21.01 226.6C25.71 226.6 30.35 224.95 34.05 221.76C56.51 202.45 83.8 190.2 112.99 186.35C118.82 185.71 124.75 185.11 130.49 184.53C142.78 183.29 155.22 182.02 167.66 180.21C162.37 189.22 157.57 198.03 153.22 206.54C146.62 205.52 139.86 204.99 132.98 204.99C60.19 204.99 0.97998 264.2 0.97998 336.99C0.97998 409.77 60.19 468.99 132.98 468.99C176.27 468.99 214.75 448.05 238.83 415.76C260.51 459.13 305.32 489 357 489C429.79 489 489 429.78 489 357C489 284.21 429.79 225 357 225ZM251.15 278.24C241.36 258.64 226.84 241.81 209.08 229.24C226.38 196.31 251.32 158.66 286.34 124.93C279.82 159.04 280.16 197.18 287.44 238.66C287.77 240.53 288.12 242.37 288.48 244.22C273.96 253.07 261.29 264.65 251.15 278.24Z" fill="#1A1D2B"/>
<path d="M378.58 66.9099C364.16 82.5799 353.88 101.43 347.93 123.19C345.56 131.87 343.87 141.1 342.82 150.81C365.55 178.75 404.16 200.43 469 201C469 124.09 423.37 85.0799 378.58 66.9099Z" fill="#5EAC41"/>
<path d="M378.57 66.9299C364.16 82.5999 353.87 101.45 347.93 123.2C345.56 131.87 343.87 141.09 342.82 150.79C348.14 157.33 354.31 163.54 361.51 169.21C362.44 129.3 374.4 98.4999 397.62 75.9899C391.35 72.4999 384.95 69.5099 378.57 66.9299Z" fill="#3F8724"/>
<path d="M326.51 228.59C318.36 179.71 318.91 124.61 344.75 79.5801C333.51 86.4801 322.95 93.8701 313.06 101.65C300.36 139.28 298.24 184.09 307.1 234.82C313.34 232.27 319.83 230.18 326.51 228.59Z" fill="#81492E"/>
<path d="M313.05 101.65C309.5 112.19 306.77 123.29 304.88 134.93C312.67 127.71 320.96 120.72 329.77 114.04C333.43 101.75 338.33 90.34 344.43 79.77C333.31 86.63 322.85 93.96 313.05 101.65Z" fill="#693822"/>
<path d="M326.35 228.63C325.22 221.88 324.27 215.24 323.54 208.76C316.89 210.26 310.4 212.17 304.11 214.51C304.91 221.17 305.89 227.94 307.09 234.83C313.29 232.29 319.72 230.21 326.35 228.63Z" fill="#693822"/>
<path d="M382.16 26.9801C379.94 21.9201 374.05 19.62 368.99 21.84C354.75 28.09 341.35 35.05 328.7 42.55C332.32 48.45 332.63 55.8 329.51 61.99C328.6 63.8 327.66 65.54 326.73 67.31C342.17 57.28 358.89 48.11 377.02 40.16C382.07 37.94 384.38 32.0401 382.16 26.9801Z" fill="#81492E"/>
<path d="M191.91 218.92C200.81 202.08 211.6 184.1 224.61 165.99C214.57 169.95 204.39 172.96 194.13 175.33C186.26 187.66 179.36 199.75 173.31 211.31C179.74 213.38 185.95 215.94 191.91 218.92Z" fill="#693822"/>
<path d="M225 357C225 336.24 229.83 316.59 238.41 299.1C222.87 255.9 181.55 225 133 225C71.14 225 21 275.14 21 337C21 398.86 71.14 449 133 449C174.47 449 210.65 426.44 230.01 392.94C226.77 381.5 225 369.46 225 357Z" fill="#F0323A"/>
<path d="M51 347C45.48 347 41 342.52 41 337C41 286.27 82.27 245 133 245C152.49 245 171.15 251.06 186.95 262.54C191.42 265.79 192.41 272.04 189.17 276.51C185.92 280.98 179.67 281.97 175.2 278.72C162.84 269.75 148.25 265 133.01 265C93.31 265 61.01 297.3 61.01 337C61 342.52 56.52 347 51 347Z" fill="#FFC2C3"/>
<path d="M225 357C225 336.25 229.83 316.61 238.4 299.12C235.62 291.39 232.02 284.05 227.7 277.22C213.32 300.43 205 327.75 205 357C205 368.13 206.25 378.96 208.55 389.41C191.92 413.31 164.26 429 133 429C82.27 429 21 387.73 21 337C21 398.86 71.14 449 133 449C165.7 449 195.12 434.98 215.59 412.63C221.08 406.63 225.92 400.03 230.01 392.95C226.77 381.51 225 369.46 225 357Z" fill="#C9181F"/>
<path d="M357 469C418.856 469 469 418.856 469 357C469 295.144 418.856 245 357 245C295.144 245 245 295.144 245 357C245 418.856 295.144 469 357 469Z" fill="#F0323A"/>
<path d="M357 449C306.27 449 245 407.73 245 357C245 418.86 295.14 469 357 469C418.86 469 469 418.86 469 357C469 407.73 407.73 449 357 449Z" fill="#C9181F"/>
<path d="M275 367C269.48 367 265 362.52 265 357C265 338.82 270.33 321.22 280.41 306.1C283.47 301.5 289.68 300.26 294.28 303.32C298.88 306.38 300.12 312.59 297.06 317.19C289.18 329.02 285.01 342.79 285.01 357C285 362.52 280.52 367 275 367Z" fill="#FFC2C3"/>
<path d="M402.59 298.89C400.67 298.89 398.73 298.34 397.02 297.19C385.15 289.22 371.31 285 356.99 285C351.47 285 346.99 280.52 346.99 275C346.99 269.48 351.47 265 356.99 265C375.29 265 392.99 270.39 408.17 280.59C412.75 283.67 413.97 289.88 410.89 294.47C408.97 297.34 405.81 298.89 402.59 298.89Z" fill="#FFC2C3"/>
<path d="M328.192 286.253C329.074 280.801 325.369 275.666 319.917 274.784C314.465 273.902 309.33 277.607 308.448 283.059C307.566 288.511 311.271 293.646 316.723 294.528C322.175 295.41 327.31 291.705 328.192 286.253Z" fill="#FFC2C3"/>
<path d="M110.6 166.51C186.22 158.12 258 159.58 311.64 53C105.63 53 22.03 87.82 21.02 206.61C45.79 185.31 76.6501 170.94 110.6 166.51Z" fill="#5EAC41"/>
<path d="M373 41C378.523 41 383 36.5228 383 31C383 25.4772 378.523 21 373 21C367.477 21 363 25.4772 363 31C363 36.5228 367.477 41 373 41Z" fill="#96593C"/>
<path d="M64.1999 157.11C62.5299 157.11 60.8399 156.69 59.2799 155.81C54.4799 153.09 52.7899 146.98 55.5099 142.18C64.8099 125.76 78.8599 112.99 98.4499 103.12C125.23 89.6401 163.43 80.9401 215.23 76.5301C220.73 76.0701 225.57 80.1401 226.04 85.6501C226.51 91.1501 222.42 95.9901 216.92 96.4601C167.71 100.65 131.9 108.67 107.44 120.98C91.2798 129.12 80.2998 138.99 72.9098 152.03C71.0698 155.29 67.6899 157.11 64.1999 157.11Z" fill="#88D66B"/>
<path d="M265.95 84.04C265.95 89.56 261.47 94.04 255.95 94.04C250.43 94.04 245.95 89.56 245.95 84.04C245.95 78.52 250.43 74.04 255.95 74.04C261.47 74.04 265.95 78.52 265.95 84.04Z" fill="#88D66B"/>
</svg>
