<svg width="488" height="488" viewBox="0 0 488 488" fill="none" xmlns="http://www.w3.org/2000/svg">
<path d="M488 138.59C488 100.48 478.98 72.44 458.25 47.07C461.6 46.45 465.26 45.88 469.01 45.5C474.5 44.94 478.51 40.04 477.95 34.54C477.39 29.05 472.49 25.02 466.99 25.6C456.76 26.64 447.31 28.81 441.75 30.26C415.19 7.54001 391.24 0 349.41 0C330.16 0 304.93 5.81 274.44 17.28C258.68 23.21 245.7 29.08 239.35 32.06C238.31 32.05 237.27 32 236.23 32C227.73 32 219.08 32.48 210.52 33.42C157.49 39.25 107.37 63.38 69.3701 101.37C31.3701 139.37 7.23995 189.5 1.41995 242.52C-1.70005 270.98 0.330004 299.03 7.47 325.92C13.61 349.04 14.7301 373.96 10.8101 400.01C10.3301 403.2 10.0701 406.46 10.0301 409.69C9.83006 427.86 16.9 445.04 29.92 458.07C42.75 470.9 59.6701 477.97 77.5701 477.97H78.3001C81.5301 477.93 84.79 477.67 87.99 477.19C98 475.68 108.02 474.92 117.77 474.92C133.14 474.92 148.04 476.81 162.07 480.54C180.73 485.5 200.14 488.01 219.76 488.01C228.26 488.01 236.91 487.53 245.47 486.59C298.5 480.77 348.62 456.64 386.62 418.64C424.62 380.65 448.75 330.52 454.57 277.49C455.61 268.02 456.05 258.61 455.95 249.28C464.22 234 488 185.9 488 138.59Z" fill="#1A1D2B"/>
<path d="M424.9 260.64C421.92 258.65 352 211.18 352 139.49C352 115.3 360.87 90.4599 376.98 69.5399C378.97 66.9599 381.03 64.4899 383.16 62.1299C381.45 61.9599 379.72 61.8799 377.97 61.8999C374.15 61.9499 370.42 62.4299 366.83 63.2899C344.41 68.6899 321.01 68.9399 299.08 61.8299C272.45 53.1999 243.24 49.9399 212.7 53.2899C112.38 64.3099 32.3101 144.38 21.3001 244.7C18.3701 271.35 20.4801 296.98 26.8001 320.78C33.9101 347.55 34.7202 375.59 30.5902 402.98C30.2502 405.25 30.0601 407.56 30.0301 409.91C29.8901 423.08 35.3102 435.17 44.0702 443.93C52.8302 452.69 64.9102 458.11 78.0902 457.97C80.4402 457.94 82.7501 457.76 85.0201 457.41C112.41 453.29 140.45 454.09 167.22 461.2C191.02 467.52 216.65 469.63 243.3 466.7C343.62 455.68 423.69 375.62 434.71 275.3C435.13 271.5 435.44 267.73 435.66 263.97C431.85 263.91 428.11 262.78 424.9 260.64Z" fill="#FFCE33"/>
<path d="M424.9 260.64C421.92 258.65 352.01 211.18 352 139.5C352 208.76 393.3 260.01 413.76 281.16C400.49 368.1 329.11 437.17 241.11 446.83C234 447.61 226.82 448.01 219.77 448.01C203.61 448.01 187.66 445.95 172.35 441.88C154.97 437.26 136.61 434.92 117.78 434.92C106.05 434.92 94.02 435.83 82.04 437.64C80.66 437.85 79.2601 437.96 77.8701 437.98H77.5801C58.3501 437.98 31.02 422.58 30.05 410.79C30.15 423.63 35.5101 435.38 44.0801 443.94C52.8401 452.7 64.9201 458.12 78.1001 457.98C80.4501 457.95 82.76 457.77 85.03 457.42C112.42 453.3 140.46 454.1 167.23 461.21C191.03 467.53 216.66 469.64 243.31 466.71C343.63 455.69 423.7 375.63 434.72 275.31C435.14 271.51 435.45 267.74 435.67 263.98C431.85 263.91 428.11 262.78 424.9 260.64Z" fill="#FFB329"/>
<path d="M436 52C406.21 57.06 372 97.08 372 139.49C372 201.3 436 244 436 244C436 244 468 189.81 468 138.59C468 104.74 460.78 78.19 436 52Z" fill="#5EAC41"/>
<path d="M416.1 60.07L421.47 65.74C440.56 85.91 448 106.34 448 138.59C448 177.8 426 220.67 420.18 231.32C429.26 239.49 436 244 436 244C436 244 468 189.81 468 138.59C468 104.74 460.79 78.19 436 52C429.44 53.11 422.68 55.92 416.1 60.07Z" fill="#3F8724"/>
<path d="M410.86 182.66C407.26 182.66 403.78 180.71 402 177.3C395.37 164.66 392.01 151.93 392.01 139.49C392.01 122.39 399.08 108.15 405.01 99.21C408.06 94.61 414.27 93.3501 418.87 96.4101C423.47 99.4601 424.73 105.67 421.67 110.27C417.26 116.91 412.01 127.37 412.01 139.49C412.01 148.67 414.6 158.27 419.71 168.02C422.28 172.91 420.39 178.96 415.5 181.52C414.01 182.29 412.42 182.66 410.86 182.66Z" fill="#88D66B"/>
<path d="M329.25 87.1599C316.65 86.7099 304.42 84.5799 292.92 80.8499C281.41 77.1199 269.35 74.5299 257.09 73.1599C254.26 72.8399 251.43 73.7499 249.31 75.6499C247.19 77.5499 245.98 80.2599 245.98 83.1099C245.98 88.3699 250.03 92.6699 255.19 93.0699C266 94.2999 276.62 96.5899 286.76 99.8699C300.03 104.17 314.09 106.61 328.54 107.14C328.66 107.14 328.79 107.15 328.91 107.15C334.27 107.15 338.7 102.91 338.9 97.5099C339.08 91.9999 334.77 87.3599 329.25 87.1599Z" fill="#FFEEB8"/>
<path d="M173.73 82.3301C101.48 106.91 49.45 171.51 41.18 246.89C38.59 270.42 40.26 293.55 46.13 315.65C47.32 320.13 51.3601 323.09 55.7901 323.09C56.6401 323.09 57.5002 322.98 58.3602 322.75C63.7002 321.33 66.88 315.86 65.46 310.52C60.23 290.81 58.7501 270.14 61.0601 249.07C68.5001 181.37 115.25 123.36 180.18 101.26C185.41 99.4801 188.21 93.8001 186.43 88.5701C184.64 83.3401 178.96 80.5401 173.73 82.3301Z" fill="#FFEEB8"/>
<path d="M215.98 93.1201C221.503 93.1201 225.98 88.643 225.98 83.1201C225.98 77.5973 221.503 73.1201 215.98 73.1201C210.457 73.1201 205.98 77.5973 205.98 83.1201C205.98 88.643 210.457 93.1201 215.98 93.1201Z" fill="#FFEEB8"/>
<path d="M349.41 20C328.79 20 301.97 28.25 280.53 36.37C288.89 38.04 297.15 40.18 305.25 42.81C314.38 45.77 324.2 47.27 334.44 47.27C343.42 47.27 352.75 46.12 362.16 43.85C367.25 42.62 372.49 41.97 377.73 41.9C378.01 41.9 378.28 41.89 378.56 41.89C386.43 41.89 394.1 43.28 401.32 45.9C406.58 42.19 412.01 39.13 417.5 36.8C398.86 24.13 380.07 20 349.41 20Z" fill="#3F8724"/>
<path d="M244 254C249.523 254 254 249.523 254 244C254 238.477 249.523 234 244 234C238.477 234 234 238.477 234 244C234 249.523 238.477 254 244 254Z" fill="#F4921E"/>
<path d="M264 334C269.523 334 274 329.523 274 324C274 318.477 269.523 314 264 314C258.477 314 254 318.477 254 324C254 329.523 258.477 334 264 334Z" fill="#F4921E"/>
<path d="M124 374C129.523 374 134 369.523 134 364C134 358.477 129.523 354 124 354C118.477 354 114 358.477 114 364C114 369.523 118.477 374 124 374Z" fill="#F4921E"/>
<path d="M344 354C349.523 354 354 349.523 354 344C354 338.477 349.523 334 344 334C338.477 334 334 338.477 334 344C334 349.523 338.477 354 344 354Z" fill="#F4921E"/>
<path d="M244 394C249.523 394 254 389.523 254 384C254 378.477 249.523 374 244 374C238.477 374 234 378.477 234 384C234 389.523 238.477 394 244 394Z" fill="#F4921E"/>
<path d="M324 274C329.523 274 334 269.523 334 264C334 258.477 329.523 254 324 254C318.477 254 314 258.477 314 264C314 269.523 318.477 274 324 274Z" fill="#F4921E"/>
</svg>
