<svg width="488" height="488" viewBox="0 0 488 488" fill="none" xmlns="http://www.w3.org/2000/svg">
<path d="M435.44 262.24L416.62 237.13C416.03 223.32 413.33 191.29 401.09 157.28C381.2 102 345.05 65.6001 295.97 51.1201C295.08 23.6101 273.67 1.34006 246.49 0.0600586C245.66 0.0200586 244.83 0 244 0C215.62 0 192.48 22.8499 192.01 51.1299C142.95 65.6099 106.8 102 86.91 157.28C74.67 191.29 71.97 223.32 71.38 237.13L52.56 262.24C18.67 307.46 0 363.49 0 420C0 452.31 46.47 466.01 81.42 473.5C125.06 482.85 182.8 488 244 488C305.2 488 362.94 482.85 406.58 473.5C441.53 466.01 488 452.32 488 420C488 363.49 469.33 307.46 435.44 262.24Z" fill="#1A1D2B"/>
<path d="M288 424C288 420.2 287.52 416.5 286.59 412.92C272.68 412.32 258.42 412 244 412C229.58 412 215.32 412.32 201.4 412.92C200.47 416.5 200 420.2 200 424C200 448.26 219.74 468 244 468C268.26 468 288 448.26 288 424Z" fill="#FFCE33"/>
<path d="M419.43 274.23L396.78 244C396.78 244 398.36 89.8401 276 66.8701V52.9099C276 35.6799 262.76 20.85 245.55 20.04C227.17 19.17 212 33.82 212 52C212 54.2 212 60.0901 212 66.8701C89.65 89.8401 91.22 244 91.22 244L68.56 274.23C37.04 316.29 20 367.44 20 420C20 443.02 95.62 462.25 196.53 466.92C186.26 455.57 180 440.52 180 424C180 420.61 180.28 417.28 180.79 414.03C153.29 415.84 127.69 418.82 105.71 422.84C94.65 424.87 84.67 427.14 76.05 429.61C70.74 431.13 65.2 428.05 63.69 422.74C62.17 417.43 65.25 411.9 70.56 410.38C79.81 407.74 90.42 405.31 102.11 403.17C141.44 395.96 191.83 391.99 244.01 391.99C296.19 391.99 346.58 395.96 385.91 403.17C397.6 405.31 408.21 407.74 417.46 410.38C422.77 411.9 425.85 417.43 424.33 422.74C423.08 427.13 419.07 430 414.72 430C413.81 430 412.89 429.88 411.97 429.61C403.34 427.15 393.36 424.87 382.31 422.84C360.34 418.81 334.73 415.83 307.23 414.03C307.74 417.28 308.02 420.6 308.02 424C308.02 440.52 301.75 455.56 291.48 466.92C392.37 462.25 468 443.02 468 420C468 367.44 450.96 316.29 419.43 274.23Z" fill="#FFCE33"/>
<path d="M207.51 448.56C213.76 438.8 227.73 432 244 432C260.27 432 274.24 438.81 280.49 448.56C285.23 441.54 288 433.08 288 423.99C288 420.19 287.53 416.49 286.61 412.91C272.69 412.31 258.43 411.99 244 411.99C229.57 411.99 215.31 412.31 201.39 412.91C200.46 416.49 200 420.19 200 423.99C200 433.09 202.77 441.55 207.51 448.56C207.51 448.57 207.51 448.57 207.51 448.56Z" fill="#FFB329"/>
<path d="M244 372C120.29 372 20 393.49 20 420C20 443.02 95.62 462.25 196.52 466.92C186.25 455.57 180 440.52 180 424C180 420.61 180.27 417.28 180.77 414.04C153.28 415.85 127.67 418.83 105.7 422.85C94.64 424.88 84.66 427.15 76.04 429.62C70.73 431.14 65.19 428.06 63.68 422.75C62.16 417.44 65.24 411.91 70.55 410.39C79.8 407.75 90.41 405.32 102.1 403.18C141.43 395.97 191.82 392 244 392C296.18 392 346.57 395.97 385.9 403.18C397.59 405.32 408.2 407.75 417.45 410.39C422.76 411.91 425.84 417.44 424.32 422.75C423.07 427.14 419.06 430.01 414.71 430.01C413.8 430.01 412.88 429.89 411.96 429.62C403.33 427.16 393.35 424.88 382.3 422.85C360.33 418.82 334.72 415.84 307.22 414.04C307.73 417.29 308.01 420.61 308.01 424.01C308.01 440.53 301.73 455.57 291.45 466.93C392.36 462.25 468 443.02 468 420C468 393.49 367.71 372 244 372Z" fill="#FFB329"/>
<path d="M414.71 430C413.8 430 412.88 429.88 411.96 429.61C403.33 427.15 393.35 424.87 382.3 422.84C360.33 418.81 334.72 415.83 307.22 414.03C307.73 417.28 308.01 420.6 308.01 424C308.01 431.81 306.58 439.28 304.02 446.2C334.01 444.38 362.01 441.2 385.91 436.82C398.64 434.49 409.04 432.02 417.48 429.62C417.58 429.59 417.66 429.54 417.76 429.51C416.77 429.83 415.75 430 414.71 430Z" fill="#F4921E"/>
<path d="M180 424C180 420.61 180.27 417.28 180.77 414.04C153.28 415.85 127.67 418.83 105.7 422.85C94.6398 424.88 84.6598 427.15 76.0398 429.62C74.0798 430.18 72.0898 430.11 70.2798 429.53C70.3698 429.56 70.4498 429.6 70.5398 429.63C78.9698 432.03 89.3798 434.5 102.11 436.83C126.01 441.21 154.01 444.39 183.99 446.21C181.42 439.28 180 431.81 180 424Z" fill="#F4921E"/>
<path d="M244 64C250.627 64 256 58.6274 256 52C256 45.3726 250.627 40 244 40C237.373 40 232 45.3726 232 52C232 58.6274 237.373 64 244 64Z" fill="#F4921E"/>
<path d="M326.76 259.22C326.46 259.22 326.17 259.21 325.87 259.18C299.78 256.87 272.24 255.7 244 255.7C215.78 255.7 188.24 256.87 162.16 259.17C156.66 259.65 151.8 255.59 151.32 250.09C150.83 244.59 154.9 239.73 160.4 239.25C187.07 236.89 215.19 235.7 244 235.7C272.82 235.7 300.96 236.9 327.63 239.26C333.13 239.75 337.2 244.6 336.71 250.1C336.25 255.3 331.88 259.22 326.76 259.22Z" fill="#FFB329"/>
<path d="M429.81 371.86C425.45 371.86 421.45 368.99 420.2 364.59C413.31 340.36 402.28 318.03 387.44 298.22L358.71 259.8C357.42 258.06 356.73 255.96 356.74 253.79L356.79 243.63C356.79 242.93 356.22 170.86 316.88 131.11C298.8 112.87 274.97 104 244 104C227.74 104 213.76 106.38 201.27 111.27C196.13 113.28 190.33 110.75 188.31 105.6C186.3 100.46 188.83 94.6599 193.98 92.6399C208.63 86.8999 225.46 84 244 84C280.59 84 309.07 94.81 331.08 117.05C376.33 162.77 376.78 242.99 376.77 243.79L376.74 250.56L380.8 256.03L403.43 286.22C419.75 308 431.86 332.52 439.43 359.11C440.94 364.42 437.86 369.95 432.55 371.46C431.63 371.73 430.71 371.86 429.81 371.86Z" fill="#FFEEB8"/>
<path d="M58.1898 371.86C57.2798 371.86 56.3598 371.74 55.4498 371.47C50.1398 369.96 47.0598 364.43 48.5698 359.12C56.1298 332.53 68.2498 308 84.5698 286.23L111.29 250.58L111.22 243.8C111.22 243.26 111.24 195.12 132.37 152.24C134.81 147.28 140.81 145.25 145.76 147.69C150.71 150.13 152.75 156.13 150.31 161.08C131.45 199.35 131.22 243.23 131.22 243.67L131.32 253.75C131.34 255.95 130.64 258.09 129.32 259.85L100.56 298.22C85.7098 318.03 74.6898 340.36 67.7998 364.59C66.5598 368.99 62.5498 371.86 58.1898 371.86Z" fill="#FFEEB8"/>
<path d="M164.22 133.89C169.743 133.89 174.22 129.413 174.22 123.89C174.22 118.367 169.743 113.89 164.22 113.89C158.697 113.89 154.22 118.367 154.22 123.89C154.22 129.413 158.697 133.89 164.22 133.89Z" fill="#FFEEB8"/>
</svg>
