<svg width="489" height="488" viewBox="0 0 489 488" fill="none" xmlns="http://www.w3.org/2000/svg">
<path d="M436 76C407.33 76 384 99.33 384 128C384 143.18 390.7 157.19 401.51 166.83L359.22 237.63C356.18 242.72 351.5 243.48 348.99 243.48C347.06 243.48 340.53 242.93 337.75 235.87L280.19 89.3999C290.14 79.8199 296.01 66.49 296.01 52.01C296.01 23.34 272.68 0.0100098 244.01 0.0100098C215.34 0.0100098 192.01 23.34 192.01 52.01C192.01 66.49 197.88 79.8299 207.83 89.3999L150.27 235.87C147.49 242.93 140.97 243.48 139.03 243.48C136.51 243.48 131.84 242.72 128.8 237.63L86.51 166.83C97.32 157.19 104.02 143.17 104.02 128C104.02 99.33 80.69 76 52.02 76C23.35 76 0.0200195 99.33 0.0200195 128C0.0200195 144.36 7.56002 159.33 20.02 169V468C20.02 479.05 28.97 488 40.02 488H448.02C459.07 488 468.02 479.05 468.02 468V169C480.48 159.32 488.02 144.36 488.02 128C488 99.33 464.67 76 436 76Z" fill="#1A1D2B"/>
<path d="M468 128C468 110.33 453.67 96 436 96C418.33 96 404 110.33 404 128C404 143.38 414.85 156.21 429.31 159.29L376.38 247.89C362.75 270.71 328.85 267.92 319.13 243.18L255.7 81.76C267.58 77.09 276 65.54 276 52C276 34.33 261.67 20 244 20C226.33 20 212 34.33 212 52C212 65.54 220.42 77.09 232.3 81.76L168.87 243.18C159.15 267.92 125.25 270.71 111.62 247.89L58.69 159.29C73.15 156.21 84 143.38 84 128C84 110.33 69.67 96 52 96C34.33 96 20 110.33 20 128C20 141.43 28.28 152.9 40 157.65V468H448V157.65C459.72 152.9 468 141.43 468 128Z" fill="#FFCE33"/>
<path d="M244 84C239.87 84 235.93 83.19 232.3 81.76L224.98 100.38C230.87 102.7 237.28 104 243.99 104C250.7 104 257.11 102.71 263 100.38L255.68 81.76C252.07 83.19 248.13 84 244 84Z" fill="#FFB329"/>
<path d="M244 64C250.627 64 256 58.6274 256 52C256 45.3726 250.627 40 244 40C237.373 40 232 45.3726 232 52C232 58.6274 237.373 64 244 64Z" fill="#FFEEB8"/>
<path d="M436 140C442.627 140 448 134.627 448 128C448 121.373 442.627 116 436 116C429.373 116 424 121.373 424 128C424 134.627 429.373 140 436 140Z" fill="#FFEEB8"/>
<path d="M436 160C433.7 160 431.47 159.75 429.31 159.29L418.71 177.04C421.69 178.09 424.8 178.86 428 179.36V448H40V468H448V157.65C444.29 159.15 440.25 160 436 160Z" fill="#FFB329"/>
<path d="M52 140C58.6274 140 64 134.627 64 128C64 121.373 58.6274 116 52 116C45.3726 116 40 121.373 40 128C40 134.627 45.3726 140 52 140Z" fill="#FFEEB8"/>
<path d="M52 160C54.3 160 56.53 159.75 58.69 159.29L69.29 177.03C63.88 178.94 58.06 180 52 180C47.87 180 43.85 179.5 40 178.59V157.66C43.71 159.15 47.75 160 52 160Z" fill="#FFB329"/>
<path d="M70 428C64.48 428 60 423.52 60 418V236.72C60 232.22 63 228.28 67.34 227.08C71.68 225.88 76.28 227.73 78.59 231.59L94.45 258.14C103.93 274 120.59 283.47 139.02 283.47C160.49 283.47 179.48 270.6 187.4 250.68C189.44 245.55 195.25 243.04 200.39 245.08C205.52 247.12 208.03 252.93 205.99 258.07C195.03 285.65 168.74 303.46 139.03 303.47H139.02C115.17 303.47 93.46 292.03 80.01 272.62V418C80 423.52 75.52 428 70 428Z" fill="#FFEEB8"/>
<path d="M348.98 303.48C319.13 303.48 292.8 285.55 281.9 257.81L244 161.36L235.24 183.65C233.22 188.79 227.42 191.32 222.28 189.3C217.14 187.28 214.61 181.47 216.63 176.34L234.7 130.36C236.2 126.53 239.9 124.02 244.01 124.02C248.12 124.02 251.81 126.54 253.32 130.36L300.53 250.49C308.4 270.53 327.43 283.48 349 283.47C365.26 283.47 380.23 276.1 390.08 263.25C393.44 258.87 399.72 258.04 404.1 261.39C408.48 264.75 409.32 271.03 405.96 275.41C392.28 293.25 371.52 303.48 348.98 303.48Z" fill="#FFEEB8"/>
<path d="M211.32 227.2C216.843 227.2 221.32 222.723 221.32 217.2C221.32 211.677 216.843 207.2 211.32 207.2C205.797 207.2 201.32 211.677 201.32 217.2C201.32 222.723 205.797 227.2 211.32 227.2Z" fill="#FFEEB8"/>
<path d="M244 308C216.43 308 194 330.43 194 358H294C294 330.43 271.57 308 244 308Z" fill="#FFB329"/>
<path d="M244 388C260.569 388 274 374.569 274 358C274 341.431 260.569 328 244 328C227.431 328 214 341.431 214 358C214 374.569 227.431 388 244 388Z" fill="#F0323A"/>
<path d="M244 368C238.48 368 234 363.52 234 358H214C214 374.57 227.43 388 244 388C260.57 388 274 374.57 274 358H254C254 363.52 249.52 368 244 368Z" fill="#C9181F"/>
<path d="M244 428C219.15 428 195.94 414.6 183.42 393.02C180.65 388.24 182.28 382.12 187.05 379.35C191.83 376.58 197.95 378.21 200.72 382.98C209.67 398.41 226.25 408 244 408C261.75 408 278.33 398.41 287.28 382.98C290.05 378.2 296.17 376.58 300.95 379.35C305.73 382.12 307.35 388.24 304.58 393.02C292.06 414.6 268.85 428 244 428Z" fill="#FFEEB8"/>
</svg>
