<svg width="489" height="489" viewBox="0 0 489 489" fill="none" xmlns="http://www.w3.org/2000/svg">
<path d="M465.89 167.11C462.35 162.48 458.53 158.4 454.57 154.71C464.97 147.92 474.67 139.23 483.36 128.8C487.76 123.52 489.14 116.34 487.01 109.8C484.88 103.26 479.54 98.28 472.86 96.6C458.18 92.92 451.33 87.41 444.05 79.53C460.76 65.07 475.27 54.53 475.53 54.34C488.94 44.67 491.99 25.89 482.33 12.47C476.71 4.65997 467.6 0.0100098 457.98 0.0100098C451.65 0.0100098 445.59 1.97004 440.46 5.67004C439.17 6.60004 418.58 21.5 396.38 41.67C381.75 35.69 364 31.94 341.94 30.25C340.96 29.3 339.97 28.37 338.96 27.46C319.11 9.50996 295.82 0.0200195 271.61 0.0200195H224C212.95 0.0200195 204 8.97002 204 20.02C204 25.32 204.27 30.3499 204.75 35.1899C202.75 34.5599 197.03 31.89 192.01 32.02C187.15 32.15 182.37 33.79 178.65 37.14C173.84 41.46 171.46 47.81 172.14 54.14C150.82 58.39 128.11 68.92 107.39 84.45C86.4599 100.14 56.0898 132.25 30.3298 196.16C12.5998 240.13 1.60989 288.78 0.159888 329.65C-2.14011 394.31 25.4298 427.23 46.3699 446.37C65.9298 464.25 99.3299 488.02 163.31 488.02C165.91 488.02 168.57 487.98 171.22 487.9C215.37 486.59 268.01 476.64 315.64 460.59C385 437.23 419.93 409.6 437.02 390.54C464.52 359.87 468.12 328.18 468.02 301.23C467.97 288.47 466.13 275.98 462.98 263.92C464.66 263.95 466.31 264.01 468.02 264.01C479.07 264.01 488.02 255.06 488.02 244.01C488 211.71 480.77 186.56 465.89 167.11Z" fill="#1A1D2B"/>
<path d="M352.98 215.15C342.61 198 338.33 176.72 340.6 153.6C340.62 153.42 340.65 153.24 340.67 153.07C340.63 153.04 340.59 153 340.54 152.97C325.57 162.93 307.27 168 285.69 168C260.35 168 236.68 158.53 217.23 140.6C199.51 124.27 186.09 101.73 177.18 73.49C157.19 77.18 136.64 87.4801 119.36 100.43C60.9997 144.16 22.7797 255.22 20.1197 330.33C18.0497 388.75 43.2897 416.46 59.8397 431.58C76.3797 446.7 106.7 469.78 170.61 467.88C252.78 465.44 374.28 430.51 422.12 377.16C444.51 352.19 448.11 326.33 448.01 301.28C447.96 288.09 445.67 275.13 441.83 262.64C399.26 258.19 369.4 242.29 352.98 215.15Z" fill="#F0323A"/>
<path d="M441.83 262.71C441.83 262.69 441.83 262.67 441.83 262.65C399.27 258.19 369.4 242.29 352.98 215.14C342.61 197.99 338.33 176.71 340.6 153.59C340.62 153.41 340.65 153.23 340.67 153.06C340.63 153.03 340.59 152.99 340.54 152.96C325.57 162.92 307.27 167.99 285.69 167.99C260.35 167.99 236.68 158.52 217.23 140.59C199.51 124.26 186.1 101.73 177.19 73.49C170.79 74.68 164.33 76.5201 157.94 78.9301C167.91 110.8 183.24 136.46 203.68 155.29C226.89 176.68 255.24 187.98 285.69 187.98C298.39 187.98 310.25 186.43 321.21 183.4C323.16 197.57 327.66 211.92 335.87 225.49C356.41 259.43 391.47 274.54 425.82 280.53C427.2 287.38 427.98 294.33 428 301.34C428.09 324.82 424.59 344.43 407.22 363.8C364.77 411.15 250.29 445.5 170.01 447.88C167.72 447.95 165.49 447.98 163.29 447.98C113.78 447.98 89.2097 431.32 73.3297 416.8C58.0597 402.84 23.3497 371.72 20.1897 328.93C20.1697 329.39 20.1397 329.86 20.1197 330.31C18.0497 388.73 43.2897 416.44 59.8397 431.56C76.3797 446.68 106.7 469.76 170.61 467.86C252.78 465.42 374.28 430.49 422.12 377.14C444.51 352.17 448.11 326.31 448.01 301.26C447.95 288.12 445.67 275.18 441.83 262.71Z" fill="#C9181F"/>
<path d="M421.23 131.46C426.55 134.58 432.13 137.86 437.7 141.57C448.17 135.79 458.46 127.45 468 116C448.05 110.99 437.93 102.37 429.24 92.96C420.51 101.29 412.13 110.16 405.73 118.71C405.2 119.42 404.61 120.07 404 120.7C409.18 124.39 415.01 127.81 421.23 131.46Z" fill="#3F8724"/>
<path d="M360.52 52.5601C363.88 57.5601 366.98 62.81 369.77 68.25C373.14 64.48 376.65 60.75 380.25 57.11C374.52 55.33 368 53.7901 360.52 52.5601Z" fill="#3F8724"/>
<path d="M240.87 41.36C252.39 41.36 262.07 39.2101 272.31 36.9301C283.21 34.5001 294.49 32 308 32C309.43 32 310.81 32.08 312.2 32.14C300.09 24.54 286.41 20 271.62 20C249.52 20 247.72 20 224 20C224 27.24 224.55 33.92 225.54 40.13C230.85 40.95 235.95 41.36 240.87 41.36Z" fill="#3F8724"/>
<path d="M354.11 106.72C340.21 135.54 317.33 148 285.69 148C247.96 148 208.25 121.05 192 52C251.83 73.07 272.94 52 308 52C332.9 52 347.9 63.1199 359.03 93.6899C357.95 97.7399 356.35 102.09 354.11 106.72Z" fill="#5EAC41"/>
<path d="M326.8 104.3C323.12 104.3 319.59 102.27 317.84 98.75C314.48 92 314.12 92 308 92C301.09 92 294.14 93.55 285.34 95.5C272.99 98.25 258.99 101.36 240.87 101.36H240.28C234.76 101.33 230.3 96.8301 230.34 91.3101C230.37 85.8101 234.84 81.36 240.34 81.36C240.36 81.36 240.38 81.36 240.4 81.36H240.88C256.8 81.36 269.66 78.5 281 75.97C290.2 73.92 298.89 71.99 308 71.99C318.32 71.99 327.54 73.33 335.75 89.83C338.21 94.78 336.19 100.78 331.25 103.24C329.81 103.96 328.29 104.3 326.8 104.3Z" fill="#88D66B"/>
<path d="M468 244C468 148.73 399.3 159.75 371.83 116C355.8 146.6 334.82 244 468 244Z" fill="#5EAC41"/>
<path d="M433.43 220.9C429.32 220.9 425.47 218.35 424.01 214.26C418.76 199.57 408.27 193.42 390.88 183.22L390.68 183.1C388.84 182.02 386.98 180.93 385.11 179.81C380.37 176.98 378.81 170.84 381.64 166.1C384.47 161.36 390.61 159.81 395.35 162.63C397.19 163.72 399 164.79 400.8 165.84L400.99 165.95C419.32 176.7 435.14 185.98 442.84 207.52C444.7 212.72 441.99 218.44 436.79 220.3C435.68 220.71 434.55 220.9 433.43 220.9Z" fill="#88D66B"/>
<path d="M381.29 93.0899C383.03 96.4299 385.66 101.46 389.64 106.81C414.01 74.21 463.27 38.5099 463.84 38.1099C468.32 34.8799 469.34 28.63 466.11 24.15C462.88 19.67 456.63 18.65 452.15 21.88C449.88 23.51 406.15 55.2 378.87 88.26C379.62 89.8 380.43 91.4299 381.29 93.0899Z" fill="#5EAC41"/>
<path d="M388.63 105.15C388.68 105.22 388.72 105.29 388.76 105.36C389.06 105.83 389.41 106.25 389.72 106.71C393.64 101.48 398.19 96.18 403.08 90.95C397.05 80.94 393.51 72.1 393.51 72.1C388.31 77.41 383.3 82.89 378.76 88.41C382.16 94.83 386.85 102.39 388.63 105.15Z" fill="#3F8724"/>
<path d="M465.07 37.07C461.16 40.98 454.83 40.98 450.93 37.07C447.02 33.16 447.02 26.8301 450.93 22.9301C454.84 19.0201 461.17 19.0201 465.07 22.9301C468.98 26.8301 468.98 33.17 465.07 37.07Z" fill="#88D66B"/>
<path d="M112.44 159.93C110.32 159.93 108.19 159.26 106.38 157.88C101.99 154.53 101.15 148.25 104.5 143.86C113.15 132.54 122.18 123.32 131.36 116.44C132.94 115.26 134.61 114.06 136.63 112.68C141.18 109.56 147.41 110.72 150.53 115.27C153.65 119.82 152.49 126.05 147.94 129.17C146.4 130.22 144.87 131.3 143.35 132.44C135.65 138.21 127.92 146.14 120.39 155.99C118.42 158.57 115.45 159.93 112.44 159.93Z" fill="#FFC2C3"/>
<path d="M50.1098 341.4C49.9898 341.4 49.8698 341.4 49.7498 341.39C44.2298 341.19 39.9198 336.56 40.1098 331.04C41.3198 296.83 50.5499 255.11 65.4299 216.57C67.4199 211.42 73.2098 208.85 78.3598 210.84C83.5098 212.83 86.0798 218.62 84.0898 223.77C69.9798 260.32 61.2398 299.67 60.0998 331.75C59.8998 337.15 55.4698 341.4 50.1098 341.4Z" fill="#FFC2C3"/>
<path opacity="0.65" d="M91.1799 193.74C96.7028 193.74 101.18 189.263 101.18 183.74C101.18 178.217 96.7028 173.74 91.1799 173.74C85.6571 173.74 81.1799 178.217 81.1799 183.74C81.1799 189.263 85.6571 193.74 91.1799 193.74Z" fill="white"/>
<path d="M234 244C239.523 244 244 239.523 244 234C244 228.477 239.523 224 234 224C228.477 224 224 228.477 224 234C224 239.523 228.477 244 234 244Z" fill="#C9181F"/>
<path d="M294 284C299.523 284 304 279.523 304 274C304 268.477 299.523 264 294 264C288.477 264 284 268.477 284 274C284 279.523 288.477 284 294 284Z" fill="#C9181F"/>
<path d="M354 324C359.523 324 364 319.523 364 314C364 308.477 359.523 304 354 304C348.477 304 344 308.477 344 314C344 319.523 348.477 324 354 324Z" fill="#C9181F"/>
<path d="M174 204C179.523 204 184 199.523 184 194C184 188.477 179.523 184 174 184C168.477 184 164 188.477 164 194C164 199.523 168.477 204 174 204Z" fill="#C9181F"/>
<path d="M174 264C179.523 264 184 259.523 184 254C184 248.477 179.523 244 174 244C168.477 244 164 248.477 164 254C164 259.523 168.477 264 174 264Z" fill="#C9181F"/>
<path d="M294 224C299.523 224 304 219.523 304 214C304 208.477 299.523 204 294 204C288.477 204 284 208.477 284 214C284 219.523 288.477 224 294 224Z" fill="#C9181F"/>
<path d="M234 304C239.523 304 244 299.523 244 294C244 288.477 239.523 284 234 284C228.477 284 224 288.477 224 294C224 299.523 228.477 304 234 304Z" fill="#C9181F"/>
<path d="M294 344C299.523 344 304 339.523 304 334C304 328.477 299.523 324 294 324C288.477 324 284 328.477 284 334C284 339.523 288.477 344 294 344Z" fill="#C9181F"/>
<path d="M114 284C119.523 284 124 279.523 124 274C124 268.477 119.523 264 114 264C108.477 264 104 268.477 104 274C104 279.523 108.477 284 114 284Z" fill="#C9181F"/>
<path d="M174 324C179.523 324 184 319.523 184 314C184 308.477 179.523 304 174 304C168.477 304 164 308.477 164 314C164 319.523 168.477 324 174 324Z" fill="#C9181F"/>
<path d="M234 364C239.523 364 244 359.523 244 354C244 348.477 239.523 344 234 344C228.477 344 224 348.477 224 354C224 359.523 228.477 364 234 364Z" fill="#C9181F"/>
<path d="M294 404C299.523 404 304 399.523 304 394C304 388.477 299.523 384 294 384C288.477 384 284 388.477 284 394C284 399.523 288.477 404 294 404Z" fill="#C9181F"/>
<path d="M114 344C119.523 344 124 339.523 124 334C124 328.477 119.523 324 114 324C108.477 324 104 328.477 104 334C104 339.523 108.477 344 114 344Z" fill="#C9181F"/>
<path d="M114 404C119.523 404 124 399.523 124 394C124 388.477 119.523 384 114 384C108.477 384 104 388.477 104 394C104 399.523 108.477 404 114 404Z" fill="#C9181F"/>
<path d="M174 384C179.523 384 184 379.523 184 374C184 368.477 179.523 364 174 364C168.477 364 164 368.477 164 374C164 379.523 168.477 384 174 384Z" fill="#C9181F"/>
<path d="M234 424C239.523 424 244 419.523 244 414C244 408.477 239.523 404 234 404C228.477 404 224 408.477 224 414C224 419.523 228.477 424 234 424Z" fill="#C9181F"/>
</svg>
