<svg width="489" height="489" viewBox="0 0 489 489" fill="none" xmlns="http://www.w3.org/2000/svg">
<path d="M456.96 122.37C452.93 116.68 448.58 111.39 443.92 106.51C469.4 87.02 484.53 64.76 485.63 63.1C488.82 58.31 489.8 52.38 488.31 46.82C486.82 41.26 483.01 36.61 477.85 34.07C477.15 33.73 460.51 25.54 438.56 17.28C408.07 5.81 382.84 0 363.59 0C318.71 0 294.41 8.68001 265.39 35.48C259.16 25.62 252.09 16.68 244.21 8.79999C238.54 3.12999 231.01 0.0100098 222.99 0.0100098C214.98 0.0100098 207.45 3.13001 201.79 8.79001C196.12 14.46 193 21.99 192.99 30C192.99 38.01 196.11 45.55 201.77 51.22C208.51 57.96 213.95 65.67 218.36 73.78C213.38 72.21 208.24 70.85 202.96 69.72C185.33 65.94 168.4 64.02 152.63 64.02C101.4 64.02 60.03 84.2 33.01 122.39C12.65 151.16 0.97998 190.62 0.97998 230.67C0.97998 302.14 25.02 368.79 68.67 418.34C87.5 439.72 109.7 457.43 132.86 469.57C155.9 481.65 179.47 488.03 201.01 488.03C212.33 488.03 228.76 485.87 244.98 482.25C261.2 485.87 277.63 488.03 288.95 488.03C310.49 488.03 334.05 481.65 357.1 469.57C380.26 457.43 402.46 439.72 421.29 418.34C464.94 368.8 488.98 302.15 488.98 230.67C489 190.6 477.32 151.14 456.96 122.37Z" fill="#1A1D2B"/>
<path d="M243.82 81.2901C244.21 81.3001 244.6 81.3501 245 81.3501C249.53 81.3501 253.96 80.4501 258.18 78.6701C259.93 77.9301 261.73 77.2501 263.54 76.5701C256.54 57.8201 245.98 38.8501 230.07 22.9301C226.17 19.0201 219.83 19.0201 215.93 22.9201C212.02 26.8201 212.02 33.1601 215.93 37.0601C228.85 50.0001 237.73 65.5901 243.82 81.2901Z" fill="#81492E"/>
<path d="M245 81.3499C249.53 81.3499 253.96 80.45 258.18 78.67C259.93 77.93 261.73 77.2499 263.54 76.5699C261.26 70.4499 258.59 64.2999 255.49 58.2499C253.79 58.8999 252.08 59.5399 250.42 60.2399C248.67 60.9799 246.85 61.3499 245 61.3499C243.15 61.3499 241.33 60.9799 239.58 60.2399C237.04 59.1699 234.46 58.16 231.82 57.2C236.69 64.96 240.6 73.1099 243.78 81.2899C244.19 81.2999 244.59 81.3499 245 81.3499Z" fill="#693822"/>
<path d="M427.07 117.88C409.39 128.28 388.28 136 364.49 136C340.3 136 315.46 127.13 294.54 111.02C287.53 105.62 281.34 99.66 276.08 93.37C272.59 94.51 269.19 95.7499 265.95 97.1099C252.51 102.77 237.5 102.77 224.06 97.1099C216.35 93.8599 207.94 91.23 198.78 89.26C62.26 59.95 21 159.5 21 230.64C21 379.36 128.18 468 201.03 468C210.07 468 224.85 466.23 240.74 462.68C243.55 462.05 246.47 462.05 249.27 462.68C265.16 466.23 279.94 468 288.97 468C361.82 468 469 379.36 469 230.64C469 193.3 457.62 148.13 427.07 117.88Z" fill="#F0323A"/>
<path d="M427.07 117.88C409.39 128.28 388.28 136 364.49 136C340.3 136 315.46 127.13 294.54 111.02C287.54 105.63 281.37 99.6799 276.11 93.4099C272.61 94.5499 269.19 95.7499 265.95 97.1099C262.7 98.4799 259.36 99.5099 255.97 100.22C279.84 132.6 322.29 156.01 364.49 156.01C386.01 156.01 405.42 150.79 422.44 143C423.07 143.83 423.71 144.63 424.32 145.49C440.01 167.66 449.01 198.7 449.01 230.66C449.01 292.39 428.52 349.65 391.31 391.88C360.81 426.5 321.6 448.01 288.98 448.01C282.66 448.01 269.62 446.74 253.64 443.17C250.81 442.54 247.91 442.22 245.01 442.22C242.11 442.22 239.21 442.54 236.38 443.17C220.4 446.74 207.35 448.01 201.03 448.01C168.47 448.01 109.29 433.74 78.73 399.25C115.38 443.71 162.9 468.01 201.03 468.01C210.07 468.01 224.85 466.24 240.74 462.69C243.55 462.06 246.47 462.06 249.27 462.69C265.16 466.24 279.94 468.01 288.97 468.01C361.82 468.01 469 379.37 469 230.65C469 193.3 457.62 148.13 427.07 117.88Z" fill="#C9181F"/>
<path d="M277 52C282.06 81.79 322.08 116 364.49 116C426.3 116 469 52 469 52C469 52 404.2 20 363.59 20C322.98 20 303.19 27.22 277 52Z" fill="#5EAC41"/>
<path d="M364.49 96.0001C339.04 96.0001 317.14 80.3101 306.12 66.8801C302.62 62.6101 303.24 56.3101 307.51 52.8101C311.78 49.3101 318.08 49.9301 321.58 54.2001C330.48 65.0501 347.2 76.0001 364.48 76.0001C379.7 76.0001 395.63 69.0801 411.84 55.4501C416.07 51.9001 422.37 52.4401 425.93 56.6601C429.49 60.8901 428.94 67.1901 424.72 70.7501C404.81 87.5001 384.54 96.0001 364.49 96.0001Z" fill="#88D66B"/>
<path d="M223 40C228.523 40 233 35.5228 233 30C233 24.4772 228.523 20 223 20C217.477 20 213 24.4772 213 30C213 35.5228 217.477 40 223 40Z" fill="#96593C"/>
<path d="M212.41 134.76C211.12 134.76 209.8 134.51 208.53 133.97C203.04 131.66 196.93 129.77 190.38 128.37C167.29 123.41 146.8 122.61 129.36 126.33C123.96 127.47 118.65 124.04 117.5 118.63C116.35 113.23 119.79 107.92 125.2 106.77C133.81 104.93 143.05 104 152.65 104C165.6 104 179.71 105.62 194.59 108.81C202.36 110.48 209.66 112.74 216.3 115.54C221.39 117.68 223.78 123.55 221.64 128.64C220.02 132.46 216.31 134.76 212.41 134.76Z" fill="#FFC2C3"/>
<path d="M101.7 389.89C98.82 389.89 95.97 388.65 93.99 386.26C69.82 357.04 41 306.33 41 230.64C41 218.82 42.56 188.25 57.01 159.77C59.51 154.84 65.53 152.88 70.45 155.38C75.38 157.88 77.34 163.9 74.84 168.82C62 194.14 61 222.54 61 230.64C61 300.38 87.32 346.83 109.4 373.51C112.92 377.77 112.33 384.07 108.07 387.59C106.2 389.14 103.94 389.89 101.7 389.89Z" fill="#FFC2C3"/>
<path d="M90.9302 143.13C96.453 143.13 100.93 138.653 100.93 133.13C100.93 127.607 96.453 123.13 90.9302 123.13C85.4073 123.13 80.9302 127.607 80.9302 133.13C80.9302 138.653 85.4073 143.13 90.9302 143.13Z" fill="#FFC2C3"/>
</svg>
