<?xml version="1.0" encoding="utf-8"?>
<!-- Generator: Adobe Illustrator 28.3.0, SVG Export Plug-In . SVG Version: 6.00 Build 0)  -->
<svg version="1.1" id="Calque_1" xmlns="http://www.w3.org/2000/svg" xmlns:xlink="http://www.w3.org/1999/xlink" x="0px" y="0px"
	 viewBox="0 0 30 30" style="enable-background:new 0 0 30 30;" xml:space="preserve">
<style type="text/css">
	.st0{fill:url(#SVGID_1_);}
	.st1{fill:url(#SVGID_00000066482858995711731640000012614991400685206661_);}
	.st2{fill:url(#SVGID_00000108270352442407922890000000811669240731662758_);}
	.st3{opacity:0.3;fill:url(#SVGID_00000040552602758511213640000008756214780180794268_);}
	.st4{opacity:0.3;fill:url(#SVGID_00000016066327642678472870000015965078088916549040_);}
	.st5{opacity:0.2;fill:url(#SVGID_00000176016645175001741740000016410669081724517822_);}
</style>
<g>
	
		<radialGradient id="SVGID_1_" cx="-6509.8457" cy="11811.7266" r="529.2031" gradientTransform="matrix(0.02 -0.0197 0.02 0.0197 -90.8186 -346.2534)" gradientUnits="userSpaceOnUse">
		<stop  offset="0" style="stop-color:#020203"/>
		<stop  offset="0.0867" style="stop-color:#020203;stop-opacity:0.9133"/>
		<stop  offset="1" style="stop-color:#020203;stop-opacity:0"/>
	</radialGradient>
	<path class="st0" d="M25.62,4.32c5.84,5.76,5.84,15.1,0,20.85s-15.3,5.76-21.14,0s-5.84-15.1,0-20.85S19.79-1.44,25.62,4.32z"/>
	
		<radialGradient id="SVGID_00000039826135574756186530000001235909162465934223_" cx="-11947.1963" cy="8824.8281" r="442.6239" gradientTransform="matrix(0.0129 -0.0199 0.0289 0.0182 -87.5351 -380.2642)" gradientUnits="userSpaceOnUse">
		<stop  offset="0.049" style="stop-color:#020203"/>
		<stop  offset="0.0766" style="stop-color:#020203;stop-opacity:0.9694"/>
		<stop  offset="0.9507" style="stop-color:#020203;stop-opacity:0"/>
	</radialGradient>
	<path style="fill:url(#SVGID_00000039826135574756186530000001235909162465934223_);" d="M19.7,9.25
		c7.07,4.44,10.25,11.99,7.11,16.86c-3.14,4.87-11.42,5.22-18.49,0.78S-1.93,14.9,1.21,10.03S12.63,4.81,19.7,9.25z"/>
	<g>
		
			<radialGradient id="SVGID_00000088832142878346612070000015858667983321074335_" cx="-1917.3429" cy="12988.1934" r="525.4794" gradientTransform="matrix(-0.0262 0.0105 0.0106 0.0258 -174.6514 -307.7596)" gradientUnits="userSpaceOnUse">
			<stop  offset="0" style="stop-color:#FFFEFE"/>
			<stop  offset="0.1159" style="stop-color:#FBFAFA"/>
			<stop  offset="0.6446" style="stop-color:#E9E9E9"/>
			<stop  offset="0.9946" style="stop-color:#E3E3E2"/>
		</radialGradient>
		<path style="fill:url(#SVGID_00000088832142878346612070000015858667983321074335_);" d="M4.69,17.45
			c2.09,5.08,7.95,7.52,13.1,5.46c5.15-2.06,7.63-7.85,5.54-12.93c-2.09-5.08-7.95-7.52-13.1-5.46C5.08,6.59,2.6,12.38,4.69,17.45z"
			/>
		<g>
			
				<radialGradient id="SVGID_00000043459260909390755150000004085737155830217094_" cx="1306.7812" cy="11973.8203" r="508.7647" gradientTransform="matrix(-0.0225 0.0168 0.017 0.0222 -161.661 -277.8555)" gradientUnits="userSpaceOnUse">
				<stop  offset="0" style="stop-color:#FFFFFF;stop-opacity:0"/>
				<stop  offset="0.0843" style="stop-color:#E9E8EA;stop-opacity:0.0972"/>
				<stop  offset="0.2471" style="stop-color:#B2B0B4;stop-opacity:0.2849"/>
				<stop  offset="0.4717" style="stop-color:#68666B;stop-opacity:0.544"/>
				<stop  offset="0.7469" style="stop-color:#1C1D22;stop-opacity:0.8613"/>
				<stop  offset="0.8671" style="stop-color:#020203"/>
			</radialGradient>
			<path style="opacity:0.3;fill:url(#SVGID_00000043459260909390755150000004085737155830217094_);" d="M5.98,19.71
				c3.35,4.37,9.66,5.24,14.09,1.93c4.43-3.31,5.31-9.53,1.96-13.9C18.68,3.37,12.37,2.5,7.94,5.81C3.51,9.11,2.63,15.33,5.98,19.71
				z"/>
			
				<radialGradient id="SVGID_00000100341858197960114890000004327427457419911095_" cx="-6399.0913" cy="11530.7471" r="509.1569" gradientTransform="matrix(0.02 -0.0197 0.02 0.0197 -90.8186 -346.2534)" gradientUnits="userSpaceOnUse">
				<stop  offset="0" style="stop-color:#FFFFFF;stop-opacity:0"/>
				<stop  offset="0.1032" style="stop-color:#F8F7F8;stop-opacity:0.1051"/>
				<stop  offset="0.2269" style="stop-color:#E2E1E3;stop-opacity:0.231"/>
				<stop  offset="0.3612" style="stop-color:#C1BFC2;stop-opacity:0.3677"/>
				<stop  offset="0.5029" style="stop-color:#969398;stop-opacity:0.512"/>
				<stop  offset="0.6506" style="stop-color:#666369;stop-opacity:0.6623"/>
				<stop  offset="0.8032" style="stop-color:#35343A;stop-opacity:0.8177"/>
				<stop  offset="0.957" style="stop-color:#06070A;stop-opacity:0.9743"/>
				<stop  offset="0.9823" style="stop-color:#020203"/>
			</radialGradient>
			<path style="opacity:0.3;fill:url(#SVGID_00000100341858197960114890000004327427457419911095_);" d="M5.98,19.71
				c3.35,4.37,9.66,5.24,14.09,1.93c4.43-3.31,5.31-9.53,1.96-13.9C18.68,3.37,12.37,2.5,7.94,5.81C3.51,9.11,2.63,15.33,5.98,19.71
				z"/>
			
				<radialGradient id="SVGID_00000006708169619683663090000017562545725591204229_" cx="-12190.7959" cy="607.5344" r="968.2256" gradientTransform="matrix(-2.349635e-03 -0.0278 0.0281 -2.318390e-03 -40.4576 -329.1437)" gradientUnits="userSpaceOnUse">
				<stop  offset="0.0463" style="stop-color:#FFFFFF;stop-opacity:0"/>
				<stop  offset="0.4697" style="stop-color:#020304;stop-opacity:0.9897"/>
				<stop  offset="0.4741" style="stop-color:#020203"/>
				<stop  offset="0.6592" style="stop-color:#020203"/>
				<stop  offset="0.6773" style="stop-color:#06070A;stop-opacity:0.9116"/>
				<stop  offset="0.7092" style="stop-color:#1C1D21;stop-opacity:0.7563"/>
				<stop  offset="0.751" style="stop-color:#424147;stop-opacity:0.5524"/>
				<stop  offset="0.8012" style="stop-color:#858287;stop-opacity:0.3076"/>
				<stop  offset="0.8579" style="stop-color:#F1F0F1;stop-opacity:0.0309"/>
				<stop  offset="0.8642" style="stop-color:#FFFFFF;stop-opacity:0"/>
			</radialGradient>
			<path style="opacity:0.2;fill:url(#SVGID_00000006708169619683663090000017562545725591204229_);" d="M20.61,6.24
				c-4.19-3.6-10.54-3.17-14.19,0.97c-3.65,4.13-3.21,10.4,0.98,14c4.19,3.6,10.54,3.17,14.19-0.97C25.24,16.1,24.8,9.84,20.61,6.24
				z"/>
		</g>
	</g>
</g>
</svg>
