<?xml version="1.0" encoding="utf-8"?>
<!-- Generator: Adobe Illustrator 28.3.0, SVG Export Plug-In . SVG Version: 6.00 Build 0)  -->
<svg version="1.1" id="Calque_1" xmlns="http://www.w3.org/2000/svg" xmlns:xlink="http://www.w3.org/1999/xlink" x="0px" y="0px"
	 viewBox="0 0 72 158" style="enable-background:new 0 0 72 158;" xml:space="preserve">
<style type="text/css">
	.st0{fill:#FFFFFF;}
	.st1{fill:#C1292E;stroke:#9A9999;stroke-width:0.5278;stroke-miterlimit:10;}
	.st2{fill:#020203;stroke:#9A9999;stroke-width:0.5278;stroke-miterlimit:10;}
	.st3{fill:none;stroke:#9A9999;stroke-width:0.5278;stroke-miterlimit:10;}
	.st4{fill:none;stroke:#FFFFFF;stroke-width:0.2639;stroke-miterlimit:10;}
	.st5{fill:#C1292E;}
	.st6{fill:#020203;}
</style>
<g>
	<g>
		<path class="st0" d="M3.61,44.59l-1.36-0.24v-2.9h0.27v0.15c0,0.16,0.11,0.24,0.33,0.24h3.9c0.15-0.01,0.23-0.09,0.23-0.23v-0.16
			h0.27v2.85l-1.31,0.13v-0.29c0.42-0.13,0.7-0.26,0.82-0.4c0.15-0.18,0.22-0.41,0.22-0.7c0-0.29-0.08-0.44-0.23-0.44H4.97v0.42
			c0,0.18,0.15,0.29,0.44,0.31h0.34v0.27H3.88v-0.27h0.28c0.17,0,0.31-0.03,0.41-0.08c0.09-0.04,0.14-0.11,0.14-0.23v-0.42H2.85
			c-0.22,0-0.33,0.14-0.33,0.42c0.01,0.38,0.1,0.66,0.29,0.84c0.15,0.16,0.42,0.3,0.8,0.44V44.59z"/>
		<path class="st0" d="M6.97,48.09c0-0.29-0.09-0.46-0.28-0.5l-4.44-1.07v-0.36l4.49-0.92c0.16-0.03,0.23-0.13,0.23-0.31v-0.14h0.27
			v1.54H6.97c0-0.22-0.05-0.33-0.14-0.33c-0.08,0-0.15,0-0.19,0.01l-2.96,0.65l2.93,0.61c0.11,0,0.19,0,0.23,0.01
			c0.08,0,0.13-0.1,0.13-0.29v-0.1h0.27v1.2H6.97z"/>
		<path class="st0" d="M3.61,51.45l-1.36-0.24v-2.9h0.27v0.15c0,0.16,0.11,0.24,0.33,0.24h3.9c0.15-0.01,0.23-0.09,0.23-0.23v-0.16
			h0.27v2.85l-1.31,0.13V51c0.42-0.13,0.7-0.26,0.82-0.4c0.15-0.18,0.22-0.41,0.22-0.7c0-0.29-0.08-0.44-0.23-0.44H4.97v0.42
			c0,0.18,0.15,0.29,0.44,0.31h0.34v0.27H3.88v-0.27h0.28c0.17,0,0.31-0.03,0.41-0.08c0.09-0.04,0.14-0.11,0.14-0.23v-0.42H2.85
			c-0.22,0-0.33,0.14-0.33,0.42c0.01,0.38,0.1,0.66,0.29,0.84c0.15,0.16,0.42,0.3,0.8,0.44V51.45z"/>
		<path class="st0" d="M6.97,54.86v-0.11c0-0.18-0.08-0.27-0.25-0.27H2.25v-0.38l3.73-1.71H2.72c-0.13,0-0.2,0.08-0.2,0.24v0.13
			H2.25v-1.03h0.27v0.14c0,0.15,0.07,0.23,0.2,0.24h4c0.17,0,0.25-0.13,0.25-0.38h0.27v0.94l-3.46,1.52h2.95
			c0.17-0.02,0.25-0.12,0.25-0.29v-0.13h0.27v1.07H6.97z"/>
	</g>
</g>
<g>
	<g>
		<path class="st0" d="M6.23,113.56c-0.45,0.16-0.94,0.23-1.49,0.23c-0.44,0-0.85-0.06-1.23-0.17c-0.46-0.14-0.81-0.35-1.04-0.63
			c-0.2-0.25-0.29-0.51-0.29-0.8c0-0.3,0.1-0.57,0.31-0.8c0.18-0.21,0.42-0.37,0.72-0.48c0.38-0.14,0.88-0.21,1.53-0.21
			c0.53,0,0.97,0.06,1.32,0.18c0.84,0.29,1.26,0.75,1.26,1.37c0,0.29-0.1,0.56-0.29,0.8C6.86,113.26,6.6,113.43,6.23,113.56
			L6.23,113.56z M3.42,112.89c0.39,0.09,0.84,0.13,1.33,0.13c0.81,0,1.44-0.09,1.89-0.27c0.28-0.11,0.42-0.28,0.42-0.5
			c0-0.52-0.77-0.78-2.31-0.78c-1.53,0-2.3,0.24-2.3,0.72C2.44,112.53,2.77,112.76,3.42,112.89L3.42,112.89z"/>
		<path class="st0" d="M6.23,116.87c-0.4,0.24-0.89,0.36-1.47,0.36c-0.57,0-1.04-0.1-1.42-0.31c-0.38-0.21-0.65-0.48-0.82-0.8
			c-0.17-0.32-0.26-0.97-0.27-1.95h0.27v0.11c0.01,0.13,0.08,0.19,0.19,0.19h4.11c0.1,0,0.15-0.05,0.15-0.14v-0.16h0.27
			c0,0.82-0.06,1.39-0.18,1.71C6.89,116.3,6.61,116.64,6.23,116.87L6.23,116.87z M3.35,116.22c0.39,0.15,0.88,0.23,1.45,0.23
			c0.92,0,1.55-0.21,1.89-0.66c0.12-0.16,0.19-0.31,0.19-0.48c0-0.08-0.02-0.11-0.06-0.11H2.73c-0.08,0-0.12,0.03-0.12,0.08
			c0.01,0.24,0.09,0.44,0.23,0.6C2.95,116.01,3.12,116.12,3.35,116.22L3.35,116.22z"/>
		<path class="st0" d="M6.23,120.3c-0.4,0.24-0.89,0.36-1.47,0.36c-0.57,0-1.04-0.1-1.42-0.31c-0.38-0.21-0.65-0.48-0.82-0.8
			c-0.17-0.32-0.26-0.97-0.27-1.95h0.27v0.11c0.01,0.13,0.08,0.19,0.19,0.19h4.11c0.1,0,0.15-0.05,0.15-0.14v-0.16h0.27
			c0,0.82-0.06,1.39-0.18,1.71C6.89,119.73,6.61,120.07,6.23,120.3L6.23,120.3z M3.35,119.65c0.39,0.15,0.88,0.23,1.45,0.23
			c0.92,0,1.55-0.21,1.89-0.66c0.12-0.16,0.19-0.31,0.19-0.48c0-0.08-0.02-0.11-0.06-0.11H2.73c-0.08,0-0.12,0.03-0.12,0.08
			c0.01,0.24,0.09,0.44,0.23,0.6C2.95,119.44,3.12,119.55,3.35,119.65L3.35,119.65z"/>
	</g>
</g>
<g>
	<g>
		<path class="st0" d="M11.14,30.4v-1.66h0.23v0.23c0,0.22,0.06,0.33,0.19,0.33h3.11c0.06-0.01,0.09-0.05,0.09-0.12v-0.41h0.23
			c0.01,0.23,0.05,0.42,0.11,0.55c0.05,0.09,0.14,0.19,0.27,0.31v0.24h-3.8c-0.13,0-0.19,0.11-0.19,0.32v0.22H11.14z"/>
		<path class="st0" d="M12.4,33.53c-0.14,0.1-0.29,0.16-0.45,0.17c-0.23-0.01-0.43-0.11-0.57-0.28c-0.19-0.23-0.28-0.45-0.28-0.67
			c0-0.22,0.03-0.4,0.1-0.56c0.03-0.05,0.05-0.11,0.05-0.16c0-0.12-0.05-0.23-0.15-0.32l1.06-0.39l0.07,0.23
			c-0.33,0.16-0.57,0.35-0.7,0.58c-0.11,0.18-0.17,0.36-0.16,0.55c0,0.15,0.06,0.27,0.18,0.38c0.09,0.08,0.21,0.12,0.36,0.13
			c0.09-0.01,0.19-0.05,0.29-0.12c0.07-0.06,0.12-0.14,0.16-0.26l0.27-0.77c0.13-0.36,0.38-0.53,0.75-0.53
			c0.22,0,0.4,0.09,0.54,0.26c0.15,0.17,0.22,0.39,0.22,0.67c0,0.17-0.03,0.34-0.1,0.5C14.01,32.98,14,33.03,14,33.09
			c0,0.07,0.04,0.17,0.13,0.29l-0.86,0.29l-0.05-0.24c0.44-0.2,0.66-0.54,0.66-1c0-0.12-0.03-0.23-0.1-0.31
			c-0.08-0.09-0.18-0.14-0.3-0.14c-0.13,0-0.22,0.02-0.29,0.07c-0.09,0.06-0.16,0.15-0.2,0.28l-0.3,0.8
			C12.63,33.29,12.54,33.42,12.4,33.53L12.4,33.53z"/>
		<path class="st0" d="M11.63,36.58c-0.37-0.2-0.55-0.5-0.54-0.88c0.01-0.19,0.07-0.36,0.18-0.49c0.11-0.13,0.28-0.19,0.52-0.19
			h1.93v-0.67h0.19c0,0.4,0.08,0.66,0.23,0.78c0.15,0.11,0.44,0.17,0.86,0.17v0.28h-1.09v0.94h-0.19v-0.94h-1.93
			c-0.12,0-0.21,0.02-0.27,0.07c-0.07,0.06-0.11,0.13-0.12,0.22c0.01,0.18,0.12,0.36,0.33,0.55L11.63,36.58z"/>
		<path class="st0" d="M11.14,42.01v-1.66h0.23v0.23c0,0.22,0.06,0.33,0.19,0.33h3.11c0.06-0.01,0.09-0.05,0.09-0.12v-0.41h0.23
			c0.01,0.23,0.05,0.42,0.11,0.55c0.05,0.09,0.14,0.19,0.27,0.31v0.24h-3.8c-0.13,0-0.19,0.11-0.19,0.32v0.22H11.14z"/>
		<path class="st0" d="M12.18,45.21l-1.04-0.13V43c0.38,0.07,0.76,0.21,1.13,0.41c0.23,0.12,0.59,0.38,1.1,0.77
			c0.15,0.12,0.34,0.22,0.57,0.29c0.2,0.07,0.37,0.11,0.5,0.12c0.22-0.01,0.38-0.06,0.49-0.15c0.13-0.11,0.2-0.25,0.2-0.43
			c0-0.18-0.05-0.33-0.16-0.45c-0.11-0.12-0.24-0.18-0.39-0.18c-0.08,0-0.15,0.03-0.19,0.1c-0.05,0.15-0.15,0.23-0.31,0.26
			c-0.03-0.01-0.08-0.04-0.14-0.1c-0.06-0.06-0.1-0.14-0.11-0.23c0-0.12,0.05-0.22,0.15-0.29c0.1-0.08,0.23-0.11,0.41-0.11
			c0.15,0,0.32,0.05,0.49,0.16c0.18,0.11,0.31,0.23,0.39,0.38c0.1,0.18,0.15,0.37,0.15,0.59c0,0.16-0.03,0.33-0.09,0.49
			c-0.08,0.15-0.2,0.29-0.38,0.41c-0.19,0.12-0.39,0.18-0.61,0.18c-0.19,0-0.39-0.05-0.58-0.15c-0.2-0.1-0.51-0.35-0.95-0.77
			c-0.4-0.38-0.8-0.65-1.2-0.81v1.18c0,0.08,0.04,0.14,0.12,0.19c0.07,0.04,0.2,0.08,0.4,0.12l0.04,0.01V45.21z"/>
	</g>
</g>
<g>
	<g>
		<path class="st0" d="M2.6,20.59v-1.66h0.23v0.23c0,0.22,0.06,0.33,0.19,0.33h3.11c0.06-0.01,0.09-0.05,0.09-0.12v-0.41h0.23
			c0.01,0.23,0.05,0.42,0.11,0.55c0.05,0.09,0.14,0.19,0.27,0.31v0.24h-3.8c-0.13,0-0.19,0.11-0.19,0.32v0.22H2.6z"/>
		<path class="st0" d="M3.1,23.87c-0.37-0.2-0.55-0.5-0.54-0.88c0.01-0.19,0.07-0.36,0.18-0.49c0.11-0.13,0.28-0.19,0.52-0.19h1.93
			v-0.67h0.19c0,0.4,0.08,0.66,0.23,0.78c0.15,0.11,0.44,0.17,0.86,0.17v0.28H5.38v0.94H5.19v-0.94H3.26
			c-0.12,0-0.21,0.02-0.27,0.07c-0.07,0.06-0.11,0.13-0.12,0.22c0.01,0.18,0.12,0.36,0.33,0.55L3.1,23.87z"/>
		<path class="st0" d="M5.24,26.54c-0.26,0.25-0.65,0.38-1.18,0.38c-0.51,0-0.9-0.13-1.18-0.4c-0.21-0.25-0.31-0.55-0.31-0.92
			c0-0.45,0.13-0.79,0.4-1.02c0.23-0.2,0.59-0.29,1.09-0.29c0.51,0,0.9,0.13,1.16,0.38c0.26,0.25,0.39,0.57,0.39,0.94
			C5.6,25.99,5.48,26.3,5.24,26.54L5.24,26.54z M3.03,26.1c0.21,0.16,0.55,0.24,1.03,0.24c0.46,0,0.79-0.06,0.99-0.19
			C5.27,26,5.38,25.82,5.38,25.6c0-0.2-0.08-0.36-0.24-0.49c-0.2-0.16-0.56-0.24-1.08-0.24c-0.41,0-0.73,0.06-0.95,0.18
			c-0.22,0.11-0.33,0.29-0.33,0.54C2.78,25.78,2.86,25.95,3.03,26.1L3.03,26.1z"/>
		<path class="st0" d="M2.6,29.3v-1.66h0.23v0.23c0,0.22,0.06,0.33,0.19,0.33h3.11c0.06-0.01,0.09-0.05,0.09-0.12v-0.41h0.23
			c0.01,0.23,0.05,0.42,0.11,0.55c0.05,0.09,0.14,0.19,0.27,0.31v0.24h-3.8c-0.13,0-0.19,0.11-0.19,0.32v0.22H2.6z"/>
		<path class="st0" d="M4.29,32.39c-0.16,0.09-0.35,0.14-0.59,0.14c-0.33,0-0.61-0.11-0.83-0.32C2.65,32,2.54,31.73,2.54,31.42
			c0-0.37,0.12-0.66,0.36-0.89c0.21-0.19,0.46-0.29,0.77-0.29c0.26,0,0.5,0.07,0.71,0.22c0.17,0.12,0.32,0.29,0.44,0.5
			c0.19-0.26,0.35-0.43,0.47-0.48c0.14-0.09,0.34-0.13,0.58-0.13c0.26,0,0.49,0.09,0.7,0.28c0.21,0.19,0.32,0.43,0.32,0.74
			c0,0.27-0.08,0.5-0.24,0.67c-0.22,0.23-0.47,0.35-0.78,0.34c-0.2,0-0.4-0.06-0.59-0.18c-0.14-0.08-0.27-0.23-0.39-0.45
			C4.68,32.08,4.47,32.29,4.29,32.39L4.29,32.39z M3.04,31.78c0.18,0.13,0.38,0.19,0.6,0.18c0.12,0,0.26-0.05,0.44-0.14
			c0.17-0.09,0.36-0.29,0.57-0.58c-0.21-0.26-0.53-0.4-0.96-0.4c-0.28,0-0.5,0.05-0.66,0.16c-0.13,0.09-0.2,0.22-0.2,0.38
			C2.83,31.56,2.9,31.69,3.04,31.78L3.04,31.78z M5.1,31.5c0.18,0.23,0.44,0.34,0.78,0.35c0.25,0,0.45-0.05,0.6-0.16
			c0.1-0.07,0.15-0.17,0.15-0.29c0-0.16-0.07-0.28-0.21-0.37c-0.14-0.09-0.31-0.13-0.53-0.13C5.66,30.89,5.4,31.09,5.1,31.5
			L5.1,31.5z"/>
	</g>
</g>
<g>
	<g>
		<path class="st0" d="M2.6,131.73v-1.66h0.23v0.23c0,0.22,0.06,0.33,0.19,0.33h3.11c0.06-0.01,0.09-0.05,0.09-0.12v-0.41h0.23
			c0.01,0.23,0.05,0.42,0.11,0.55c0.05,0.09,0.14,0.19,0.27,0.31v0.24h-3.8c-0.13,0-0.19,0.11-0.19,0.32v0.22H2.6z"/>
		<path class="st0" d="M5.95,134.78c-0.34,0.08-0.76,0.11-1.27,0.11c-0.43,0-0.8-0.03-1.08-0.09c-0.32-0.07-0.58-0.19-0.79-0.36
			c-0.18-0.19-0.27-0.41-0.27-0.67c0-0.22,0.07-0.42,0.22-0.61c0.16-0.17,0.35-0.25,0.57-0.25c0.1,0,0.19,0.03,0.28,0.08
			c0.09,0.06,0.13,0.13,0.13,0.22c0,0.1-0.02,0.18-0.07,0.23c-0.06,0.07-0.14,0.1-0.24,0.11c-0.08-0.01-0.15-0.05-0.22-0.1
			c-0.06-0.05-0.11-0.08-0.15-0.08c-0.08,0-0.14,0.03-0.18,0.1c-0.04,0.07-0.05,0.15-0.05,0.24c0.01,0.27,0.2,0.44,0.58,0.51
			c0.28,0.06,0.62,0.09,1.01,0.11c-0.02-0.02-0.04-0.04-0.06-0.07c-0.14-0.2-0.21-0.41-0.2-0.61c0-0.14,0.06-0.3,0.18-0.48
			c0.08-0.12,0.21-0.22,0.37-0.29c0.19-0.06,0.41-0.09,0.65-0.09c0.34,0,0.6,0.03,0.78,0.09c0.23,0.08,0.43,0.2,0.58,0.38
			c0.12,0.17,0.18,0.36,0.18,0.57c0,0.19-0.06,0.36-0.18,0.54C6.53,134.56,6.27,134.7,5.95,134.78L5.95,134.78z M4.44,133.79
			c0,0.17,0.09,0.35,0.28,0.53c0.54-0.01,0.96-0.04,1.26-0.09c0.22-0.04,0.39-0.1,0.52-0.18c0.08-0.07,0.12-0.15,0.12-0.24
			c0-0.11-0.04-0.19-0.11-0.25c-0.1-0.09-0.22-0.15-0.34-0.18c-0.2-0.05-0.42-0.07-0.66-0.07c-0.29,0-0.51,0.02-0.67,0.07
			C4.57,133.46,4.44,133.6,4.44,133.79L4.44,133.79z"/>
		<path class="st0" d="M3.1,137.91c-0.37-0.2-0.55-0.5-0.54-0.88c0.01-0.19,0.07-0.36,0.18-0.49c0.11-0.13,0.28-0.19,0.52-0.19h1.93
			v-0.67h0.19c0,0.4,0.08,0.66,0.23,0.78c0.15,0.11,0.44,0.17,0.86,0.17v0.28H5.38v0.94H5.19v-0.94H3.26
			c-0.12,0-0.21,0.02-0.27,0.07c-0.07,0.06-0.11,0.13-0.12,0.22c0.01,0.18,0.12,0.36,0.33,0.55L3.1,137.91z"/>
		<path class="st0" d="M5.24,140.58c-0.26,0.25-0.65,0.38-1.18,0.38c-0.51,0-0.9-0.13-1.18-0.4c-0.21-0.25-0.31-0.55-0.31-0.92
			c0-0.45,0.13-0.79,0.4-1.02c0.23-0.2,0.59-0.29,1.09-0.29c0.51,0,0.9,0.13,1.16,0.38c0.26,0.25,0.39,0.56,0.39,0.94
			C5.6,140.02,5.48,140.34,5.24,140.58L5.24,140.58z M3.03,140.14c0.21,0.16,0.55,0.24,1.03,0.24c0.46,0,0.79-0.06,0.99-0.19
			c0.22-0.14,0.33-0.33,0.33-0.55c0-0.2-0.08-0.36-0.24-0.49c-0.2-0.16-0.56-0.24-1.08-0.24c-0.41,0-0.73,0.06-0.95,0.18
			c-0.22,0.11-0.33,0.29-0.33,0.54C2.78,139.82,2.86,139.99,3.03,140.14L3.03,140.14z"/>
		<path class="st0" d="M4.57,143.44c-0.18,0.15-0.42,0.23-0.73,0.23c-0.23,0-0.45-0.05-0.68-0.16c-0.22-0.11-0.39-0.24-0.49-0.4
			c-0.08-0.17-0.12-0.35-0.12-0.54c0-0.18,0.03-0.35,0.1-0.52c0.08-0.19,0.21-0.34,0.39-0.45c0.14-0.09,0.31-0.14,0.49-0.14
			c0.15,0,0.27,0.04,0.36,0.11C3.96,141.62,4,141.7,4,141.79c0,0.09-0.03,0.17-0.08,0.23c-0.07,0.06-0.13,0.09-0.19,0.1
			c-0.08-0.01-0.16-0.05-0.24-0.14c-0.08-0.08-0.15-0.12-0.2-0.12c-0.12,0-0.23,0.06-0.32,0.19c-0.08,0.11-0.13,0.23-0.13,0.35
			c0.01,0.21,0.1,0.37,0.26,0.47c0.2,0.13,0.44,0.19,0.72,0.19c0.32,0,0.55-0.05,0.68-0.15c0.13-0.09,0.2-0.25,0.2-0.48v-0.2H5v0.2
			c0,0.16,0.08,0.3,0.23,0.41c0.14,0.1,0.36,0.15,0.66,0.15c0.2,0,0.37-0.05,0.51-0.15c0.12-0.09,0.18-0.22,0.18-0.41
			c0-0.12-0.03-0.23-0.09-0.34c-0.07-0.12-0.16-0.19-0.28-0.19c-0.08,0-0.14,0.04-0.18,0.11c-0.07,0.1-0.15,0.16-0.24,0.17
			c-0.06-0.01-0.12-0.05-0.17-0.11c-0.05-0.04-0.07-0.11-0.07-0.22c0-0.11,0.04-0.19,0.11-0.23c0.08-0.06,0.18-0.09,0.29-0.09
			c0.17,0,0.33,0.04,0.48,0.13c0.15,0.09,0.26,0.2,0.34,0.35c0.08,0.14,0.11,0.32,0.11,0.54c0,0.22-0.05,0.41-0.14,0.58
			c-0.19,0.29-0.48,0.43-0.87,0.43c-0.28,0-0.52-0.08-0.72-0.25c-0.18-0.14-0.28-0.32-0.31-0.52C4.83,143.09,4.73,143.3,4.57,143.44
			L4.57,143.44z"/>
		<path class="st0" d="M4.74,146.43c-0.19,0.07-0.4,0.11-0.62,0.11c-0.36,0-0.67-0.04-0.95-0.13c-0.19-0.08-0.36-0.23-0.5-0.43
			c-0.09-0.13-0.13-0.27-0.13-0.43c0-0.28,0.08-0.5,0.24-0.67c0.15-0.15,0.39-0.28,0.74-0.36c0.31-0.08,0.71-0.11,1.18-0.11
			c0.48,0,0.91,0.05,1.29,0.14c0.25,0.06,0.45,0.17,0.61,0.32c0.19,0.18,0.29,0.39,0.29,0.62c0,0.25-0.08,0.45-0.23,0.61
			c-0.18,0.19-0.38,0.29-0.61,0.29c-0.09,0-0.17-0.02-0.25-0.07c-0.07-0.06-0.11-0.13-0.11-0.22c0-0.2,0.1-0.3,0.29-0.3
			c0.08,0,0.16,0.02,0.24,0.07c0.06,0.03,0.11,0.05,0.15,0.07c0.06-0.01,0.11-0.05,0.14-0.11c0.04-0.09,0.06-0.19,0.06-0.28
			c0-0.13-0.05-0.24-0.15-0.33c-0.1-0.09-0.28-0.15-0.52-0.18c-0.36-0.05-0.65-0.07-0.89-0.07c0.05,0.05,0.08,0.1,0.1,0.13
			c0.12,0.19,0.18,0.37,0.18,0.55C5.31,145.97,5.12,146.24,4.74,146.43L4.74,146.43z M3.31,145.85c0.26,0.05,0.49,0.07,0.69,0.07
			l0,0c0.23,0,0.43-0.02,0.6-0.07c0.28-0.09,0.42-0.22,0.42-0.39c0-0.15-0.09-0.32-0.26-0.48l-0.02-0.02c-0.43,0-0.8,0.02-1.1,0.05
			c-0.26,0.03-0.47,0.09-0.64,0.19c-0.12,0.06-0.18,0.15-0.18,0.26c0,0.08,0.03,0.15,0.1,0.22C3.01,145.76,3.14,145.82,3.31,145.85
			L3.31,145.85z"/>
	</g>
</g>
<g>
	<g>
		<path class="st0" d="M12.18,75.73l-1.04-0.13v-2.08c0.38,0.07,0.76,0.21,1.13,0.41c0.23,0.12,0.59,0.38,1.1,0.77
			c0.15,0.12,0.34,0.22,0.57,0.29c0.2,0.07,0.37,0.11,0.5,0.12c0.22-0.01,0.38-0.06,0.49-0.15c0.13-0.11,0.2-0.25,0.2-0.43
			c0-0.18-0.05-0.33-0.16-0.45c-0.11-0.12-0.24-0.18-0.39-0.18c-0.08,0-0.15,0.03-0.19,0.1c-0.05,0.15-0.15,0.23-0.31,0.26
			c-0.03-0.01-0.08-0.04-0.14-0.1c-0.06-0.06-0.1-0.14-0.11-0.23c0-0.12,0.05-0.22,0.15-0.29c0.1-0.08,0.23-0.11,0.41-0.11
			c0.15,0,0.32,0.05,0.49,0.16c0.18,0.11,0.31,0.23,0.39,0.38c0.1,0.18,0.15,0.37,0.15,0.59c0,0.16-0.03,0.33-0.09,0.49
			c-0.08,0.15-0.2,0.29-0.38,0.41c-0.19,0.12-0.39,0.18-0.61,0.18c-0.19,0-0.39-0.05-0.58-0.15c-0.2-0.1-0.51-0.35-0.95-0.77
			c-0.4-0.38-0.8-0.65-1.2-0.81v1.18c0,0.08,0.04,0.14,0.12,0.19c0.07,0.04,0.2,0.08,0.4,0.12l0.04,0.01V75.73z"/>
		<path class="st0" d="M11.16,78.95V77.8h0.2c0,0.19,0.07,0.3,0.19,0.32h1.75c0.17,0,0.31-0.05,0.42-0.15
			c0.08-0.1,0.12-0.21,0.12-0.34c0-0.17-0.09-0.33-0.26-0.48c-0.05-0.05-0.11-0.1-0.19-0.15h-1.85c-0.12,0-0.19,0.11-0.19,0.32h-0.2
			v-1.15h0.2c0,0.19,0.07,0.3,0.19,0.32h2.03c0.09,0,0.13-0.05,0.13-0.16V76.2h0.22c0.02,0.28,0.08,0.54,0.2,0.8h-0.37
			c0.25,0.22,0.37,0.48,0.37,0.78c0,0.25-0.06,0.45-0.19,0.61c-0.13,0.15-0.35,0.23-0.64,0.23h-1.75c-0.12,0-0.19,0.11-0.19,0.32
			H11.16z"/>
		<path class="st0" d="M11.14,81.78v-0.85h0.22c-0.03-0.02-0.05-0.04-0.07-0.07c-0.12-0.18-0.19-0.39-0.19-0.62
			c-0.01-0.29,0.11-0.53,0.34-0.73c0.27-0.22,0.65-0.33,1.13-0.33c0.49,0,0.87,0.11,1.13,0.33c0.24,0.2,0.36,0.45,0.36,0.74
			c0,0.26-0.09,0.49-0.28,0.67h1.03c0.11-0.01,0.17-0.07,0.17-0.17V80.6h0.23c0,0.24,0.05,0.52,0.16,0.83h-3.71
			c-0.19,0-0.29,0.06-0.31,0.18v0.16H11.14z M11.59,80.84c0.02,0.03,0.06,0.06,0.11,0.09h1.7c0.1-0.06,0.16-0.1,0.19-0.14
			c0.11-0.12,0.16-0.26,0.16-0.43c0-0.42-0.4-0.62-1.2-0.62c-0.42,0-0.73,0.07-0.93,0.22c-0.15,0.11-0.23,0.25-0.24,0.41
			C11.39,80.55,11.46,80.7,11.59,80.84L11.59,80.84z"/>
		<path class="st0" d="M11.14,87.04v-1.66h0.23v0.23c0,0.22,0.06,0.33,0.19,0.33h3.11c0.06-0.01,0.09-0.05,0.09-0.12v-0.41h0.23
			c0.01,0.23,0.05,0.42,0.11,0.55c0.05,0.09,0.14,0.19,0.27,0.31v0.24h-3.8c-0.13,0-0.19,0.11-0.19,0.32v0.22H11.14z"/>
		<path class="st0" d="M12.18,90.25l-1.04-0.13v-2.08c0.38,0.07,0.76,0.21,1.13,0.41c0.23,0.12,0.59,0.38,1.1,0.77
			c0.15,0.12,0.34,0.22,0.57,0.29c0.2,0.07,0.37,0.11,0.5,0.12c0.22-0.01,0.38-0.06,0.49-0.15c0.13-0.11,0.2-0.25,0.2-0.43
			c0-0.18-0.05-0.33-0.16-0.45c-0.11-0.12-0.24-0.18-0.39-0.18c-0.08,0-0.15,0.03-0.19,0.1c-0.05,0.15-0.15,0.23-0.31,0.26
			c-0.03-0.01-0.08-0.04-0.14-0.1c-0.06-0.06-0.1-0.14-0.11-0.23c0-0.12,0.05-0.22,0.15-0.29c0.1-0.08,0.23-0.11,0.41-0.11
			c0.15,0,0.32,0.05,0.49,0.16c0.18,0.11,0.31,0.23,0.39,0.38c0.1,0.18,0.15,0.37,0.15,0.59c0,0.16-0.03,0.33-0.09,0.49
			c-0.08,0.15-0.2,0.29-0.38,0.41c-0.19,0.12-0.39,0.18-0.61,0.18c-0.19,0-0.39-0.05-0.58-0.15c-0.2-0.1-0.51-0.35-0.95-0.77
			c-0.4-0.38-0.8-0.65-1.2-0.81v1.18c0,0.08,0.04,0.14,0.12,0.19c0.07,0.04,0.2,0.08,0.4,0.12l0.04,0.01V90.25z"/>
	</g>
</g>
<g>
	<g>
		<path class="st0" d="M13.1,120.57c-0.18,0.15-0.42,0.23-0.73,0.23c-0.23,0-0.45-0.05-0.68-0.16c-0.22-0.11-0.39-0.24-0.49-0.4
			c-0.08-0.17-0.12-0.35-0.12-0.54c0-0.18,0.03-0.35,0.1-0.52c0.08-0.19,0.21-0.34,0.39-0.45c0.14-0.09,0.31-0.14,0.49-0.14
			c0.15,0,0.27,0.04,0.36,0.11c0.07,0.06,0.11,0.13,0.11,0.23c0,0.09-0.03,0.17-0.08,0.23c-0.07,0.06-0.13,0.09-0.19,0.1
			c-0.08-0.01-0.16-0.05-0.24-0.14c-0.08-0.08-0.15-0.12-0.2-0.12c-0.12,0-0.23,0.06-0.32,0.19c-0.08,0.11-0.13,0.23-0.13,0.35
			c0.01,0.21,0.1,0.37,0.26,0.47c0.2,0.13,0.44,0.19,0.72,0.19c0.32,0,0.55-0.05,0.68-0.15c0.13-0.09,0.2-0.25,0.2-0.48v-0.2h0.31
			v0.2c0,0.16,0.08,0.3,0.23,0.41c0.14,0.1,0.36,0.15,0.66,0.15c0.2,0,0.37-0.05,0.51-0.15c0.12-0.09,0.18-0.22,0.18-0.41
			c0-0.12-0.03-0.23-0.09-0.34c-0.07-0.12-0.16-0.19-0.28-0.19c-0.08,0-0.14,0.04-0.18,0.11c-0.07,0.1-0.15,0.16-0.24,0.17
			c-0.06-0.01-0.12-0.05-0.17-0.11c-0.05-0.04-0.07-0.11-0.07-0.22c0-0.11,0.04-0.19,0.11-0.23c0.08-0.06,0.18-0.09,0.29-0.09
			c0.17,0,0.32,0.04,0.48,0.13c0.15,0.09,0.26,0.2,0.34,0.35c0.08,0.14,0.11,0.32,0.11,0.54c0,0.22-0.05,0.41-0.14,0.58
			c-0.19,0.29-0.48,0.43-0.87,0.43c-0.28,0-0.52-0.08-0.72-0.25c-0.18-0.14-0.28-0.32-0.31-0.52
			C13.36,120.22,13.27,120.43,13.1,120.57L13.1,120.57z"/>
		<path class="st0" d="M14.05,123.7c-0.06,0.1-0.14,0.15-0.24,0.15c-0.1,0-0.17-0.03-0.22-0.1c-0.05-0.07-0.07-0.13-0.07-0.2
			c0.01-0.05,0.04-0.11,0.11-0.18c0.07-0.1,0.11-0.19,0.11-0.26c0-0.15-0.1-0.3-0.29-0.44c-0.14-0.1-0.3-0.19-0.5-0.25h-1.37
			c-0.15,0-0.22,0.07-0.22,0.22v0.43h-0.2v-1.68h0.2v0.26c0,0.17,0.07,0.26,0.22,0.26h1.83c0.18-0.02,0.27-0.11,0.27-0.27v-0.24
			h0.22c0,0.36,0.08,0.7,0.24,1.01h-0.61c0.11,0.08,0.23,0.18,0.34,0.32c0.18,0.22,0.27,0.44,0.27,0.65
			C14.13,123.51,14.1,123.61,14.05,123.7L14.05,123.7z"/>
		<path class="st0" d="M11.14,126.81v-0.85h0.22c-0.03-0.02-0.05-0.04-0.07-0.07c-0.12-0.18-0.19-0.39-0.19-0.62
			c-0.01-0.29,0.11-0.53,0.34-0.73c0.27-0.22,0.65-0.33,1.13-0.33c0.49,0,0.87,0.11,1.13,0.33c0.24,0.2,0.36,0.45,0.36,0.74
			c0,0.26-0.09,0.49-0.28,0.67h1.03c0.11-0.01,0.17-0.07,0.17-0.17v-0.15h0.23c0,0.24,0.05,0.52,0.16,0.83h-3.71
			c-0.19,0-0.29,0.06-0.31,0.18v0.16H11.14z M11.59,125.87c0.02,0.03,0.06,0.06,0.11,0.09h1.7c0.1-0.06,0.16-0.1,0.19-0.14
			c0.11-0.12,0.16-0.26,0.16-0.43c0-0.42-0.4-0.62-1.2-0.62c-0.42,0-0.73,0.07-0.93,0.22c-0.15,0.11-0.23,0.25-0.24,0.41
			C11.39,125.58,11.46,125.73,11.59,125.87L11.59,125.87z"/>
		<path class="st0" d="M11.14,132.08v-1.66h0.23v0.23c0,0.22,0.06,0.33,0.19,0.33h3.11c0.06-0.01,0.09-0.05,0.09-0.12v-0.41h0.23
			c0.01,0.23,0.05,0.42,0.11,0.55c0.05,0.09,0.14,0.19,0.27,0.31v0.24h-3.8c-0.13,0-0.19,0.11-0.19,0.32v0.22H11.14z"/>
		<path class="st0" d="M12.18,135.28l-1.04-0.13v-2.08c0.38,0.07,0.76,0.21,1.13,0.41c0.23,0.12,0.59,0.38,1.1,0.77
			c0.15,0.12,0.34,0.22,0.57,0.29c0.2,0.07,0.37,0.11,0.5,0.12c0.22-0.01,0.38-0.06,0.49-0.15c0.13-0.11,0.2-0.25,0.2-0.43
			s-0.05-0.33-0.16-0.45c-0.11-0.12-0.24-0.18-0.39-0.18c-0.08,0-0.15,0.03-0.19,0.1c-0.05,0.15-0.15,0.23-0.31,0.26
			c-0.03-0.01-0.08-0.04-0.14-0.1c-0.06-0.06-0.1-0.14-0.11-0.23c0-0.12,0.05-0.22,0.15-0.29c0.1-0.08,0.23-0.11,0.41-0.11
			c0.15,0,0.32,0.05,0.49,0.16c0.18,0.11,0.31,0.23,0.39,0.38c0.1,0.18,0.15,0.37,0.15,0.59c0,0.16-0.03,0.33-0.09,0.49
			c-0.08,0.15-0.2,0.29-0.38,0.41c-0.19,0.12-0.39,0.18-0.61,0.18c-0.19,0-0.39-0.05-0.58-0.15c-0.2-0.1-0.51-0.35-0.95-0.77
			c-0.4-0.38-0.8-0.65-1.2-0.81v1.18c0,0.08,0.04,0.14,0.12,0.19c0.07,0.04,0.2,0.08,0.4,0.12l0.04,0.01V135.28z"/>
	</g>
</g>
<g>
	<g>
		<path class="st0" d="M23.13,154.68L23,155.73h-2.08c0.07-0.38,0.21-0.76,0.41-1.13c0.12-0.23,0.38-0.59,0.77-1.1
			c0.12-0.15,0.22-0.34,0.29-0.57c0.07-0.2,0.11-0.37,0.12-0.5c-0.01-0.22-0.06-0.38-0.15-0.49c-0.11-0.13-0.25-0.2-0.43-0.2
			s-0.33,0.05-0.45,0.16c-0.12,0.11-0.18,0.24-0.18,0.39c0,0.08,0.03,0.15,0.1,0.19c0.15,0.05,0.23,0.16,0.26,0.31
			c-0.01,0.03-0.04,0.08-0.1,0.14c-0.06,0.06-0.14,0.1-0.23,0.11c-0.12,0-0.22-0.05-0.29-0.15c-0.08-0.1-0.11-0.23-0.11-0.41
			c0-0.15,0.05-0.32,0.16-0.49c0.11-0.18,0.23-0.31,0.38-0.39c0.18-0.1,0.37-0.15,0.59-0.15c0.16,0,0.33,0.03,0.49,0.09
			c0.15,0.08,0.29,0.2,0.41,0.38c0.12,0.19,0.18,0.39,0.18,0.61c0,0.19-0.05,0.39-0.15,0.58c-0.1,0.2-0.35,0.51-0.77,0.95
			c-0.38,0.4-0.65,0.8-0.81,1.2h1.18c0.08,0,0.14-0.04,0.19-0.12c0.04-0.07,0.08-0.2,0.12-0.4l0.01-0.04H23.13z"/>
		<path class="st0" d="M26.11,155.23c-0.2,0.37-0.5,0.55-0.88,0.54c-0.19-0.01-0.36-0.07-0.49-0.18c-0.13-0.11-0.19-0.28-0.19-0.52
			v-1.93h-0.67v-0.19c0.4,0,0.66-0.08,0.78-0.23c0.11-0.15,0.17-0.44,0.17-0.86h0.28v1.09h0.94v0.19h-0.94v1.93
			c0,0.12,0.02,0.21,0.07,0.27c0.06,0.07,0.13,0.11,0.22,0.12c0.18-0.01,0.36-0.12,0.55-0.33L26.11,155.23z"/>
		<path class="st0" d="M28.78,153.09c0.25,0.26,0.38,0.65,0.38,1.18c0,0.51-0.13,0.9-0.4,1.18c-0.25,0.21-0.55,0.31-0.92,0.31
			c-0.45,0-0.79-0.13-1.02-0.4c-0.2-0.23-0.29-0.59-0.29-1.09c0-0.51,0.13-0.9,0.38-1.16c0.25-0.26,0.57-0.39,0.94-0.39
			C28.23,152.73,28.54,152.85,28.78,153.09L28.78,153.09z M28.34,155.3c0.16-0.21,0.24-0.55,0.24-1.03c0-0.46-0.06-0.79-0.19-0.99
			c-0.14-0.22-0.33-0.33-0.55-0.33c-0.2,0-0.36,0.08-0.49,0.24c-0.16,0.2-0.24,0.56-0.24,1.08c0,0.41,0.06,0.73,0.18,0.95
			c0.11,0.22,0.29,0.33,0.54,0.33C28.02,155.55,28.19,155.47,28.34,155.3L28.34,155.3z"/>
		<path class="st0" d="M31.54,155.73h-1.66v-0.23h0.23c0.22,0,0.33-0.06,0.33-0.19v-3.11c-0.01-0.06-0.05-0.09-0.12-0.09H29.9v-0.23
			c0.23-0.01,0.42-0.05,0.55-0.11c0.09-0.05,0.19-0.14,0.31-0.27H31v3.8c0,0.13,0.11,0.19,0.32,0.19h0.22V155.73z"/>
	</g>
</g>
<g>
	<g>
		<path class="st0" d="M41.25,154.68l-0.13,1.04h-2.08c0.07-0.38,0.21-0.76,0.41-1.13c0.12-0.23,0.38-0.59,0.77-1.1
			c0.12-0.15,0.22-0.34,0.29-0.57c0.07-0.2,0.11-0.37,0.12-0.5c-0.01-0.22-0.06-0.38-0.15-0.49c-0.11-0.13-0.25-0.2-0.43-0.2
			c-0.18,0-0.33,0.05-0.45,0.16c-0.12,0.11-0.18,0.24-0.18,0.39c0,0.08,0.03,0.15,0.1,0.19c0.15,0.05,0.23,0.16,0.26,0.31
			c-0.01,0.03-0.04,0.08-0.1,0.14c-0.06,0.06-0.14,0.1-0.23,0.11c-0.12,0-0.22-0.05-0.29-0.15c-0.08-0.1-0.11-0.23-0.11-0.41
			c0-0.15,0.05-0.32,0.16-0.49c0.11-0.18,0.23-0.31,0.38-0.39c0.18-0.1,0.37-0.15,0.59-0.15c0.16,0,0.33,0.03,0.49,0.09
			c0.15,0.08,0.29,0.2,0.41,0.38c0.12,0.19,0.18,0.39,0.18,0.61c0,0.19-0.05,0.39-0.15,0.58c-0.1,0.2-0.35,0.51-0.77,0.95
			c-0.38,0.4-0.65,0.8-0.81,1.2h1.18c0.08,0,0.14-0.04,0.19-0.12c0.04-0.07,0.08-0.2,0.12-0.4l0.01-0.04H41.25z"/>
		<path class="st0" d="M44.23,155.23c-0.2,0.37-0.5,0.55-0.88,0.54c-0.19-0.01-0.36-0.07-0.49-0.18c-0.13-0.11-0.19-0.28-0.19-0.52
			v-1.93h-0.67v-0.19c0.4,0,0.66-0.08,0.78-0.23c0.11-0.15,0.17-0.44,0.17-0.86h0.28v1.09h0.94v0.19h-0.94v1.93
			c0,0.12,0.02,0.21,0.07,0.27c0.06,0.07,0.13,0.11,0.22,0.12c0.18-0.01,0.36-0.12,0.55-0.33L44.23,155.23z"/>
		<path class="st0" d="M46.9,153.09c0.25,0.26,0.38,0.65,0.38,1.18c0,0.51-0.13,0.9-0.4,1.18c-0.25,0.21-0.55,0.31-0.92,0.31
			c-0.45,0-0.79-0.13-1.02-0.4c-0.2-0.23-0.29-0.59-0.29-1.09c0-0.51,0.13-0.9,0.38-1.16c0.25-0.26,0.56-0.39,0.94-0.39
			C46.34,152.73,46.66,152.85,46.9,153.09L46.9,153.09z M46.46,155.3c0.16-0.21,0.24-0.55,0.24-1.03c0-0.46-0.06-0.79-0.19-0.99
			c-0.14-0.22-0.33-0.33-0.55-0.33c-0.2,0-0.36,0.08-0.49,0.24c-0.16,0.2-0.24,0.56-0.24,1.08c0,0.41,0.06,0.73,0.18,0.95
			c0.11,0.22,0.29,0.33,0.54,0.33C46.14,155.55,46.3,155.47,46.46,155.3L46.46,155.3z"/>
		<path class="st0" d="M49.66,155.73H48v-0.23h0.23c0.22,0,0.33-0.06,0.33-0.19v-3.11c-0.01-0.06-0.05-0.09-0.12-0.09h-0.41v-0.23
			c0.23-0.01,0.42-0.05,0.55-0.11c0.09-0.05,0.19-0.14,0.31-0.27h0.24v3.8c0,0.13,0.11,0.19,0.32,0.19h0.22V155.73z"/>
	</g>
</g>
<g>
	<g>
		<path class="st0" d="M59.37,154.68l-0.13,1.04h-2.08c0.07-0.38,0.21-0.76,0.41-1.13c0.12-0.23,0.38-0.59,0.77-1.1
			c0.12-0.15,0.22-0.34,0.29-0.57c0.07-0.2,0.11-0.37,0.12-0.5c-0.01-0.22-0.06-0.38-0.15-0.49c-0.11-0.13-0.25-0.2-0.43-0.2
			c-0.18,0-0.33,0.05-0.45,0.16c-0.12,0.11-0.18,0.24-0.18,0.39c0,0.08,0.03,0.15,0.1,0.19c0.15,0.05,0.23,0.16,0.26,0.31
			c-0.01,0.03-0.04,0.08-0.1,0.14c-0.06,0.06-0.14,0.1-0.23,0.11c-0.12,0-0.22-0.05-0.29-0.15c-0.08-0.1-0.11-0.23-0.11-0.41
			c0-0.15,0.05-0.32,0.16-0.49c0.11-0.18,0.23-0.31,0.38-0.39c0.18-0.1,0.37-0.15,0.59-0.15c0.16,0,0.33,0.03,0.49,0.09
			c0.15,0.08,0.29,0.2,0.41,0.38c0.12,0.19,0.18,0.39,0.18,0.61c0,0.19-0.05,0.39-0.15,0.58c-0.1,0.2-0.35,0.51-0.77,0.95
			c-0.38,0.4-0.65,0.8-0.81,1.2h1.18c0.08,0,0.14-0.04,0.19-0.12c0.04-0.07,0.08-0.2,0.12-0.4l0.01-0.04H59.37z"/>
		<path class="st0" d="M62.35,155.23c-0.2,0.37-0.5,0.55-0.88,0.54c-0.19-0.01-0.36-0.07-0.49-0.18c-0.13-0.11-0.19-0.28-0.19-0.52
			v-1.93h-0.67v-0.19c0.4,0,0.66-0.08,0.78-0.23c0.11-0.15,0.17-0.44,0.17-0.86h0.28v1.09h0.94v0.19h-0.94v1.93
			c0,0.12,0.02,0.21,0.07,0.27c0.06,0.07,0.13,0.11,0.22,0.12c0.18-0.01,0.36-0.12,0.55-0.33L62.35,155.23z"/>
		<path class="st0" d="M65.02,153.09c0.25,0.26,0.38,0.65,0.38,1.18c0,0.51-0.13,0.9-0.4,1.18c-0.25,0.21-0.55,0.31-0.92,0.31
			c-0.45,0-0.79-0.13-1.02-0.4c-0.2-0.23-0.29-0.59-0.29-1.09c0-0.51,0.13-0.9,0.38-1.16c0.25-0.26,0.57-0.39,0.94-0.39
			C64.46,152.73,64.78,152.85,65.02,153.09L65.02,153.09z M64.58,155.3c0.16-0.21,0.24-0.55,0.24-1.03c0-0.46-0.06-0.79-0.19-0.99
			c-0.14-0.22-0.33-0.33-0.55-0.33c-0.2,0-0.36,0.08-0.49,0.24c-0.16,0.2-0.24,0.56-0.24,1.08c0,0.41,0.06,0.73,0.18,0.95
			c0.11,0.22,0.29,0.33,0.54,0.33C64.26,155.55,64.42,155.47,64.58,155.3L64.58,155.3z"/>
		<path class="st0" d="M67.78,155.73h-1.66v-0.23h0.23c0.22,0,0.33-0.06,0.33-0.19v-3.11c-0.01-0.06-0.05-0.09-0.12-0.09h-0.41
			v-0.23c0.23-0.01,0.42-0.05,0.55-0.11c0.09-0.05,0.19-0.14,0.31-0.27h0.24v3.8c0,0.13,0.11,0.19,0.32,0.19h0.22V155.73z"/>
	</g>
</g>
<rect x="17.35" y="14.37" class="st1" width="18.12" height="11.26"/>
<g>
	<g>
		<path class="st0" d="M27.81,23.54h-3.02v-0.41h0.41c0.4,0,0.6-0.12,0.6-0.35v-5.65c-0.01-0.11-0.09-0.16-0.22-0.16h-0.75v-0.41
			c0.43-0.02,0.76-0.09,1-0.2c0.16-0.08,0.35-0.25,0.56-0.49h0.44v6.92c0,0.23,0.2,0.35,0.59,0.35h0.39V23.54z"/>
	</g>
</g>
<rect x="35.47" y="14.37" class="st2" width="18.12" height="11.26"/>
<g>
	<g>
		<path class="st0" d="M46.48,21.64l-0.24,1.9h-3.78c0.13-0.69,0.38-1.38,0.74-2.05c0.23-0.41,0.69-1.08,1.4-2
			c0.21-0.27,0.39-0.62,0.54-1.04c0.13-0.36,0.21-0.67,0.23-0.92c-0.02-0.39-0.11-0.69-0.28-0.9c-0.19-0.24-0.45-0.36-0.78-0.36
			s-0.6,0.1-0.81,0.3c-0.22,0.21-0.33,0.44-0.33,0.7c0,0.15,0.06,0.26,0.19,0.34c0.27,0.1,0.42,0.28,0.46,0.56
			c-0.01,0.06-0.08,0.14-0.19,0.26c-0.11,0.12-0.25,0.19-0.42,0.21c-0.23,0-0.41-0.09-0.54-0.28c-0.14-0.18-0.21-0.43-0.21-0.74
			c0-0.27,0.1-0.57,0.3-0.9c0.19-0.33,0.42-0.56,0.69-0.7c0.32-0.18,0.68-0.27,1.07-0.27c0.3,0,0.59,0.05,0.9,0.15
			c0.28,0.14,0.53,0.37,0.74,0.69c0.23,0.34,0.33,0.71,0.32,1.1c-0.01,0.35-0.1,0.7-0.28,1.06c-0.18,0.36-0.64,0.93-1.39,1.72
			c-0.69,0.72-1.19,1.45-1.47,2.19h2.14c0.14,0,0.25-0.07,0.34-0.22c0.07-0.12,0.14-0.37,0.23-0.73l0.01-0.07H46.48z"/>
	</g>
</g>
<g>
	<g>
		<path class="st0" d="M46.16,5.17c0.16,0.8,0.25,1.54,0.25,2.23c0,0.76-0.08,1.48-0.25,2.16c-0.16,0.65-0.38,1.1-0.66,1.36
			c-0.28,0.27-0.6,0.4-0.98,0.4c-0.81,0-1.36-0.59-1.65-1.76c-0.16-0.69-0.25-1.41-0.25-2.16c0-0.76,0.08-1.5,0.25-2.23
			c0.14-0.61,0.36-1.06,0.65-1.34c0.29-0.28,0.62-0.42,1-0.42c0.6,0,1.05,0.32,1.37,0.95C46,4.58,46.08,4.85,46.16,5.17L46.16,5.17z
			 M45.05,10.03c0.14-0.74,0.21-1.62,0.21-2.64c0-1.05-0.07-1.95-0.21-2.7c-0.09-0.51-0.26-0.76-0.53-0.76
			c-0.29,0-0.48,0.25-0.57,0.76c-0.12,0.63-0.18,1.53-0.18,2.7c0,1.13,0.06,2.01,0.18,2.64c0.09,0.52,0.28,0.77,0.57,0.77
			C44.78,10.8,44.96,10.55,45.05,10.03L45.05,10.03z"/>
	</g>
</g>
<rect x="53.59" y="14.37" class="st1" width="18.12" height="11.26"/>
<polygon class="st3" points="71.71,14.37 17.35,14.37 17.35,3.11 44.53,0.47 71.71,3.11 "/>
<g>
	<g>
		<path class="st0" d="M64.24,19.96c0.27,0.32,0.41,0.77,0.41,1.33c0,0.41-0.1,0.82-0.3,1.24c-0.19,0.41-0.44,0.7-0.73,0.9
			c-0.32,0.15-0.64,0.23-0.98,0.23c-0.32,0-0.64-0.06-0.95-0.19c-0.34-0.14-0.61-0.38-0.82-0.71c-0.16-0.26-0.25-0.56-0.25-0.9
			c0-0.27,0.07-0.49,0.21-0.66c0.1-0.13,0.24-0.2,0.41-0.2c0.16,0,0.3,0.05,0.41,0.14c0.11,0.12,0.17,0.24,0.18,0.35
			c-0.01,0.14-0.1,0.29-0.25,0.43c-0.15,0.14-0.23,0.26-0.23,0.36c0,0.22,0.11,0.42,0.34,0.59c0.21,0.15,0.42,0.23,0.64,0.24
			c0.38-0.02,0.67-0.18,0.86-0.47c0.23-0.36,0.35-0.8,0.34-1.31c-0.01-0.58-0.1-1-0.28-1.24c-0.17-0.24-0.45-0.36-0.87-0.36h-0.36
			v-0.56h0.36c0.3,0,0.54-0.14,0.74-0.41c0.18-0.25,0.27-0.65,0.28-1.21c0.01-0.36-0.08-0.67-0.27-0.93
			c-0.16-0.22-0.41-0.33-0.74-0.33c-0.21,0-0.42,0.05-0.62,0.16c-0.23,0.13-0.34,0.3-0.34,0.51c0,0.14,0.07,0.25,0.21,0.33
			c0.19,0.12,0.29,0.27,0.31,0.43c-0.02,0.11-0.09,0.21-0.2,0.31c-0.08,0.08-0.21,0.12-0.39,0.12c-0.2,0-0.34-0.07-0.41-0.21
			c-0.11-0.14-0.16-0.32-0.16-0.54c0-0.3,0.08-0.59,0.24-0.87c0.16-0.27,0.37-0.48,0.63-0.62c0.25-0.14,0.58-0.21,0.99-0.21
			c0.4,0,0.75,0.08,1.06,0.25c0.52,0.34,0.78,0.87,0.78,1.58c0,0.5-0.15,0.94-0.45,1.31c-0.26,0.32-0.58,0.51-0.95,0.56
			C63.6,19.49,63.98,19.67,64.24,19.96L64.24,19.96z"/>
	</g>
</g>
<rect x="17.35" y="25.63" class="st2" width="18.12" height="11.26"/>
<g>
	<g>
		<path class="st0" d="M28.61,33.17h-0.92v0.97c0,0.16,0.09,0.25,0.28,0.27h0.45v0.39h-2.69v-0.39h0.61
			c0.21-0.02,0.31-0.11,0.31-0.27v-0.97h-2.44v-0.43l2.93-5.61h0.56v5.65h0.92V33.17z M26.65,32.78v-3.77l-1.93,3.77H26.65z"/>
	</g>
</g>
<rect x="35.47" y="25.63" class="st1" width="18.12" height="11.26"/>
<g>
	<g>
		<path class="st0" d="M46.24,30.86c0.13,0.4,0.2,0.82,0.2,1.26c0,0.6-0.09,1.12-0.28,1.57c-0.19,0.44-0.44,0.77-0.74,0.99
			c-0.31,0.16-0.64,0.24-0.98,0.24c-0.52,0-0.95-0.12-1.31-0.35c-0.39-0.27-0.64-0.64-0.73-1.12c0-0.23,0.05-0.43,0.14-0.59
			c0.12-0.19,0.3-0.29,0.52-0.29c0.12,0,0.26,0.05,0.4,0.14c0.08,0.08,0.13,0.19,0.15,0.32c-0.01,0.12-0.08,0.27-0.2,0.46
			c-0.1,0.19-0.15,0.32-0.15,0.39c0,0.11,0.09,0.22,0.27,0.33c0.21,0.1,0.42,0.15,0.63,0.15c0.36,0.01,0.63-0.18,0.82-0.58
			c0.21-0.43,0.31-0.97,0.3-1.62c-0.01-0.63-0.09-1.1-0.26-1.42c-0.16-0.32-0.4-0.48-0.73-0.48c-0.22,0-0.43,0.1-0.64,0.3
			c-0.19,0.18-0.31,0.39-0.38,0.63h-0.53l0.04-4.07h3.24l-0.15,0.86h-2.6v2.43c0.33-0.47,0.76-0.7,1.28-0.7
			c0.32,0,0.64,0.08,0.95,0.25C45.8,30.18,46.05,30.48,46.24,30.86L46.24,30.86z"/>
	</g>
</g>
<rect x="53.59" y="25.63" class="st2" width="18.12" height="11.26"/>
<g>
	<g>
		<path class="st0" d="M64.4,30.91c0.13,0.34,0.2,0.72,0.2,1.13c0,0.65-0.08,1.22-0.24,1.72c-0.15,0.35-0.41,0.65-0.78,0.91
			c-0.23,0.16-0.49,0.24-0.78,0.24c-0.51,0-0.92-0.15-1.23-0.44c-0.28-0.27-0.5-0.71-0.66-1.34c-0.14-0.57-0.21-1.28-0.21-2.14
			c0-0.87,0.08-1.66,0.25-2.35c0.12-0.45,0.31-0.82,0.59-1.11c0.33-0.35,0.71-0.53,1.13-0.53c0.45,0,0.82,0.14,1.11,0.41
			c0.35,0.32,0.53,0.69,0.53,1.11c0,0.16-0.04,0.31-0.13,0.45c-0.1,0.13-0.23,0.2-0.39,0.2c-0.36,0-0.55-0.18-0.55-0.54
			c0-0.14,0.04-0.29,0.13-0.44c0.05-0.1,0.1-0.2,0.12-0.28c-0.02-0.11-0.09-0.2-0.21-0.26c-0.17-0.07-0.34-0.1-0.52-0.1
			c-0.24,0-0.44,0.09-0.6,0.28c-0.16,0.19-0.26,0.5-0.32,0.95c-0.08,0.65-0.12,1.19-0.12,1.62c0.1-0.08,0.18-0.14,0.24-0.19
			c0.34-0.22,0.67-0.33,1-0.33C63.57,29.88,64.05,30.23,64.4,30.91L64.4,30.91z M63.35,33.51c0.09-0.47,0.13-0.89,0.13-1.26l0,0
			c0-0.43-0.04-0.79-0.13-1.09c-0.16-0.51-0.39-0.76-0.7-0.76c-0.28,0-0.57,0.15-0.88,0.46l-0.04,0.04c0,0.79,0.03,1.46,0.09,2
			c0.05,0.47,0.17,0.86,0.35,1.16c0.12,0.21,0.27,0.32,0.46,0.33c0.14,0.01,0.27-0.05,0.39-0.19
			C63.18,34.06,63.28,33.83,63.35,33.51L63.35,33.51z"/>
	</g>
</g>
<rect x="17.35" y="36.88" class="st1" width="18.12" height="11.26"/>
<g>
	<g>
		<path class="st0" d="M28.58,39.08c-0.59,0.94-1.01,1.84-1.25,2.7c-0.25,0.89-0.37,1.77-0.37,2.66v1.02c0,0.23-0.06,0.41-0.19,0.56
			c-0.08,0.09-0.21,0.14-0.37,0.15c-0.21-0.02-0.36-0.1-0.46-0.23c-0.07-0.14-0.1-0.37-0.1-0.7c0-0.93,0.19-1.93,0.56-3
			c0.33-0.94,0.8-1.92,1.41-2.94c-0.01-0.03-0.07-0.05-0.18-0.05h-2.1c-0.14,0-0.24,0.03-0.32,0.1c-0.08,0.11-0.18,0.49-0.28,1.15
			h-0.42l0.08-2.13h3.99V39.08z"/>
	</g>
</g>
<rect x="35.47" y="36.88" class="st2" width="18.12" height="11.26"/>
<g>
	<g>
		<path class="st0" d="M46.28,43c0.16,0.28,0.25,0.64,0.25,1.07c0,0.6-0.2,1.11-0.59,1.5c-0.38,0.4-0.86,0.6-1.42,0.6
			c-0.67,0-1.21-0.22-1.62-0.66c-0.35-0.38-0.53-0.85-0.53-1.4c0-0.48,0.13-0.91,0.4-1.3c0.22-0.32,0.53-0.58,0.92-0.8
			c-0.48-0.35-0.77-0.64-0.88-0.86c-0.16-0.26-0.24-0.61-0.24-1.05c0-0.47,0.17-0.89,0.51-1.27c0.34-0.38,0.79-0.58,1.35-0.58
			c0.49,0,0.9,0.14,1.23,0.43c0.43,0.39,0.63,0.86,0.62,1.41c-0.01,0.37-0.11,0.73-0.32,1.07c-0.14,0.25-0.42,0.49-0.82,0.7
			C45.71,42.29,46.09,42.67,46.28,43L46.28,43z M45.17,45.28c0.23-0.32,0.34-0.68,0.33-1.08c-0.01-0.21-0.09-0.48-0.26-0.79
			c-0.17-0.31-0.53-0.66-1.06-1.04c-0.48,0.38-0.72,0.97-0.72,1.74c0,0.51,0.1,0.91,0.29,1.2c0.16,0.24,0.4,0.36,0.69,0.37
			C44.76,45.65,45.01,45.52,45.17,45.28L45.17,45.28z M44.66,41.52c0.41-0.33,0.63-0.8,0.64-1.42c0.01-0.45-0.09-0.81-0.29-1.08
			c-0.13-0.18-0.31-0.27-0.54-0.27c-0.29,0-0.52,0.13-0.68,0.38c-0.16,0.25-0.24,0.57-0.24,0.97
			C43.55,40.51,43.92,40.98,44.66,41.52L44.66,41.52z"/>
	</g>
</g>
<rect x="53.59" y="36.88" class="st1" width="18.12" height="11.26"/>
<g>
	<g>
		<path class="st0" d="M64.32,39.98c0.14,0.62,0.21,1.39,0.21,2.31c0,0.79-0.06,1.45-0.16,1.97c-0.13,0.58-0.35,1.05-0.66,1.43
			c-0.34,0.32-0.75,0.48-1.23,0.48c-0.39,0-0.76-0.13-1.11-0.4c-0.3-0.3-0.45-0.64-0.45-1.03c0-0.18,0.05-0.35,0.14-0.51
			c0.1-0.16,0.23-0.24,0.39-0.24c0.19,0,0.33,0.04,0.42,0.13c0.12,0.1,0.19,0.25,0.2,0.43c-0.02,0.14-0.08,0.27-0.19,0.39
			c-0.1,0.1-0.14,0.2-0.14,0.28c0,0.14,0.06,0.25,0.19,0.33c0.13,0.07,0.27,0.1,0.43,0.09c0.49-0.01,0.8-0.36,0.93-1.05
			c0.1-0.52,0.17-1.13,0.2-1.85c-0.03,0.03-0.07,0.07-0.13,0.11c-0.37,0.26-0.74,0.38-1.11,0.37c-0.26-0.01-0.55-0.12-0.87-0.33
			c-0.23-0.15-0.41-0.37-0.54-0.67c-0.11-0.35-0.16-0.74-0.16-1.18c0-0.61,0.05-1.09,0.16-1.42c0.14-0.43,0.37-0.78,0.69-1.06
			c0.3-0.22,0.65-0.33,1.04-0.33c0.34,0,0.66,0.11,0.98,0.33C63.92,38.93,64.18,39.39,64.32,39.98L64.32,39.98z M62.53,42.72
			c0.32,0,0.64-0.17,0.96-0.5c-0.02-0.98-0.07-1.75-0.15-2.29c-0.07-0.39-0.18-0.7-0.33-0.94c-0.13-0.15-0.28-0.23-0.44-0.23
			c-0.19,0-0.34,0.07-0.45,0.21c-0.16,0.19-0.26,0.39-0.32,0.62c-0.08,0.36-0.12,0.77-0.12,1.21c0,0.52,0.04,0.93,0.12,1.22
			C61.93,42.48,62.18,42.72,62.53,42.72L62.53,42.72z"/>
	</g>
</g>
<rect x="17.35" y="48.14" class="st2" width="18.12" height="11.26"/>
<g>
	<g>
		<path class="st0" d="M25.18,57.32h-3.02v-0.41h0.41c0.4,0,0.6-0.12,0.6-0.35v-5.65c-0.01-0.11-0.09-0.16-0.22-0.16H22.2v-0.41
			c0.43-0.02,0.76-0.09,1-0.2c0.16-0.08,0.35-0.25,0.56-0.49h0.44v6.92c0,0.23,0.2,0.35,0.59,0.35h0.39V57.32z"/>
		<path class="st0" d="M30.68,51.28c0.16,0.8,0.25,1.54,0.25,2.23c0,0.76-0.08,1.48-0.25,2.16c-0.16,0.65-0.38,1.1-0.66,1.36
			c-0.27,0.27-0.6,0.4-0.98,0.4c-0.81,0-1.36-0.59-1.65-1.76c-0.16-0.69-0.25-1.41-0.25-2.16c0-0.76,0.08-1.5,0.25-2.23
			c0.14-0.61,0.36-1.06,0.65-1.34c0.29-0.28,0.62-0.42,1-0.42c0.6,0,1.05,0.32,1.37,0.95C30.52,50.69,30.6,50.96,30.68,51.28
			L30.68,51.28z M29.57,56.14c0.14-0.74,0.21-1.62,0.21-2.64c0-1.05-0.07-1.95-0.21-2.7c-0.09-0.51-0.26-0.76-0.53-0.76
			c-0.29,0-0.48,0.25-0.57,0.76c-0.12,0.63-0.18,1.53-0.18,2.7c0,1.13,0.06,2.01,0.18,2.64c0.09,0.52,0.28,0.77,0.57,0.77
			C29.3,56.92,29.48,56.66,29.57,56.14L29.57,56.14z"/>
	</g>
</g>
<rect x="35.47" y="48.14" class="st2" width="18.12" height="11.26"/>
<g>
	<g>
		<path class="st0" d="M43.3,57.32h-3.02v-0.41h0.41c0.4,0,0.6-0.12,0.6-0.35v-5.65c-0.01-0.11-0.09-0.16-0.22-0.16h-0.75v-0.41
			c0.43-0.02,0.76-0.09,1-0.2c0.16-0.08,0.35-0.25,0.56-0.49h0.44v6.92c0,0.23,0.2,0.35,0.59,0.35h0.39V57.32z"/>
		<path class="st0" d="M48.57,57.32h-3.02v-0.41h0.41c0.4,0,0.6-0.12,0.6-0.35v-5.65c-0.01-0.11-0.09-0.16-0.22-0.16h-0.75v-0.41
			c0.43-0.02,0.76-0.09,1-0.2c0.16-0.08,0.35-0.25,0.56-0.49h0.44v6.92c0,0.23,0.2,0.35,0.59,0.35h0.39V57.32z"/>
	</g>
</g>
<rect x="53.59" y="48.14" class="st1" width="18.12" height="11.26"/>
<g>
	<g>
		<path class="st0" d="M61.41,57.32h-3.02v-0.41h0.41c0.4,0,0.6-0.12,0.6-0.35v-5.65c-0.01-0.11-0.09-0.16-0.22-0.16h-0.75v-0.41
			c0.43-0.02,0.76-0.09,1-0.2c0.16-0.08,0.35-0.25,0.56-0.49h0.44v6.92c0,0.23,0.2,0.35,0.59,0.35h0.39V57.32z"/>
		<path class="st0" d="M67.24,55.42L67,57.32h-3.78c0.13-0.69,0.38-1.38,0.74-2.05c0.23-0.41,0.69-1.08,1.4-2
			c0.21-0.27,0.39-0.62,0.54-1.04c0.13-0.36,0.21-0.67,0.23-0.92c-0.02-0.39-0.11-0.69-0.28-0.9c-0.19-0.24-0.45-0.36-0.78-0.36
			c-0.33,0-0.6,0.1-0.81,0.3c-0.22,0.21-0.33,0.44-0.33,0.7c0,0.15,0.06,0.26,0.19,0.34c0.27,0.1,0.42,0.28,0.46,0.56
			c-0.01,0.06-0.08,0.14-0.19,0.26c-0.11,0.12-0.25,0.19-0.42,0.21c-0.23,0-0.41-0.09-0.54-0.28c-0.14-0.18-0.21-0.43-0.21-0.74
			c0-0.27,0.1-0.57,0.3-0.9c0.19-0.33,0.42-0.56,0.69-0.7c0.32-0.18,0.68-0.27,1.07-0.27c0.3,0,0.59,0.05,0.9,0.15
			c0.28,0.14,0.53,0.37,0.74,0.69c0.23,0.34,0.33,0.71,0.32,1.1c-0.01,0.35-0.1,0.7-0.28,1.06c-0.18,0.36-0.64,0.93-1.39,1.72
			c-0.69,0.72-1.19,1.45-1.47,2.19h2.14c0.14,0,0.25-0.07,0.34-0.22c0.07-0.12,0.14-0.37,0.23-0.73l0.01-0.07H67.24z"/>
	</g>
</g>
<rect x="17.35" y="70.66" class="st1" width="18.12" height="11.26"/>
<rect x="35.47" y="70.66" class="st2" width="18.12" height="11.26"/>
<rect x="53.59" y="70.66" class="st1" width="18.12" height="11.26"/>
<rect x="17.35" y="81.92" class="st2" width="18.12" height="11.26"/>
<g>
	<g>
		<path class="st0" d="M25.18,79.84h-3.02v-0.41h0.41c0.4,0,0.6-0.12,0.6-0.35v-5.65c-0.01-0.11-0.09-0.16-0.22-0.16H22.2v-0.41
			c0.43-0.02,0.76-0.09,1-0.2c0.16-0.08,0.35-0.25,0.56-0.49h0.44v6.92c0,0.23,0.2,0.35,0.59,0.35h0.39V79.84z"/>
		<path class="st0" d="M30.8,75.95c0.13,0.34,0.2,0.72,0.2,1.13c0,0.65-0.08,1.22-0.24,1.72c-0.15,0.35-0.41,0.65-0.78,0.91
			c-0.23,0.16-0.49,0.24-0.78,0.24c-0.51,0-0.92-0.15-1.23-0.44c-0.28-0.27-0.5-0.71-0.66-1.34c-0.14-0.57-0.21-1.28-0.21-2.14
			c0-0.87,0.08-1.66,0.25-2.35c0.12-0.45,0.31-0.82,0.59-1.11c0.33-0.35,0.71-0.53,1.13-0.53c0.45,0,0.82,0.14,1.11,0.41
			c0.35,0.32,0.53,0.69,0.53,1.11c0,0.16-0.04,0.31-0.13,0.45c-0.1,0.13-0.23,0.2-0.39,0.2c-0.36,0-0.55-0.18-0.55-0.54
			c0-0.14,0.04-0.29,0.13-0.44c0.05-0.1,0.1-0.2,0.12-0.28c-0.02-0.11-0.09-0.2-0.21-0.26c-0.17-0.07-0.34-0.1-0.52-0.1
			c-0.24,0-0.44,0.09-0.6,0.28c-0.16,0.19-0.26,0.5-0.32,0.95c-0.08,0.65-0.12,1.19-0.12,1.62c0.1-0.08,0.18-0.14,0.24-0.19
			c0.34-0.22,0.67-0.33,1-0.33C29.97,74.92,30.45,75.26,30.8,75.95L30.8,75.95z M29.75,78.55c0.09-0.47,0.13-0.89,0.13-1.26l0,0
			c0-0.43-0.04-0.79-0.13-1.09c-0.16-0.51-0.39-0.76-0.7-0.76c-0.28,0-0.57,0.15-0.88,0.46l-0.04,0.04c0,0.79,0.03,1.46,0.09,2
			c0.05,0.47,0.17,0.86,0.35,1.16c0.12,0.21,0.27,0.32,0.46,0.33c0.14,0.01,0.27-0.05,0.39-0.19C29.58,79.1,29.68,78.86,29.75,78.55
			L29.75,78.55z"/>
	</g>
</g>
<rect x="35.47" y="81.92" class="st1" width="18.12" height="11.26"/>
<g>
	<g>
		<path class="st0" d="M43.3,79.84h-3.02v-0.41h0.41c0.4,0,0.6-0.12,0.6-0.35v-5.65c-0.01-0.11-0.09-0.16-0.22-0.16h-0.75v-0.41
			c0.43-0.02,0.76-0.09,1-0.2c0.16-0.08,0.35-0.25,0.56-0.49h0.44v6.92c0,0.23,0.2,0.35,0.59,0.35h0.39V79.84z"/>
		<path class="st0" d="M49.34,72.86c-0.59,0.94-1.01,1.84-1.25,2.7c-0.25,0.89-0.37,1.77-0.37,2.66v1.02c0,0.23-0.06,0.41-0.19,0.56
			c-0.08,0.09-0.21,0.14-0.37,0.15c-0.21-0.02-0.36-0.1-0.46-0.23c-0.07-0.14-0.1-0.37-0.1-0.7c0-0.93,0.19-1.93,0.56-3
			c0.33-0.94,0.8-1.92,1.41-2.94c-0.01-0.03-0.07-0.05-0.18-0.05h-2.1c-0.14,0-0.24,0.03-0.32,0.1c-0.08,0.11-0.18,0.49-0.28,1.15
			h-0.42l0.08-2.13h3.99V72.86z"/>
	</g>
</g>
<rect x="53.59" y="81.92" class="st2" width="18.12" height="11.26"/>
<g>
	<g>
		<path class="st0" d="M61.41,79.84h-3.02v-0.41h0.41c0.4,0,0.6-0.12,0.6-0.35v-5.65c-0.01-0.11-0.09-0.16-0.22-0.16h-0.75v-0.41
			c0.43-0.02,0.76-0.09,1-0.2c0.16-0.08,0.35-0.25,0.56-0.49h0.44v6.92c0,0.23,0.2,0.35,0.59,0.35h0.39V79.84z"/>
		<path class="st0" d="M67.04,76.77c0.16,0.28,0.25,0.64,0.25,1.07c0,0.6-0.2,1.11-0.59,1.5c-0.39,0.4-0.86,0.6-1.42,0.6
			c-0.67,0-1.21-0.22-1.62-0.66c-0.35-0.38-0.53-0.85-0.53-1.4c0-0.48,0.13-0.91,0.4-1.3c0.22-0.32,0.53-0.58,0.92-0.8
			c-0.48-0.35-0.77-0.64-0.88-0.86c-0.16-0.26-0.24-0.61-0.24-1.05c0-0.47,0.17-0.89,0.51-1.27c0.34-0.38,0.79-0.58,1.35-0.58
			c0.49,0,0.9,0.14,1.23,0.43c0.43,0.39,0.63,0.86,0.62,1.41c-0.01,0.37-0.11,0.73-0.32,1.07c-0.14,0.25-0.42,0.49-0.82,0.7
			C66.47,76.07,66.85,76.44,67.04,76.77L67.04,76.77z M65.93,79.05c0.23-0.32,0.34-0.68,0.33-1.08c-0.01-0.21-0.09-0.48-0.26-0.79
			c-0.17-0.31-0.53-0.66-1.06-1.04c-0.48,0.38-0.72,0.97-0.72,1.74c0,0.51,0.1,0.91,0.29,1.2c0.16,0.24,0.39,0.36,0.69,0.37
			C65.52,79.42,65.76,79.29,65.93,79.05L65.93,79.05z M65.41,75.3c0.41-0.33,0.63-0.8,0.64-1.42c0.01-0.45-0.09-0.81-0.29-1.08
			c-0.13-0.18-0.31-0.27-0.54-0.27c-0.29,0-0.52,0.13-0.68,0.38c-0.16,0.25-0.24,0.57-0.24,0.97C64.31,74.28,64.68,74.76,65.41,75.3
			L65.41,75.3z"/>
	</g>
</g>
<rect x="17.35" y="93.18" class="st1" width="18.12" height="11.26"/>
<g>
	<g>
		<path class="st0" d="M25.18,91.09h-3.02v-0.41h0.41c0.4,0,0.6-0.12,0.6-0.35v-5.65c-0.01-0.11-0.09-0.16-0.22-0.16H22.2v-0.41
			c0.43-0.02,0.76-0.09,1-0.2c0.16-0.08,0.35-0.25,0.56-0.49h0.44v6.92c0,0.23,0.2,0.35,0.59,0.35h0.39V91.09z"/>
		<path class="st0" d="M30.72,85.01c0.14,0.62,0.21,1.39,0.21,2.31c0,0.79-0.06,1.45-0.16,1.97c-0.13,0.58-0.35,1.05-0.66,1.43
			c-0.34,0.32-0.75,0.48-1.23,0.48c-0.39,0-0.76-0.13-1.11-0.4c-0.3-0.3-0.45-0.64-0.45-1.03c0-0.18,0.05-0.35,0.14-0.51
			c0.1-0.16,0.23-0.24,0.39-0.24c0.19,0,0.33,0.04,0.42,0.13c0.12,0.1,0.19,0.25,0.2,0.43c-0.02,0.14-0.08,0.27-0.19,0.39
			c-0.1,0.1-0.14,0.2-0.14,0.28c0,0.14,0.06,0.25,0.19,0.33c0.13,0.07,0.27,0.1,0.43,0.09c0.49-0.01,0.8-0.36,0.93-1.05
			c0.1-0.52,0.17-1.13,0.2-1.85c-0.03,0.03-0.07,0.07-0.13,0.11c-0.37,0.26-0.74,0.38-1.11,0.37c-0.26-0.01-0.55-0.12-0.87-0.33
			c-0.23-0.15-0.41-0.37-0.54-0.67c-0.11-0.35-0.16-0.74-0.16-1.18c0-0.61,0.05-1.09,0.16-1.42c0.14-0.43,0.37-0.78,0.69-1.06
			c0.3-0.22,0.65-0.33,1.04-0.33c0.34,0,0.66,0.11,0.98,0.33C30.32,83.96,30.58,84.43,30.72,85.01L30.72,85.01z M28.93,87.75
			c0.32,0,0.64-0.17,0.96-0.5c-0.02-0.98-0.07-1.75-0.15-2.29c-0.07-0.39-0.18-0.7-0.33-0.94c-0.13-0.15-0.28-0.23-0.44-0.23
			c-0.19,0-0.34,0.07-0.45,0.21c-0.16,0.19-0.26,0.39-0.32,0.62c-0.08,0.36-0.12,0.77-0.12,1.21c0,0.52,0.04,0.93,0.12,1.22
			C28.33,87.52,28.58,87.75,28.93,87.75L28.93,87.75z"/>
	</g>
</g>
<rect x="35.47" y="93.18" class="st2" width="18.12" height="11.26"/>
<g>
	<g>
		<path class="st0" d="M43.84,89.2l-0.24,1.9h-3.78c0.13-0.69,0.38-1.38,0.74-2.05c0.23-0.41,0.69-1.08,1.4-2
			c0.21-0.27,0.39-0.62,0.54-1.04c0.13-0.36,0.21-0.67,0.23-0.92c-0.02-0.39-0.11-0.69-0.28-0.9c-0.19-0.24-0.45-0.36-0.78-0.36
			s-0.6,0.1-0.81,0.3c-0.22,0.21-0.33,0.44-0.33,0.7c0,0.15,0.06,0.26,0.19,0.34c0.27,0.1,0.42,0.28,0.46,0.56
			c-0.01,0.06-0.08,0.14-0.19,0.26c-0.11,0.12-0.25,0.19-0.42,0.21c-0.23,0-0.41-0.09-0.54-0.28c-0.14-0.18-0.21-0.43-0.21-0.74
			c0-0.27,0.1-0.57,0.3-0.9c0.19-0.33,0.42-0.56,0.69-0.7c0.32-0.18,0.68-0.27,1.07-0.27c0.3,0,0.59,0.05,0.9,0.15
			c0.28,0.14,0.53,0.37,0.74,0.69c0.23,0.34,0.33,0.71,0.32,1.1c-0.01,0.35-0.1,0.7-0.28,1.06c-0.18,0.36-0.64,0.93-1.39,1.72
			c-0.69,0.72-1.19,1.45-1.47,2.19h2.14c0.14,0,0.25-0.07,0.34-0.22c0.07-0.12,0.14-0.37,0.23-0.73l0.01-0.07H43.84z"/>
		<path class="st0" d="M48.8,85.05c0.16,0.8,0.25,1.54,0.25,2.23c0,0.76-0.08,1.48-0.25,2.16c-0.16,0.65-0.38,1.1-0.66,1.36
			c-0.28,0.27-0.6,0.4-0.98,0.4c-0.81,0-1.36-0.59-1.65-1.76c-0.16-0.69-0.25-1.41-0.25-2.16c0-0.76,0.08-1.5,0.25-2.23
			c0.14-0.61,0.36-1.06,0.65-1.34c0.29-0.28,0.62-0.42,1-0.42c0.6,0,1.05,0.32,1.37,0.95C48.63,84.47,48.72,84.74,48.8,85.05
			L48.8,85.05z M47.69,89.92c0.14-0.74,0.21-1.62,0.21-2.64c0-1.05-0.07-1.95-0.21-2.7c-0.09-0.51-0.26-0.76-0.53-0.76
			c-0.29,0-0.48,0.25-0.57,0.76c-0.12,0.63-0.18,1.53-0.18,2.7c0,1.13,0.06,2.01,0.18,2.64c0.09,0.52,0.28,0.77,0.57,0.77
			C47.42,90.69,47.6,90.43,47.69,89.92L47.69,89.92z"/>
	</g>
</g>
<rect x="53.59" y="93.18" class="st1" width="18.12" height="11.26"/>
<g>
	<g>
		<path class="st0" d="M61.96,89.2l-0.24,1.9h-3.78c0.13-0.69,0.38-1.38,0.74-2.05c0.23-0.41,0.69-1.08,1.4-2
			c0.21-0.27,0.39-0.62,0.54-1.04c0.13-0.36,0.21-0.67,0.23-0.92c-0.02-0.39-0.11-0.69-0.28-0.9c-0.19-0.24-0.45-0.36-0.78-0.36
			c-0.33,0-0.6,0.1-0.81,0.3c-0.22,0.21-0.33,0.44-0.33,0.7c0,0.15,0.06,0.26,0.19,0.34c0.27,0.1,0.42,0.28,0.46,0.56
			c-0.01,0.06-0.08,0.14-0.19,0.26c-0.11,0.12-0.25,0.19-0.42,0.21c-0.23,0-0.41-0.09-0.54-0.28c-0.14-0.18-0.21-0.43-0.21-0.74
			c0-0.27,0.1-0.57,0.3-0.9c0.19-0.33,0.42-0.56,0.69-0.7c0.32-0.18,0.68-0.27,1.07-0.27c0.3,0,0.59,0.05,0.9,0.15
			c0.28,0.14,0.53,0.37,0.74,0.69c0.23,0.34,0.33,0.71,0.32,1.1c-0.01,0.35-0.1,0.7-0.28,1.06c-0.18,0.36-0.64,0.93-1.39,1.72
			c-0.69,0.72-1.19,1.45-1.47,2.19h2.14c0.14,0,0.25-0.07,0.34-0.22c0.07-0.12,0.14-0.37,0.23-0.73l0.01-0.07H61.96z"/>
		<path class="st0" d="M66.69,91.09h-3.02v-0.41h0.41c0.4,0,0.6-0.12,0.6-0.35v-5.65c-0.01-0.11-0.09-0.16-0.22-0.16h-0.75v-0.41
			c0.43-0.02,0.76-0.09,1-0.2c0.16-0.08,0.35-0.25,0.56-0.49h0.44v6.92c0,0.23,0.2,0.35,0.59,0.35h0.39V91.09z"/>
	</g>
</g>
<rect x="17.35" y="104.44" class="st2" width="18.12" height="11.26"/>
<g>
	<g>
		<path class="st0" d="M25.72,100.46l-0.24,1.9H21.7c0.13-0.69,0.38-1.38,0.74-2.05c0.23-0.41,0.69-1.08,1.4-2
			c0.21-0.27,0.39-0.62,0.54-1.04c0.13-0.36,0.21-0.67,0.23-0.92c-0.02-0.39-0.11-0.69-0.28-0.9c-0.19-0.24-0.45-0.36-0.78-0.36
			c-0.33,0-0.6,0.1-0.81,0.3c-0.22,0.21-0.33,0.44-0.33,0.7c0,0.15,0.06,0.26,0.19,0.34c0.27,0.1,0.42,0.28,0.46,0.56
			c-0.01,0.06-0.08,0.14-0.19,0.26c-0.11,0.12-0.25,0.19-0.42,0.21c-0.23,0-0.41-0.09-0.54-0.28c-0.14-0.18-0.21-0.43-0.21-0.74
			c0-0.27,0.1-0.57,0.3-0.9c0.19-0.33,0.42-0.56,0.69-0.7c0.32-0.18,0.68-0.27,1.07-0.27c0.3,0,0.59,0.05,0.9,0.15
			c0.28,0.14,0.53,0.37,0.74,0.69c0.23,0.34,0.33,0.71,0.32,1.1c-0.01,0.35-0.1,0.7-0.28,1.06c-0.18,0.36-0.64,0.93-1.39,1.72
			c-0.69,0.72-1.19,1.45-1.47,2.19h2.14c0.14,0,0.25-0.07,0.34-0.22c0.07-0.12,0.14-0.37,0.23-0.73l0.01-0.07H25.72z"/>
		<path class="st0" d="M31,100.46l-0.24,1.9h-3.78c0.13-0.69,0.38-1.38,0.74-2.05c0.23-0.41,0.69-1.08,1.4-2
			c0.21-0.27,0.39-0.62,0.54-1.04c0.13-0.36,0.21-0.67,0.23-0.92c-0.02-0.39-0.11-0.69-0.28-0.9c-0.19-0.24-0.45-0.36-0.78-0.36
			c-0.33,0-0.6,0.1-0.81,0.3c-0.22,0.21-0.33,0.44-0.33,0.7c0,0.15,0.06,0.26,0.19,0.34c0.27,0.1,0.42,0.28,0.46,0.56
			c-0.01,0.06-0.08,0.14-0.19,0.26c-0.11,0.12-0.25,0.19-0.42,0.21c-0.23,0-0.41-0.09-0.54-0.28c-0.14-0.18-0.21-0.43-0.21-0.74
			c0-0.27,0.1-0.57,0.3-0.9c0.19-0.33,0.42-0.56,0.69-0.7c0.32-0.18,0.68-0.27,1.07-0.27c0.3,0,0.59,0.05,0.9,0.15
			c0.28,0.14,0.53,0.37,0.74,0.69c0.23,0.34,0.33,0.71,0.32,1.1c-0.01,0.35-0.1,0.7-0.28,1.06c-0.18,0.36-0.64,0.93-1.39,1.72
			c-0.69,0.72-1.19,1.45-1.47,2.19H30c0.14,0,0.25-0.07,0.34-0.22c0.07-0.12,0.14-0.37,0.23-0.73l0.01-0.07H31z"/>
	</g>
</g>
<rect x="35.47" y="104.44" class="st1" width="18.12" height="11.26"/>
<g>
	<g>
		<path class="st0" d="M43.84,100.46l-0.24,1.9h-3.78c0.13-0.69,0.38-1.38,0.74-2.05c0.23-0.41,0.69-1.08,1.4-2
			c0.21-0.27,0.39-0.62,0.54-1.04c0.13-0.36,0.21-0.67,0.23-0.92c-0.02-0.39-0.11-0.69-0.28-0.9c-0.19-0.24-0.45-0.36-0.78-0.36
			s-0.6,0.1-0.81,0.3c-0.22,0.21-0.33,0.44-0.33,0.7c0,0.15,0.06,0.26,0.19,0.34c0.27,0.1,0.42,0.28,0.46,0.56
			c-0.01,0.06-0.08,0.14-0.19,0.26c-0.11,0.12-0.25,0.19-0.42,0.21c-0.23,0-0.41-0.09-0.54-0.28c-0.14-0.18-0.21-0.43-0.21-0.74
			c0-0.27,0.1-0.57,0.3-0.9c0.19-0.33,0.42-0.56,0.69-0.7c0.32-0.18,0.68-0.27,1.07-0.27c0.3,0,0.59,0.05,0.9,0.15
			c0.28,0.14,0.53,0.37,0.74,0.69c0.23,0.34,0.33,0.71,0.32,1.1c-0.01,0.35-0.1,0.7-0.28,1.06c-0.18,0.36-0.64,0.93-1.39,1.72
			c-0.69,0.72-1.19,1.45-1.47,2.19h2.14c0.14,0,0.25-0.07,0.34-0.22c0.07-0.12,0.14-0.37,0.23-0.73l0.01-0.07H43.84z"/>
		<path class="st0" d="M48.76,98.78c0.27,0.32,0.41,0.77,0.41,1.33c0,0.41-0.1,0.82-0.3,1.24c-0.19,0.41-0.44,0.7-0.73,0.9
			c-0.32,0.15-0.64,0.23-0.98,0.23c-0.32,0-0.64-0.06-0.95-0.19c-0.34-0.14-0.61-0.38-0.82-0.71c-0.16-0.26-0.25-0.56-0.25-0.9
			c0-0.27,0.07-0.49,0.21-0.66c0.1-0.13,0.24-0.2,0.41-0.2c0.16,0,0.3,0.05,0.41,0.14c0.11,0.12,0.17,0.24,0.18,0.35
			c-0.01,0.14-0.1,0.29-0.25,0.43c-0.15,0.14-0.23,0.26-0.23,0.36c0,0.22,0.11,0.42,0.34,0.59c0.21,0.15,0.42,0.23,0.64,0.24
			c0.38-0.02,0.67-0.18,0.86-0.47c0.23-0.36,0.35-0.8,0.34-1.31c-0.01-0.58-0.1-1-0.28-1.24c-0.16-0.24-0.45-0.36-0.87-0.36h-0.36
			v-0.56h0.36c0.3,0,0.54-0.14,0.74-0.41c0.18-0.25,0.27-0.65,0.28-1.21c0.01-0.36-0.08-0.67-0.27-0.93
			c-0.16-0.22-0.41-0.33-0.74-0.33c-0.21,0-0.42,0.06-0.62,0.16c-0.23,0.13-0.34,0.3-0.34,0.51c0,0.14,0.07,0.25,0.21,0.33
			c0.19,0.12,0.29,0.27,0.31,0.43c-0.02,0.11-0.09,0.21-0.2,0.31c-0.08,0.08-0.21,0.12-0.39,0.12c-0.2,0-0.34-0.07-0.41-0.21
			c-0.11-0.14-0.16-0.32-0.16-0.54c0-0.3,0.08-0.59,0.24-0.87c0.16-0.27,0.37-0.48,0.63-0.62c0.25-0.14,0.58-0.21,0.99-0.21
			c0.4,0,0.75,0.08,1.06,0.25c0.52,0.34,0.78,0.87,0.78,1.58c0,0.5-0.15,0.94-0.45,1.31c-0.26,0.32-0.58,0.51-0.95,0.56
			C48.12,98.3,48.5,98.48,48.76,98.78L48.76,98.78z"/>
	</g>
</g>
<rect x="53.59" y="104.44" class="st2" width="18.12" height="11.26"/>
<g>
	<g>
		<path class="st0" d="M61.96,100.46l-0.24,1.9h-3.78c0.13-0.69,0.38-1.38,0.74-2.05c0.23-0.41,0.69-1.08,1.4-2
			c0.21-0.27,0.39-0.62,0.54-1.04c0.13-0.36,0.21-0.67,0.23-0.92c-0.02-0.39-0.11-0.69-0.28-0.9c-0.19-0.24-0.45-0.36-0.78-0.36
			c-0.33,0-0.6,0.1-0.81,0.3c-0.22,0.21-0.33,0.44-0.33,0.7c0,0.15,0.06,0.26,0.19,0.34c0.27,0.1,0.42,0.28,0.46,0.56
			c-0.01,0.06-0.08,0.14-0.19,0.26c-0.11,0.12-0.25,0.19-0.42,0.21c-0.23,0-0.41-0.09-0.54-0.28c-0.14-0.18-0.21-0.43-0.21-0.74
			c0-0.27,0.1-0.57,0.3-0.9c0.19-0.33,0.42-0.56,0.69-0.7c0.32-0.18,0.68-0.27,1.07-0.27c0.3,0,0.59,0.05,0.9,0.15
			c0.28,0.14,0.53,0.37,0.74,0.69c0.23,0.34,0.33,0.71,0.32,1.1c-0.01,0.35-0.1,0.7-0.28,1.06c-0.18,0.36-0.64,0.93-1.39,1.72
			c-0.69,0.72-1.19,1.45-1.47,2.19h2.14c0.14,0,0.25-0.07,0.34-0.22c0.07-0.12,0.14-0.37,0.23-0.73l0.01-0.07H61.96z"/>
		<path class="st0" d="M67.49,100.72h-0.92v0.97c0,0.16,0.09,0.25,0.28,0.27h0.45v0.39h-2.69v-0.39h0.61
			c0.21-0.02,0.31-0.11,0.31-0.27v-0.97h-2.44v-0.43l2.93-5.61h0.56v5.65h0.92V100.72z M65.53,100.33v-3.77l-1.93,3.77H65.53z"/>
	</g>
</g>
<rect x="17.35" y="115.69" class="st1" width="18.12" height="11.26"/>
<g>
	<g>
		<path class="st0" d="M25.72,111.72l-0.24,1.9H21.7c0.13-0.69,0.38-1.38,0.74-2.05c0.23-0.41,0.69-1.08,1.4-2
			c0.21-0.27,0.39-0.62,0.54-1.04c0.13-0.36,0.21-0.67,0.23-0.92c-0.02-0.39-0.11-0.69-0.28-0.9c-0.19-0.24-0.45-0.36-0.78-0.36
			c-0.33,0-0.6,0.1-0.81,0.3c-0.22,0.21-0.33,0.44-0.33,0.7c0,0.15,0.06,0.26,0.19,0.34c0.27,0.1,0.42,0.28,0.46,0.56
			c-0.01,0.06-0.08,0.14-0.19,0.26c-0.11,0.12-0.25,0.19-0.42,0.21c-0.23,0-0.41-0.09-0.54-0.28c-0.14-0.18-0.21-0.43-0.21-0.74
			c0-0.27,0.1-0.57,0.3-0.9c0.19-0.33,0.42-0.56,0.69-0.7c0.32-0.18,0.68-0.27,1.07-0.27c0.3,0,0.59,0.05,0.9,0.15
			c0.28,0.14,0.53,0.37,0.74,0.69c0.23,0.34,0.33,0.71,0.32,1.1c-0.01,0.35-0.1,0.7-0.28,1.06c-0.18,0.36-0.64,0.93-1.39,1.72
			c-0.69,0.72-1.19,1.45-1.47,2.19h2.14c0.14,0,0.25-0.07,0.34-0.22c0.07-0.12,0.14-0.37,0.23-0.73l0.01-0.07H25.72z"/>
		<path class="st0" d="M30.76,109.67c0.13,0.4,0.2,0.82,0.2,1.26c0,0.6-0.09,1.12-0.28,1.57c-0.19,0.44-0.44,0.77-0.74,0.99
			c-0.31,0.16-0.64,0.24-0.98,0.24c-0.52,0-0.95-0.12-1.31-0.35c-0.39-0.27-0.64-0.64-0.73-1.12c0-0.23,0.05-0.43,0.14-0.59
			c0.12-0.19,0.3-0.29,0.52-0.29c0.12,0,0.26,0.05,0.4,0.14c0.08,0.08,0.13,0.19,0.15,0.32c-0.01,0.12-0.08,0.27-0.2,0.46
			c-0.1,0.19-0.15,0.32-0.15,0.39c0,0.11,0.09,0.22,0.27,0.33c0.21,0.1,0.42,0.15,0.63,0.15c0.36,0.01,0.63-0.18,0.82-0.58
			c0.21-0.43,0.31-0.97,0.3-1.62c-0.01-0.63-0.09-1.1-0.26-1.42c-0.16-0.32-0.4-0.48-0.73-0.48c-0.22,0-0.43,0.1-0.64,0.3
			c-0.19,0.18-0.31,0.39-0.38,0.63h-0.53l0.04-4.07h3.24l-0.15,0.86h-2.6v2.43c0.33-0.47,0.76-0.7,1.28-0.7
			c0.32,0,0.64,0.08,0.95,0.25C30.32,108.99,30.57,109.3,30.76,109.67L30.76,109.67z"/>
	</g>
</g>
<rect x="35.47" y="115.69" class="st2" width="18.12" height="11.26"/>
<g>
	<g>
		<path class="st0" d="M43.84,111.72l-0.24,1.9h-3.78c0.13-0.69,0.38-1.38,0.74-2.05c0.23-0.41,0.69-1.08,1.4-2
			c0.21-0.27,0.39-0.62,0.54-1.04c0.13-0.36,0.21-0.67,0.23-0.92c-0.02-0.39-0.11-0.69-0.28-0.9c-0.19-0.24-0.45-0.36-0.78-0.36
			s-0.6,0.1-0.81,0.3c-0.22,0.21-0.33,0.44-0.33,0.7c0,0.15,0.06,0.26,0.19,0.34c0.27,0.1,0.42,0.28,0.46,0.56
			c-0.01,0.06-0.08,0.14-0.19,0.26c-0.11,0.12-0.25,0.19-0.42,0.21c-0.23,0-0.41-0.09-0.54-0.28c-0.14-0.18-0.21-0.43-0.21-0.74
			c0-0.27,0.1-0.57,0.3-0.9c0.19-0.33,0.42-0.56,0.69-0.7c0.32-0.18,0.68-0.27,1.07-0.27c0.3,0,0.59,0.05,0.9,0.15
			c0.28,0.14,0.53,0.37,0.74,0.69c0.23,0.34,0.33,0.71,0.32,1.1c-0.01,0.35-0.1,0.7-0.28,1.06c-0.18,0.36-0.64,0.93-1.39,1.72
			c-0.69,0.72-1.19,1.45-1.47,2.19h2.14c0.14,0,0.25-0.07,0.34-0.22c0.07-0.12,0.14-0.37,0.23-0.73l0.01-0.07H43.84z"/>
		<path class="st0" d="M48.92,109.73c0.13,0.34,0.2,0.72,0.2,1.13c0,0.65-0.08,1.22-0.24,1.72c-0.15,0.35-0.41,0.65-0.78,0.91
			c-0.23,0.16-0.49,0.24-0.78,0.24c-0.51,0-0.92-0.15-1.23-0.44c-0.28-0.27-0.5-0.71-0.66-1.34c-0.14-0.57-0.21-1.28-0.21-2.14
			c0-0.87,0.08-1.66,0.25-2.35c0.12-0.45,0.31-0.82,0.59-1.11c0.33-0.35,0.71-0.53,1.13-0.53c0.45,0,0.82,0.14,1.11,0.41
			c0.35,0.32,0.53,0.69,0.53,1.11c0,0.16-0.04,0.31-0.13,0.45c-0.1,0.13-0.23,0.2-0.39,0.2c-0.36,0-0.55-0.18-0.55-0.54
			c0-0.14,0.04-0.29,0.13-0.44c0.05-0.1,0.1-0.2,0.12-0.28c-0.02-0.11-0.09-0.2-0.21-0.26c-0.17-0.07-0.34-0.1-0.52-0.1
			c-0.24,0-0.44,0.09-0.6,0.28c-0.16,0.19-0.26,0.5-0.32,0.95c-0.08,0.65-0.12,1.19-0.12,1.62c0.1-0.08,0.18-0.14,0.24-0.19
			c0.34-0.22,0.67-0.33,1-0.33C48.09,108.69,48.57,109.04,48.92,109.73L48.92,109.73z M47.87,112.32c0.09-0.47,0.13-0.89,0.13-1.26
			l0,0c0-0.43-0.04-0.79-0.13-1.09c-0.16-0.51-0.39-0.76-0.7-0.76c-0.28,0-0.57,0.15-0.88,0.46l-0.04,0.04c0,0.79,0.03,1.46,0.09,2
			c0.05,0.47,0.17,0.86,0.35,1.16c0.12,0.21,0.27,0.32,0.46,0.33c0.14,0.01,0.27-0.05,0.39-0.19
			C47.7,112.87,47.8,112.64,47.87,112.32L47.87,112.32z"/>
	</g>
</g>
<rect x="53.59" y="115.69" class="st1" width="18.12" height="11.26"/>
<g>
	<g>
		<path class="st0" d="M61.96,111.72l-0.24,1.9h-3.78c0.13-0.69,0.38-1.38,0.74-2.05c0.23-0.41,0.69-1.08,1.4-2
			c0.21-0.27,0.39-0.62,0.54-1.04c0.13-0.36,0.21-0.67,0.23-0.92c-0.02-0.39-0.11-0.69-0.28-0.9c-0.19-0.24-0.45-0.36-0.78-0.36
			c-0.33,0-0.6,0.1-0.81,0.3c-0.22,0.21-0.33,0.44-0.33,0.7c0,0.15,0.06,0.26,0.19,0.34c0.27,0.1,0.42,0.28,0.46,0.56
			c-0.01,0.06-0.08,0.14-0.19,0.26c-0.11,0.12-0.25,0.19-0.42,0.21c-0.23,0-0.41-0.09-0.54-0.28c-0.14-0.18-0.21-0.43-0.21-0.74
			c0-0.27,0.1-0.57,0.3-0.9c0.19-0.33,0.42-0.56,0.69-0.7c0.32-0.18,0.68-0.27,1.07-0.27c0.3,0,0.59,0.05,0.9,0.15
			c0.28,0.14,0.53,0.37,0.74,0.69c0.23,0.34,0.33,0.71,0.32,1.1c-0.01,0.35-0.1,0.7-0.28,1.06c-0.18,0.36-0.64,0.93-1.39,1.72
			c-0.69,0.72-1.19,1.45-1.47,2.19h2.14c0.14,0,0.25-0.07,0.34-0.22c0.07-0.12,0.14-0.37,0.23-0.73l0.01-0.07H61.96z"/>
		<path class="st0" d="M67.45,106.63c-0.59,0.94-1.01,1.84-1.25,2.7c-0.25,0.89-0.37,1.77-0.37,2.66v1.02
			c0,0.23-0.06,0.41-0.19,0.56c-0.08,0.09-0.21,0.14-0.37,0.15c-0.21-0.02-0.36-0.1-0.46-0.23c-0.07-0.14-0.1-0.37-0.1-0.7
			c0-0.93,0.19-1.93,0.56-3c0.33-0.94,0.8-1.92,1.41-2.94c-0.01-0.03-0.07-0.05-0.18-0.05h-2.1c-0.14,0-0.24,0.03-0.32,0.1
			c-0.08,0.11-0.18,0.49-0.28,1.15h-0.42l0.08-2.13h3.99V106.63z"/>
	</g>
</g>
<rect x="17.35" y="126.95" class="st2" width="18.12" height="11.26"/>
<g>
	<g>
		<path class="st0" d="M25.72,122.97l-0.24,1.9H21.7c0.13-0.69,0.38-1.38,0.74-2.05c0.23-0.41,0.69-1.08,1.4-2
			c0.21-0.27,0.39-0.62,0.54-1.04c0.13-0.36,0.21-0.67,0.23-0.92c-0.02-0.39-0.11-0.69-0.28-0.9c-0.19-0.24-0.45-0.36-0.78-0.36
			c-0.33,0-0.6,0.1-0.81,0.3c-0.22,0.21-0.33,0.44-0.33,0.7c0,0.15,0.06,0.26,0.19,0.34c0.27,0.1,0.42,0.28,0.46,0.56
			c-0.01,0.06-0.08,0.14-0.19,0.26c-0.11,0.12-0.25,0.19-0.42,0.21c-0.23,0-0.41-0.09-0.54-0.28c-0.14-0.18-0.21-0.43-0.21-0.74
			c0-0.27,0.1-0.57,0.3-0.9c0.19-0.33,0.42-0.56,0.69-0.7c0.32-0.18,0.68-0.27,1.07-0.27c0.3,0,0.59,0.05,0.9,0.15
			c0.28,0.14,0.53,0.37,0.74,0.69c0.23,0.34,0.33,0.71,0.32,1.1c-0.01,0.35-0.1,0.7-0.28,1.06c-0.18,0.36-0.64,0.93-1.39,1.72
			c-0.69,0.72-1.19,1.45-1.47,2.19h2.14c0.14,0,0.25-0.07,0.34-0.22c0.07-0.12,0.14-0.37,0.23-0.73l0.01-0.07H25.72z"/>
		<path class="st0" d="M30.8,121.81c0.16,0.28,0.25,0.64,0.25,1.07c0,0.6-0.2,1.11-0.59,1.5c-0.39,0.4-0.86,0.6-1.42,0.6
			c-0.67,0-1.21-0.22-1.62-0.66c-0.35-0.38-0.53-0.85-0.53-1.4c0-0.48,0.13-0.91,0.4-1.3c0.22-0.32,0.53-0.58,0.92-0.8
			c-0.48-0.35-0.77-0.64-0.88-0.86c-0.16-0.26-0.24-0.61-0.24-1.05c0-0.47,0.17-0.89,0.51-1.27c0.34-0.38,0.79-0.58,1.35-0.58
			c0.49,0,0.9,0.14,1.23,0.43c0.43,0.39,0.63,0.86,0.62,1.41c-0.01,0.37-0.11,0.73-0.32,1.07c-0.14,0.25-0.42,0.49-0.82,0.7
			C30.23,121.1,30.61,121.48,30.8,121.81L30.8,121.81z M29.69,124.09c0.23-0.32,0.34-0.68,0.33-1.08c-0.01-0.21-0.09-0.48-0.26-0.79
			c-0.17-0.31-0.53-0.66-1.06-1.04c-0.48,0.38-0.72,0.97-0.72,1.74c0,0.51,0.1,0.91,0.29,1.2c0.16,0.24,0.4,0.36,0.69,0.37
			C29.28,124.46,29.53,124.33,29.69,124.09L29.69,124.09z M29.18,120.34c0.41-0.33,0.63-0.8,0.64-1.42
			c0.01-0.45-0.09-0.81-0.29-1.08c-0.13-0.18-0.31-0.27-0.54-0.27c-0.29,0-0.52,0.13-0.68,0.38c-0.16,0.25-0.24,0.57-0.24,0.97
			C28.07,119.32,28.44,119.79,29.18,120.34L29.18,120.34z"/>
	</g>
</g>
<rect x="35.47" y="126.95" class="st1" width="18.12" height="11.26"/>
<g>
	<g>
		<path class="st0" d="M43.84,122.97l-0.24,1.9h-3.78c0.13-0.69,0.38-1.38,0.74-2.05c0.23-0.41,0.69-1.08,1.4-2
			c0.21-0.27,0.39-0.62,0.54-1.04c0.13-0.36,0.21-0.67,0.23-0.92c-0.02-0.39-0.11-0.69-0.28-0.9c-0.19-0.24-0.45-0.36-0.78-0.36
			s-0.6,0.1-0.81,0.3c-0.22,0.21-0.33,0.44-0.33,0.7c0,0.15,0.06,0.26,0.19,0.34c0.27,0.1,0.42,0.28,0.46,0.56
			c-0.01,0.06-0.08,0.14-0.19,0.26c-0.11,0.12-0.25,0.19-0.42,0.21c-0.23,0-0.41-0.09-0.54-0.28c-0.14-0.18-0.21-0.43-0.21-0.74
			c0-0.27,0.1-0.57,0.3-0.9c0.19-0.33,0.42-0.56,0.69-0.7c0.32-0.18,0.68-0.27,1.07-0.27c0.3,0,0.59,0.05,0.9,0.15
			c0.28,0.14,0.53,0.37,0.74,0.69c0.23,0.34,0.33,0.71,0.32,1.1c-0.01,0.35-0.1,0.7-0.28,1.06c-0.18,0.36-0.64,0.93-1.39,1.72
			c-0.69,0.72-1.19,1.45-1.47,2.19h2.14c0.14,0,0.25-0.07,0.34-0.22c0.07-0.12,0.14-0.37,0.23-0.73l0.01-0.07H43.84z"/>
		<path class="st0" d="M48.84,118.79c0.14,0.62,0.21,1.39,0.21,2.31c0,0.79-0.06,1.45-0.16,1.97c-0.13,0.58-0.35,1.05-0.66,1.43
			c-0.34,0.32-0.75,0.48-1.23,0.48c-0.39,0-0.76-0.13-1.11-0.4c-0.3-0.3-0.45-0.64-0.45-1.03c0-0.18,0.05-0.35,0.14-0.5
			c0.1-0.16,0.23-0.24,0.39-0.24c0.19,0,0.33,0.04,0.42,0.13c0.12,0.1,0.19,0.25,0.2,0.43c-0.02,0.14-0.08,0.27-0.19,0.39
			c-0.1,0.1-0.14,0.2-0.14,0.28c0,0.14,0.06,0.25,0.19,0.33c0.13,0.07,0.27,0.1,0.43,0.09c0.49-0.01,0.8-0.36,0.93-1.05
			c0.1-0.52,0.17-1.13,0.2-1.85c-0.03,0.03-0.07,0.07-0.13,0.11c-0.37,0.26-0.74,0.38-1.11,0.37c-0.26-0.01-0.55-0.12-0.87-0.33
			c-0.23-0.15-0.41-0.37-0.54-0.67c-0.11-0.35-0.16-0.74-0.16-1.18c0-0.61,0.05-1.09,0.16-1.42c0.14-0.43,0.37-0.78,0.69-1.06
			c0.3-0.22,0.65-0.33,1.04-0.33c0.34,0,0.66,0.11,0.98,0.33C48.44,117.74,48.7,118.2,48.84,118.79L48.84,118.79z M47.05,121.53
			c0.32,0,0.64-0.17,0.96-0.51c-0.02-0.98-0.07-1.75-0.15-2.29c-0.07-0.39-0.18-0.7-0.33-0.94c-0.13-0.15-0.28-0.23-0.44-0.23
			c-0.19,0-0.34,0.07-0.45,0.21c-0.16,0.19-0.26,0.39-0.32,0.62c-0.08,0.36-0.12,0.77-0.12,1.21c0,0.52,0.04,0.93,0.12,1.22
			C46.45,121.29,46.7,121.53,47.05,121.53L47.05,121.53z"/>
	</g>
</g>
<rect x="53.59" y="126.95" class="st2" width="18.12" height="11.26"/>
<g>
	<g>
		<path class="st0" d="M61.6,121.29c0.27,0.32,0.41,0.77,0.41,1.33c0,0.41-0.1,0.82-0.3,1.24c-0.19,0.41-0.44,0.7-0.73,0.9
			c-0.32,0.15-0.64,0.23-0.98,0.23c-0.32,0-0.64-0.06-0.95-0.19c-0.34-0.14-0.61-0.38-0.82-0.71c-0.16-0.26-0.25-0.56-0.25-0.9
			c0-0.27,0.07-0.49,0.21-0.66c0.1-0.13,0.24-0.2,0.41-0.2c0.16,0,0.3,0.05,0.41,0.14c0.11,0.12,0.17,0.24,0.18,0.35
			c-0.01,0.14-0.1,0.29-0.25,0.43c-0.15,0.14-0.23,0.26-0.23,0.36c0,0.22,0.11,0.42,0.34,0.59c0.21,0.15,0.42,0.23,0.64,0.24
			c0.38-0.02,0.67-0.18,0.86-0.47c0.23-0.36,0.35-0.8,0.34-1.31c-0.01-0.58-0.1-1-0.28-1.24c-0.16-0.24-0.45-0.36-0.87-0.36h-0.36
			v-0.56h0.36c0.3,0,0.54-0.14,0.74-0.41c0.18-0.25,0.27-0.65,0.28-1.21c0.01-0.36-0.08-0.67-0.27-0.93
			c-0.16-0.22-0.41-0.33-0.74-0.33c-0.21,0-0.42,0.06-0.62,0.16c-0.23,0.13-0.34,0.3-0.34,0.51c0,0.14,0.07,0.25,0.21,0.33
			c0.19,0.12,0.29,0.27,0.31,0.43c-0.02,0.11-0.09,0.21-0.2,0.31c-0.08,0.08-0.21,0.12-0.39,0.12c-0.2,0-0.34-0.07-0.41-0.21
			c-0.11-0.14-0.16-0.32-0.16-0.54c0-0.3,0.08-0.59,0.24-0.87c0.16-0.27,0.37-0.48,0.63-0.62c0.25-0.14,0.58-0.21,0.99-0.21
			c0.4,0,0.75,0.08,1.06,0.25c0.52,0.34,0.78,0.87,0.78,1.58c0,0.5-0.15,0.94-0.45,1.31c-0.26,0.32-0.58,0.51-0.95,0.56
			C60.96,120.82,61.35,121,61.6,121.29L61.6,121.29z"/>
		<path class="st0" d="M66.92,118.83c0.16,0.8,0.25,1.54,0.25,2.23c0,0.76-0.08,1.48-0.25,2.16c-0.16,0.65-0.38,1.1-0.66,1.36
			c-0.27,0.27-0.6,0.4-0.98,0.4c-0.81,0-1.36-0.59-1.65-1.76c-0.16-0.69-0.25-1.41-0.25-2.16c0-0.76,0.08-1.5,0.25-2.23
			c0.14-0.61,0.36-1.06,0.65-1.34c0.29-0.28,0.62-0.42,1-0.42c0.6,0,1.05,0.32,1.37,0.95C66.75,118.24,66.84,118.51,66.92,118.83
			L66.92,118.83z M65.81,123.7c0.14-0.74,0.21-1.62,0.21-2.64c0-1.05-0.07-1.95-0.21-2.7c-0.09-0.51-0.26-0.76-0.53-0.76
			c-0.29,0-0.48,0.25-0.57,0.76c-0.12,0.63-0.18,1.53-0.18,2.7c0,1.13,0.06,2.01,0.18,2.64c0.09,0.52,0.28,0.77,0.57,0.77
			C65.54,124.47,65.72,124.21,65.81,123.7L65.81,123.7z"/>
	</g>
</g>
<rect x="17.35" y="138.21" class="st1" width="18.12" height="11.26"/>
<g>
	<g>
		<path class="st0" d="M25.36,132.55c0.27,0.32,0.41,0.77,0.41,1.33c0,0.41-0.1,0.82-0.3,1.24c-0.19,0.41-0.44,0.7-0.73,0.9
			c-0.32,0.15-0.64,0.23-0.98,0.23c-0.32,0-0.64-0.06-0.95-0.19c-0.34-0.14-0.61-0.38-0.82-0.71c-0.16-0.26-0.25-0.56-0.25-0.9
			c0-0.27,0.07-0.49,0.21-0.66c0.1-0.13,0.24-0.2,0.41-0.2c0.16,0,0.3,0.05,0.41,0.14c0.11,0.12,0.17,0.24,0.18,0.35
			c-0.01,0.14-0.1,0.29-0.25,0.43c-0.15,0.14-0.23,0.26-0.23,0.36c0,0.22,0.11,0.42,0.34,0.59c0.21,0.15,0.42,0.23,0.64,0.24
			c0.38-0.02,0.67-0.18,0.86-0.47c0.23-0.36,0.35-0.8,0.34-1.31c-0.01-0.58-0.1-1-0.28-1.24c-0.16-0.24-0.45-0.36-0.87-0.36h-0.36
			v-0.56h0.36c0.3,0,0.54-0.14,0.74-0.41c0.18-0.25,0.27-0.65,0.28-1.21c0.01-0.36-0.08-0.67-0.27-0.93
			c-0.16-0.22-0.41-0.33-0.74-0.33c-0.21,0-0.42,0.06-0.62,0.16c-0.23,0.13-0.34,0.3-0.34,0.51c0,0.14,0.07,0.25,0.21,0.33
			c0.19,0.12,0.29,0.27,0.31,0.43c-0.02,0.11-0.09,0.21-0.2,0.31c-0.08,0.08-0.21,0.12-0.39,0.12c-0.2,0-0.34-0.07-0.41-0.21
			c-0.11-0.14-0.16-0.32-0.16-0.54c0-0.3,0.08-0.59,0.24-0.87c0.16-0.27,0.37-0.48,0.63-0.62c0.25-0.14,0.58-0.21,0.99-0.21
			c0.4,0,0.75,0.08,1.06,0.25c0.52,0.34,0.78,0.87,0.78,1.58c0,0.5-0.15,0.94-0.45,1.31c-0.26,0.32-0.58,0.51-0.95,0.56
			C24.72,132.08,25.11,132.26,25.36,132.55L25.36,132.55z"/>
		<path class="st0" d="M30.45,136.13h-3.02v-0.41h0.41c0.4,0,0.6-0.12,0.6-0.35v-5.65c-0.01-0.11-0.09-0.16-0.22-0.16h-0.75v-0.41
			c0.43-0.02,0.76-0.09,1-0.2c0.16-0.08,0.35-0.25,0.56-0.49h0.44v6.92c0,0.23,0.2,0.35,0.59,0.35h0.39V136.13z"/>
	</g>
</g>
<rect x="35.47" y="138.21" class="st2" width="18.12" height="11.26"/>
<g>
	<g>
		<path class="st0" d="M43.48,132.55c0.27,0.32,0.41,0.77,0.41,1.33c0,0.41-0.1,0.82-0.3,1.24c-0.19,0.41-0.44,0.7-0.73,0.9
			c-0.32,0.15-0.64,0.23-0.98,0.23c-0.32,0-0.64-0.06-0.95-0.19c-0.34-0.14-0.61-0.38-0.82-0.71c-0.16-0.26-0.25-0.56-0.25-0.9
			c0-0.27,0.07-0.49,0.21-0.66c0.1-0.13,0.24-0.2,0.41-0.2c0.16,0,0.3,0.05,0.41,0.14c0.11,0.12,0.17,0.24,0.18,0.35
			c-0.01,0.14-0.1,0.29-0.25,0.43c-0.15,0.14-0.23,0.26-0.23,0.36c0,0.22,0.11,0.42,0.34,0.59c0.21,0.15,0.42,0.23,0.64,0.24
			c0.38-0.02,0.67-0.18,0.86-0.47c0.23-0.36,0.35-0.8,0.34-1.31c-0.01-0.58-0.1-1-0.28-1.24c-0.16-0.24-0.45-0.36-0.87-0.36h-0.36
			v-0.56h0.36c0.3,0,0.54-0.14,0.74-0.41c0.18-0.25,0.27-0.65,0.28-1.21c0.01-0.36-0.08-0.67-0.27-0.93
			c-0.16-0.22-0.41-0.33-0.74-0.33c-0.21,0-0.42,0.06-0.62,0.16c-0.23,0.13-0.34,0.3-0.34,0.51c0,0.14,0.07,0.25,0.21,0.33
			c0.19,0.12,0.29,0.27,0.31,0.43c-0.02,0.11-0.09,0.21-0.2,0.31c-0.08,0.08-0.21,0.12-0.39,0.12c-0.2,0-0.34-0.07-0.41-0.21
			c-0.11-0.14-0.16-0.32-0.16-0.54c0-0.3,0.08-0.59,0.24-0.87c0.16-0.27,0.37-0.48,0.63-0.62c0.25-0.14,0.58-0.21,0.99-0.21
			c0.4,0,0.75,0.08,1.06,0.25c0.52,0.34,0.78,0.87,0.78,1.58c0,0.5-0.15,0.94-0.45,1.31c-0.26,0.32-0.58,0.51-0.95,0.56
			C42.84,132.08,43.23,132.26,43.48,132.55L43.48,132.55z"/>
		<path class="st0" d="M49.12,134.23l-0.24,1.9H45.1c0.13-0.69,0.38-1.38,0.74-2.05c0.23-0.41,0.69-1.08,1.4-2
			c0.21-0.27,0.39-0.62,0.54-1.04c0.13-0.36,0.21-0.67,0.23-0.92c-0.02-0.39-0.11-0.69-0.28-0.9c-0.19-0.24-0.45-0.36-0.78-0.36
			c-0.33,0-0.6,0.1-0.81,0.3c-0.22,0.21-0.33,0.44-0.33,0.7c0,0.15,0.06,0.26,0.19,0.34c0.27,0.1,0.42,0.28,0.46,0.56
			c-0.01,0.06-0.08,0.14-0.19,0.26c-0.11,0.12-0.25,0.19-0.42,0.21c-0.23,0-0.41-0.09-0.54-0.28c-0.14-0.18-0.21-0.43-0.21-0.74
			c0-0.27,0.1-0.57,0.3-0.9c0.19-0.33,0.42-0.56,0.69-0.7c0.32-0.18,0.68-0.27,1.07-0.27c0.3,0,0.59,0.05,0.9,0.15
			c0.28,0.14,0.53,0.37,0.74,0.69c0.23,0.34,0.33,0.71,0.32,1.1c-0.01,0.35-0.1,0.7-0.28,1.06c-0.18,0.36-0.64,0.93-1.39,1.72
			c-0.69,0.72-1.19,1.45-1.47,2.19h2.14c0.14,0,0.25-0.07,0.34-0.22c0.07-0.12,0.14-0.37,0.23-0.73l0.01-0.07H49.12z"/>
	</g>
</g>
<rect x="17.35" y="59.4" class="st2" width="18.12" height="11.26"/>
<rect x="53.59" y="138.21" class="st1" width="18.12" height="11.26"/>
<rect x="35.47" y="59.4" class="st1" width="18.12" height="11.26"/>
<g>
	<g>
		<path class="st0" d="M61.6,132.55c0.27,0.32,0.41,0.77,0.41,1.33c0,0.41-0.1,0.82-0.3,1.24c-0.19,0.41-0.44,0.7-0.73,0.9
			c-0.32,0.15-0.64,0.23-0.98,0.23c-0.32,0-0.64-0.06-0.95-0.19c-0.34-0.14-0.61-0.38-0.82-0.71c-0.16-0.26-0.25-0.56-0.25-0.9
			c0-0.27,0.07-0.49,0.21-0.66c0.1-0.13,0.24-0.2,0.41-0.2c0.16,0,0.3,0.05,0.41,0.14c0.11,0.12,0.17,0.24,0.18,0.35
			c-0.01,0.14-0.1,0.29-0.25,0.43c-0.15,0.14-0.23,0.26-0.23,0.36c0,0.22,0.11,0.42,0.34,0.59c0.21,0.15,0.42,0.23,0.64,0.24
			c0.38-0.02,0.67-0.18,0.86-0.47c0.23-0.36,0.35-0.8,0.34-1.31c-0.01-0.58-0.1-1-0.28-1.24c-0.16-0.24-0.45-0.36-0.87-0.36h-0.36
			v-0.56h0.36c0.3,0,0.54-0.14,0.74-0.41c0.18-0.25,0.27-0.65,0.28-1.21c0.01-0.36-0.08-0.67-0.27-0.93
			c-0.16-0.22-0.41-0.33-0.74-0.33c-0.21,0-0.42,0.06-0.62,0.16c-0.23,0.13-0.34,0.3-0.34,0.51c0,0.14,0.07,0.25,0.21,0.33
			c0.19,0.12,0.29,0.27,0.31,0.43c-0.02,0.11-0.09,0.21-0.2,0.31c-0.08,0.08-0.21,0.12-0.39,0.12c-0.2,0-0.34-0.07-0.41-0.21
			c-0.11-0.14-0.16-0.32-0.16-0.54c0-0.3,0.08-0.59,0.24-0.87c0.16-0.27,0.37-0.48,0.63-0.62c0.25-0.14,0.58-0.21,0.99-0.21
			c0.4,0,0.75,0.08,1.06,0.25c0.52,0.34,0.78,0.87,0.78,1.58c0,0.5-0.15,0.94-0.45,1.31c-0.26,0.32-0.58,0.51-0.95,0.56
			C60.96,132.08,61.35,132.26,61.6,132.55L61.6,132.55z"/>
		<path class="st0" d="M66.88,132.55c0.27,0.32,0.41,0.77,0.41,1.33c0,0.41-0.1,0.82-0.3,1.24c-0.19,0.41-0.44,0.7-0.73,0.9
			c-0.32,0.15-0.64,0.23-0.98,0.23c-0.32,0-0.64-0.06-0.95-0.19c-0.34-0.14-0.61-0.38-0.82-0.71c-0.16-0.26-0.25-0.56-0.25-0.9
			c0-0.27,0.07-0.49,0.21-0.66c0.1-0.13,0.24-0.2,0.41-0.2c0.16,0,0.3,0.05,0.41,0.14c0.11,0.12,0.17,0.24,0.18,0.35
			c-0.01,0.14-0.1,0.29-0.25,0.43c-0.15,0.14-0.23,0.26-0.23,0.36c0,0.22,0.11,0.42,0.34,0.59c0.21,0.15,0.42,0.23,0.64,0.24
			c0.38-0.02,0.67-0.18,0.86-0.47c0.23-0.36,0.35-0.8,0.34-1.31c-0.01-0.58-0.1-1-0.28-1.24c-0.16-0.24-0.45-0.36-0.87-0.36h-0.36
			v-0.56h0.36c0.3,0,0.54-0.14,0.74-0.41c0.18-0.25,0.27-0.65,0.28-1.21c0.01-0.36-0.08-0.67-0.27-0.93
			c-0.16-0.22-0.41-0.33-0.74-0.33c-0.21,0-0.42,0.06-0.62,0.16c-0.23,0.13-0.34,0.3-0.34,0.51c0,0.14,0.07,0.25,0.21,0.33
			c0.19,0.12,0.29,0.27,0.31,0.43c-0.02,0.11-0.09,0.21-0.2,0.31c-0.08,0.08-0.21,0.12-0.39,0.12c-0.2,0-0.34-0.07-0.41-0.21
			c-0.11-0.14-0.17-0.32-0.17-0.54c0-0.3,0.08-0.59,0.24-0.87c0.16-0.27,0.37-0.48,0.63-0.62c0.25-0.14,0.58-0.21,0.99-0.21
			c0.4,0,0.75,0.08,1.06,0.25c0.52,0.34,0.78,0.87,0.78,1.58c0,0.5-0.15,0.94-0.45,1.31c-0.26,0.32-0.58,0.51-0.95,0.56
			C66.24,132.08,66.62,132.26,66.88,132.55L66.88,132.55z"/>
	</g>
</g>
<rect x="53.59" y="59.4" class="st2" width="18.12" height="11.26"/>
<g>
	<g>
		<path class="st0" d="M25.36,143.81c0.27,0.32,0.41,0.77,0.41,1.33c0,0.41-0.1,0.82-0.3,1.24c-0.19,0.41-0.44,0.7-0.73,0.9
			c-0.32,0.15-0.64,0.23-0.98,0.23c-0.32,0-0.64-0.06-0.95-0.19c-0.34-0.14-0.61-0.38-0.82-0.71c-0.16-0.26-0.25-0.56-0.25-0.9
			c0-0.27,0.07-0.49,0.21-0.66c0.1-0.13,0.24-0.2,0.41-0.2c0.16,0,0.3,0.05,0.41,0.14c0.11,0.12,0.17,0.24,0.18,0.35
			c-0.01,0.14-0.1,0.29-0.25,0.43c-0.15,0.14-0.23,0.26-0.23,0.36c0,0.22,0.11,0.42,0.34,0.59c0.21,0.15,0.42,0.23,0.64,0.24
			c0.38-0.02,0.67-0.18,0.86-0.47c0.23-0.36,0.35-0.8,0.34-1.31c-0.01-0.58-0.1-1-0.28-1.24c-0.16-0.24-0.45-0.36-0.87-0.36h-0.36
			v-0.56h0.36c0.3,0,0.54-0.14,0.74-0.41c0.18-0.25,0.27-0.65,0.28-1.21c0.01-0.36-0.08-0.67-0.27-0.93
			c-0.16-0.22-0.41-0.33-0.74-0.33c-0.21,0-0.42,0.06-0.62,0.16c-0.23,0.13-0.34,0.3-0.34,0.51c0,0.14,0.07,0.25,0.21,0.33
			c0.19,0.12,0.29,0.27,0.31,0.43c-0.02,0.11-0.09,0.21-0.2,0.31c-0.08,0.08-0.21,0.12-0.39,0.12c-0.2,0-0.34-0.07-0.41-0.21
			c-0.11-0.14-0.16-0.32-0.16-0.54c0-0.3,0.08-0.59,0.24-0.87c0.16-0.27,0.37-0.48,0.63-0.62c0.25-0.14,0.58-0.21,0.99-0.21
			c0.4,0,0.75,0.08,1.06,0.25c0.52,0.34,0.78,0.87,0.78,1.58c0,0.5-0.15,0.94-0.45,1.31c-0.26,0.32-0.58,0.51-0.95,0.56
			C24.72,143.34,25.11,143.52,25.36,143.81L25.36,143.81z"/>
		<path class="st0" d="M31.25,145.76h-0.92v0.97c0,0.16,0.09,0.25,0.28,0.27h0.45v0.39h-2.69V147h0.61
			c0.21-0.02,0.31-0.11,0.31-0.27v-0.97h-2.44v-0.43l2.93-5.61h0.56v5.65h0.92V145.76z M29.29,145.37v-3.77l-1.93,3.77H29.29z"/>
	</g>
</g>
<g>
	<g>
		<path class="st0" d="M43.48,143.81c0.27,0.32,0.41,0.77,0.41,1.33c0,0.41-0.1,0.82-0.3,1.24c-0.19,0.41-0.44,0.7-0.73,0.9
			c-0.32,0.15-0.64,0.23-0.98,0.23c-0.32,0-0.64-0.06-0.95-0.19c-0.34-0.14-0.61-0.38-0.82-0.71c-0.16-0.26-0.25-0.56-0.25-0.9
			c0-0.27,0.07-0.49,0.21-0.66c0.1-0.13,0.24-0.2,0.41-0.2c0.16,0,0.3,0.05,0.41,0.14c0.11,0.12,0.17,0.24,0.18,0.35
			c-0.01,0.14-0.1,0.29-0.25,0.43c-0.15,0.14-0.23,0.26-0.23,0.36c0,0.22,0.11,0.42,0.34,0.59c0.21,0.15,0.42,0.23,0.64,0.24
			c0.38-0.02,0.67-0.18,0.86-0.47c0.23-0.36,0.35-0.8,0.34-1.31c-0.01-0.58-0.1-1-0.28-1.24c-0.16-0.24-0.45-0.36-0.87-0.36h-0.36
			v-0.56h0.36c0.3,0,0.54-0.14,0.74-0.41c0.18-0.25,0.27-0.65,0.28-1.21c0.01-0.36-0.08-0.67-0.27-0.93
			c-0.16-0.22-0.41-0.33-0.74-0.33c-0.21,0-0.42,0.06-0.62,0.16c-0.23,0.13-0.34,0.3-0.34,0.51c0,0.14,0.07,0.25,0.21,0.33
			c0.19,0.12,0.29,0.27,0.31,0.43c-0.02,0.11-0.09,0.21-0.2,0.31c-0.08,0.08-0.21,0.12-0.39,0.12c-0.2,0-0.34-0.07-0.41-0.21
			c-0.11-0.14-0.16-0.32-0.16-0.54c0-0.3,0.08-0.59,0.24-0.87c0.16-0.27,0.37-0.48,0.63-0.62c0.25-0.14,0.58-0.21,0.99-0.21
			c0.4,0,0.75,0.08,1.06,0.25c0.52,0.34,0.78,0.87,0.78,1.58c0,0.5-0.15,0.94-0.45,1.31c-0.26,0.32-0.58,0.51-0.95,0.56
			C42.84,143.34,43.23,143.52,43.48,143.81L43.48,143.81z"/>
		<path class="st0" d="M48.88,143.45c0.13,0.4,0.2,0.82,0.2,1.26c0,0.6-0.09,1.12-0.28,1.57c-0.19,0.44-0.44,0.77-0.74,0.99
			c-0.31,0.16-0.64,0.24-0.98,0.24c-0.52,0-0.95-0.12-1.31-0.35c-0.39-0.27-0.64-0.64-0.73-1.12c0-0.23,0.05-0.43,0.14-0.59
			c0.12-0.19,0.3-0.29,0.52-0.29c0.12,0,0.26,0.05,0.4,0.14c0.08,0.08,0.13,0.19,0.15,0.32c-0.01,0.12-0.08,0.27-0.2,0.46
			c-0.1,0.19-0.15,0.32-0.15,0.39c0,0.11,0.09,0.22,0.27,0.33c0.21,0.1,0.42,0.15,0.63,0.15c0.36,0.01,0.63-0.18,0.82-0.58
			c0.21-0.43,0.31-0.97,0.3-1.62c-0.01-0.63-0.09-1.1-0.26-1.42c-0.16-0.32-0.4-0.48-0.73-0.48c-0.22,0-0.43,0.1-0.64,0.3
			c-0.19,0.18-0.31,0.39-0.38,0.63h-0.53l0.04-4.07h3.24l-0.15,0.86h-2.6V143c0.33-0.47,0.76-0.7,1.28-0.7
			c0.32,0,0.64,0.08,0.95,0.25C48.44,142.77,48.69,143.07,48.88,143.45L48.88,143.45z"/>
	</g>
</g>
<g>
	<g>
		<path class="st0" d="M61.6,143.81c0.27,0.32,0.41,0.77,0.41,1.33c0,0.41-0.1,0.82-0.3,1.24c-0.19,0.41-0.44,0.7-0.73,0.9
			c-0.32,0.15-0.64,0.23-0.98,0.23c-0.32,0-0.64-0.06-0.95-0.19c-0.34-0.14-0.61-0.38-0.82-0.71c-0.16-0.26-0.25-0.56-0.25-0.9
			c0-0.27,0.07-0.49,0.21-0.66c0.1-0.13,0.24-0.2,0.41-0.2c0.16,0,0.3,0.05,0.41,0.14c0.11,0.12,0.17,0.24,0.18,0.35
			c-0.01,0.14-0.1,0.29-0.25,0.43c-0.15,0.14-0.23,0.26-0.23,0.36c0,0.22,0.11,0.42,0.34,0.59c0.21,0.15,0.42,0.23,0.64,0.24
			c0.38-0.02,0.67-0.18,0.86-0.47c0.23-0.36,0.35-0.8,0.34-1.31c-0.01-0.58-0.1-1-0.28-1.24c-0.16-0.24-0.45-0.36-0.87-0.36h-0.36
			v-0.56h0.36c0.3,0,0.54-0.14,0.74-0.41c0.18-0.25,0.27-0.65,0.28-1.21c0.01-0.36-0.08-0.67-0.27-0.93
			c-0.16-0.22-0.41-0.33-0.74-0.33c-0.21,0-0.42,0.06-0.62,0.16c-0.23,0.13-0.34,0.3-0.34,0.51c0,0.14,0.07,0.25,0.21,0.33
			c0.19,0.12,0.29,0.27,0.31,0.43c-0.02,0.11-0.09,0.21-0.2,0.31c-0.08,0.08-0.21,0.12-0.39,0.12c-0.2,0-0.34-0.07-0.41-0.21
			c-0.11-0.14-0.16-0.32-0.16-0.54c0-0.3,0.08-0.59,0.24-0.87c0.16-0.27,0.37-0.48,0.63-0.62c0.25-0.14,0.58-0.21,0.99-0.21
			c0.4,0,0.75,0.08,1.06,0.25c0.52,0.34,0.78,0.87,0.78,1.58c0,0.5-0.15,0.94-0.45,1.31c-0.26,0.32-0.58,0.51-0.95,0.56
			C60.96,143.34,61.35,143.52,61.6,143.81L61.6,143.81z"/>
		<path class="st0" d="M67.04,143.5c0.13,0.34,0.2,0.72,0.2,1.13c0,0.65-0.08,1.22-0.24,1.72c-0.15,0.35-0.41,0.65-0.78,0.91
			c-0.23,0.16-0.49,0.24-0.78,0.24c-0.51,0-0.92-0.15-1.23-0.44c-0.28-0.27-0.5-0.71-0.66-1.34c-0.14-0.57-0.21-1.28-0.21-2.14
			c0-0.87,0.08-1.66,0.25-2.35c0.12-0.45,0.31-0.82,0.59-1.11c0.33-0.35,0.71-0.53,1.13-0.53c0.45,0,0.82,0.14,1.11,0.41
			c0.35,0.32,0.53,0.69,0.53,1.11c0,0.16-0.04,0.31-0.13,0.45c-0.1,0.13-0.23,0.2-0.39,0.2c-0.36,0-0.55-0.18-0.55-0.54
			c0-0.14,0.04-0.29,0.13-0.44c0.05-0.1,0.1-0.2,0.12-0.28c-0.02-0.11-0.09-0.2-0.21-0.26c-0.17-0.07-0.34-0.1-0.52-0.1
			c-0.24,0-0.44,0.09-0.6,0.28c-0.16,0.19-0.26,0.5-0.32,0.95c-0.08,0.65-0.12,1.19-0.12,1.62c0.1-0.08,0.18-0.14,0.24-0.19
			c0.34-0.22,0.67-0.33,1-0.33C66.21,142.47,66.68,142.82,67.04,143.5L67.04,143.5z M65.99,146.1c0.09-0.47,0.13-0.89,0.13-1.26l0,0
			c0-0.43-0.04-0.79-0.13-1.09c-0.16-0.51-0.39-0.76-0.7-0.76c-0.28,0-0.57,0.15-0.88,0.46l-0.04,0.04c0,0.79,0.03,1.46,0.09,2
			c0.05,0.47,0.17,0.86,0.35,1.16c0.12,0.21,0.27,0.32,0.46,0.33c0.14,0.01,0.27-0.05,0.39-0.19
			C65.82,146.65,65.92,146.42,65.99,146.1L65.99,146.1z"/>
	</g>
</g>
<g>
	<g>
		<path class="st0" d="M25.18,68.58h-3.02v-0.41h0.41c0.4,0,0.6-0.12,0.6-0.35v-5.65C23.15,62.06,23.08,62,22.95,62H22.2v-0.41
			c0.43-0.02,0.76-0.09,1-0.2c0.16-0.08,0.35-0.25,0.56-0.49h0.44v6.92c0,0.23,0.2,0.35,0.59,0.35h0.39V68.58z"/>
		<path class="st0" d="M30.64,65c0.27,0.32,0.41,0.77,0.41,1.33c0,0.41-0.1,0.82-0.3,1.24c-0.19,0.41-0.44,0.7-0.73,0.9
			c-0.32,0.15-0.64,0.23-0.98,0.23c-0.32,0-0.64-0.06-0.95-0.19c-0.34-0.14-0.61-0.38-0.82-0.71c-0.16-0.26-0.25-0.56-0.25-0.9
			c0-0.27,0.07-0.49,0.21-0.66c0.1-0.13,0.24-0.2,0.41-0.2c0.16,0,0.3,0.05,0.41,0.14c0.11,0.12,0.17,0.24,0.18,0.35
			c-0.01,0.14-0.1,0.29-0.25,0.43c-0.15,0.14-0.23,0.26-0.23,0.36c0,0.22,0.11,0.42,0.34,0.59c0.21,0.15,0.42,0.23,0.64,0.24
			c0.38-0.02,0.67-0.18,0.86-0.47c0.23-0.36,0.35-0.8,0.34-1.31c-0.01-0.58-0.1-1-0.28-1.24c-0.17-0.24-0.45-0.36-0.87-0.36h-0.36
			v-0.56h0.36c0.3,0,0.54-0.14,0.74-0.41c0.18-0.25,0.27-0.65,0.28-1.21c0.01-0.36-0.08-0.67-0.27-0.93
			c-0.16-0.22-0.41-0.33-0.74-0.33c-0.21,0-0.42,0.06-0.62,0.16c-0.23,0.13-0.34,0.3-0.34,0.51c0,0.14,0.07,0.25,0.21,0.33
			c0.19,0.12,0.29,0.27,0.31,0.43c-0.02,0.11-0.09,0.21-0.2,0.31c-0.08,0.08-0.21,0.12-0.39,0.12c-0.2,0-0.34-0.07-0.41-0.21
			c-0.11-0.14-0.16-0.32-0.16-0.54c0-0.3,0.08-0.59,0.24-0.87c0.16-0.27,0.37-0.48,0.63-0.62c0.25-0.14,0.58-0.21,0.99-0.21
			c0.4,0,0.75,0.08,1.06,0.25c0.52,0.34,0.78,0.87,0.78,1.58c0,0.5-0.15,0.94-0.45,1.31c-0.26,0.32-0.58,0.51-0.95,0.56
			C30,64.53,30.38,64.7,30.64,65L30.64,65z"/>
	</g>
</g>
<g>
	<g>
		<path class="st0" d="M43.3,68.58h-3.02v-0.41h0.41c0.4,0,0.6-0.12,0.6-0.35v-5.65C41.27,62.06,41.2,62,41.07,62h-0.75v-0.41
			c0.43-0.02,0.76-0.09,1-0.2c0.16-0.08,0.35-0.25,0.56-0.49h0.44v6.92c0,0.23,0.2,0.35,0.59,0.35h0.39V68.58z"/>
		<path class="st0" d="M49.37,66.95h-0.92v0.97c0,0.16,0.09,0.25,0.28,0.27h0.45v0.39h-2.69v-0.39h0.61
			c0.21-0.02,0.31-0.11,0.31-0.27v-0.97h-2.44v-0.43l2.93-5.61h0.56v5.65h0.92V66.95z M47.41,66.56v-3.77l-1.93,3.77H47.41z"/>
	</g>
</g>
<g>
	<g>
		<path class="st0" d="M61.41,68.58h-3.02v-0.41h0.41c0.4,0,0.6-0.12,0.6-0.35v-5.65C59.39,62.06,59.32,62,59.19,62h-0.75v-0.41
			c0.43-0.02,0.76-0.09,1-0.2c0.16-0.08,0.35-0.25,0.56-0.49h0.44v6.92c0,0.23,0.2,0.35,0.59,0.35h0.39V68.58z"/>
		<path class="st0" d="M67,64.64c0.13,0.4,0.2,0.82,0.2,1.26c0,0.6-0.09,1.12-0.28,1.57c-0.19,0.44-0.44,0.77-0.74,0.99
			c-0.31,0.16-0.64,0.24-0.98,0.24c-0.52,0-0.95-0.12-1.31-0.35c-0.39-0.27-0.64-0.64-0.73-1.12c0-0.23,0.05-0.43,0.14-0.59
			c0.12-0.19,0.3-0.29,0.52-0.29c0.12,0,0.26,0.05,0.4,0.14c0.08,0.08,0.13,0.19,0.15,0.32c-0.01,0.12-0.08,0.27-0.2,0.46
			c-0.1,0.19-0.15,0.32-0.15,0.39c0,0.11,0.09,0.22,0.27,0.33c0.21,0.1,0.42,0.15,0.63,0.15c0.36,0.01,0.63-0.18,0.82-0.58
			c0.21-0.43,0.31-0.97,0.3-1.62c-0.01-0.63-0.09-1.1-0.26-1.42c-0.16-0.32-0.4-0.48-0.73-0.48c-0.22,0-0.43,0.1-0.64,0.3
			c-0.19,0.18-0.31,0.39-0.38,0.63h-0.53l0.04-4.07h3.24l-0.15,0.86h-2.6v2.43c0.33-0.47,0.76-0.7,1.28-0.7
			c0.32,0,0.64,0.08,0.95,0.25C66.56,63.96,66.81,64.26,67,64.64L67,64.64z"/>
	</g>
</g>
<rect x="17.35" y="149.47" class="st3" width="18.12" height="8.53"/>
<rect x="35.47" y="149.47" class="st3" width="18.12" height="8.53"/>
<rect x="53.59" y="149.47" class="st3" width="18.12" height="8.53"/>
<rect x="-9.43" y="122.69" transform="matrix(6.123234e-17 -1 1 6.123234e-17 -113.8667 140.0403)" class="st3" width="45.03" height="8.53"/>
<rect x="-9.43" y="77.65" transform="matrix(6.123234e-17 -1 1 6.123234e-17 -68.8319 95.0055)" class="st3" width="45.03" height="8.53"/>
<rect x="-9.43" y="32.62" transform="matrix(6.123234e-17 -1 1 6.123234e-17 -23.7971 49.9707)" class="st3" width="45.03" height="8.53"/>
<rect x="-6.7" y="21.36" transform="matrix(6.123234e-17 -1 1 6.123234e-17 -21.0704 30.18)" class="st3" width="22.52" height="8.53"/>
<rect x="-6.7" y="43.88" transform="matrix(6.123234e-17 -1 1 6.123234e-17 -43.5878 52.6974)" class="st3" width="22.52" height="8.53"/>
<rect x="-6.7" y="66.39" transform="matrix(6.123234e-17 -1 1 6.123234e-17 -66.1052 75.2149)" class="st3" width="22.52" height="8.53"/>
<rect x="-6.7" y="88.91" transform="matrix(6.123234e-17 -1 1 6.123234e-17 -88.6227 97.7322)" class="st3" width="22.52" height="8.53"/>
<rect x="-6.7" y="111.43" transform="matrix(6.123234e-17 -1 1 6.123234e-17 -111.14 120.2496)" class="st3" width="22.52" height="8.53"/>
<rect x="-6.7" y="133.95" transform="matrix(6.123234e-17 -1 1 6.123234e-17 -133.6574 142.767)" class="st3" width="22.52" height="8.53"/>
<path class="st4" d="M52.89,7.42c0,2.87-3.74,5.19-8.36,5.19c-4.62,0-8.36-2.32-8.36-5.19s3.74-5.19,8.36-5.19
	C49.15,2.23,52.89,4.55,52.89,7.42z"/>
<polygon class="st5" points="7.14,70.66 4.55,62.57 1.97,70.66 4.55,78.75 "/>
<polygon class="st6" points="7.14,93.18 4.55,85.09 1.97,93.18 4.55,101.27 "/>
</svg>
