<?xml version="1.0" encoding="utf-8"?>
<!-- Generator: Adobe Illustrator 28.3.0, SVG Export Plug-In . SVG Version: 6.00 Build 0)  -->
<svg version="1.1" id="Calque_1" xmlns="http://www.w3.org/2000/svg" xmlns:xlink="http://www.w3.org/1999/xlink" x="0px" y="0px"
	 viewBox="0 0 179 113" style="enable-background:new 0 0 179 113;" xml:space="preserve">
<style type="text/css">
	.st0{fill-rule:evenodd;clip-rule:evenodd;fill:#020203;}
	.st1{fill-rule:evenodd;clip-rule:evenodd;fill:#1C1B1B;}
	.st2{fill-rule:evenodd;clip-rule:evenodd;fill:#302F2D;}
	.st3{fill-rule:evenodd;clip-rule:evenodd;fill:#3C3C3A;}
	.st4{fill-rule:evenodd;clip-rule:evenodd;fill:#434240;}
	.st5{fill-rule:evenodd;clip-rule:evenodd;fill:#414142;}
	.st6{fill-rule:evenodd;clip-rule:evenodd;fill:url(#SVGID_1_);}
	.st7{fill:#F7BF14;}
	.st8{fill-rule:evenodd;clip-rule:evenodd;fill:#F7BF14;}
</style>
<g>
	<path class="st0" d="M174.25,29.58v0.01v-0.11C174.25,29.52,174.25,29.55,174.25,29.58v-0.27v-0.06
		c-0.42-9.81-3.94-17.25-10.44-22.12c-11.55-8.64-30.26-7.67-48.74-5.33l-0.05,0.01c-6.08,0.84-7.17,5.28-7.69,7.41
		c-0.11,0.45-0.27,1.07-0.41,1.4c-14.03,2.91-21.09,2.91-35.12,0c-0.14-0.33-0.3-0.95-0.41-1.4c-0.52-2.13-1.62-6.57-7.69-7.41
		C45.16-0.55,26.46-1.52,14.91,7.12C8.4,11.99,4.89,19.43,4.47,29.24v0.06v0.29c0,2.86-4.49,8.47-4.49,8.47
		C4.64,79.15,42.89,113,89.23,113c45.6,0,86.23-34.38,89.77-74.94C179,38.06,174.35,32.43,174.25,29.58L174.25,29.58z M89.23,103.52
		c-44.75,0-81.04-33.18-81.04-73.92v-0.22C9.44,0.42,38.52,1.98,63.13,5.1c6.46,0.89,2.98,7.57,7.46,8.68
		c14.92,3.12,22.62,3.12,37.54,0c4.47-1.11,0.99-7.79,7.46-8.68c24.61-3.12,53.7-4.68,54.94,24.27v0.22
		C172.02,70.34,134.23,103.52,89.23,103.52L89.23,103.52z"/>
	<path class="st0" d="M170.55,30.76c0.73,40.21-36.75,72.75-81.32,72.75c-44.32,0-80.34-32.54-81.03-72.75H4.27
		c-0.85,2.99-4.3,7.3-4.3,7.3C4.64,79.15,42.89,113,89.23,113c45.6,0,86.23-34.38,89.77-74.94c0,0-3.55-4.31-4.51-7.3
		C174.49,30.76,170.55,30.76,170.55,30.76z"/>
	<g>
		<path class="st0" d="M1.05,38.34l0.14,1.2C3.87,59.3,14.38,77.62,30.8,91.12C47.18,104.59,67.94,112,89.23,112
			c21.76,0,43.07-7.82,60.02-22.03c16.33-13.69,26.47-31.59,28.57-50.42l0.13-1.17l-5.92-8l-0.78,7.7
			c-1.46,15-8.11,29.02-19.21,40.57c-15.81,16.44-38.7,25.87-62.81,25.87c-21.88,0-42.47-7.79-57.97-21.94
			C17.91,70.39,9.77,54.95,7.71,37.94L6.78,30.3L1.05,38.34z"/>
		<path class="st1" d="M6.37,31.9c-0.04,0.06-0.62,0.87-0.65,0.92c0.07,0.52-3.88,6.71-3.76,7.21c0.02,0.07,0.15,1.1,0.16,1.17
			C5.18,60.52,15.8,78.24,31.91,91.22c16.05,12.95,36.35,20.18,57.32,20.18c21.62,0,42.8-7.77,59.63-21.89
			c15.75-13.2,25.67-30.35,28.08-48.43c0.01-0.06,0.13-1.06,0.15-1.12c0.11-0.47-3.94-6.52-3.89-6.99
			c-0.04-0.05-0.69-0.93-0.74-0.99c-0.04,0.46-0.73,7.07-0.83,7.52c-1.7,14.6-8.32,28.28-19.17,39.56
			c-15.92,16.55-38.97,26.05-63.24,26.05c-22.03,0-42.76-7.85-58.37-22.1C17.78,71.07,9.66,55.98,7.35,39.39
			C7.25,38.94,6.43,32.36,6.37,31.9z"/>
		<path class="st2" d="M5.97,33.5c-0.08,0.12-0.56,0.79-0.64,0.9c0.14,1.04-2.7,6.32-2.45,7.32c0.03,0.14,0.15,1,0.19,1.14
			c3.45,18.88,14.18,36.01,29.96,48.48c15.72,12.42,35.57,19.47,56.21,19.47c21.48,0,42.52-7.72,59.25-21.75
			c15.17-12.72,24.87-29.1,27.59-46.43c0.03-0.12,0.14-0.95,0.16-1.07c0.21-0.93-2.73-6.06-2.62-7.01
			c-0.08-0.11-0.62-0.84-0.71-0.96c-0.09,0.92-0.69,6.44-0.88,7.34c-1.94,14.2-8.53,27.53-19.13,38.56
			c-16.04,16.67-39.24,26.23-63.67,26.23c-22.18,0-43.05-7.9-58.78-22.25C17.64,71.75,9.54,57.01,6.99,40.84
			C6.79,39.93,6.08,34.42,5.97,33.5z"/>
		<path class="st3" d="M5.56,35.1c-0.12,0.18-0.51,0.72-0.63,0.88c0.21,1.55-1.52,5.93-1.15,7.43c0.05,0.21,0.16,0.9,0.21,1.1
			c3.84,18.44,14.67,34.97,30.14,46.93c15.39,11.9,34.79,18.77,55.1,18.77c21.34,0,42.25-7.67,58.87-21.61
			c14.59-12.23,24.07-27.86,27.09-44.44c0.04-0.19,0.14-0.84,0.18-1.03c0.32-1.4-1.51-5.61-1.35-7.03
			c-0.12-0.16-0.55-0.74-0.68-0.92c-0.13,1.37-0.65,5.82-0.92,7.17c-2.17,13.81-8.73,26.78-19.09,37.55
			c-16.15,16.79-39.51,26.41-64.1,26.41c-22.33,0-43.35-7.96-59.18-22.41C17.5,72.44,9.43,58.03,6.63,42.28
			C6.33,40.92,5.73,36.49,5.56,35.1z"/>
		<path class="st4" d="M5.15,36.7c-0.16,0.24-0.46,0.65-0.61,0.86c0.28,2.07-0.34,5.53,0.15,7.54c0.07,0.28,0.17,0.79,0.24,1.07
			c4.23,18,15.16,33.94,30.31,45.38c15.07,11.38,34,18.06,53.99,18.06c21.2,0,41.97-7.63,58.49-21.47
			c14.01-11.75,23.27-26.62,26.6-42.45c0.06-0.25,0.14-0.73,0.2-0.98c0.42-1.87-0.29-5.15-0.08-7.05c-0.16-0.22-0.48-0.65-0.66-0.89
			c-0.18,1.83-0.61,5.19-0.97,6.99c-2.41,13.41-8.94,26.04-19.05,36.54c-16.26,16.9-39.78,26.6-64.53,26.6
			c-22.48,0-43.64-8.01-59.58-22.57C17.37,73.12,9.32,59.06,6.27,43.73C5.87,41.92,5.38,38.55,5.15,36.7z"/>
		<path class="st5" d="M4.15,39.14c5.32,39.27,42.44,69.87,85.09,69.87c21.06,0,41.7-7.58,58.1-21.33
			c15.78-13.23,25.51-30.4,27.52-48.46c-0.2-0.27-0.41-0.55-0.63-0.85c-1.52,15.52-8.47,30.33-20.03,42.35
			c-16.37,17.02-40.05,26.78-64.96,26.78c-22.63,0-43.93-8.07-59.98-22.72C15.4,72.14,6.87,55.86,4.74,38.3
			C4.54,38.6,4.34,38.88,4.15,39.14z"/>
	</g>
	
		<radialGradient id="SVGID_1_" cx="779.2166" cy="-344.5281" r="191.9865" gradientTransform="matrix(0.351 0 0 -0.3518 -184.1237 -67.7092)" gradientUnits="userSpaceOnUse">
		<stop  offset="0" style="stop-color:#C41718"/>
		<stop  offset="1" style="stop-color:#811810"/>
	</radialGradient>
	<path class="st6" d="M8.19,29.37C9.44,0.42,38.52,1.98,63.13,5.1c6.46,0.89,2.98,7.57,7.46,8.68c14.92,3.12,22.62,3.12,37.54,0
		c4.47-1.11,0.99-7.79,7.46-8.68c24.61-3.12,53.7-4.68,54.94,24.27v0.22c1.49,40.75-36.29,73.92-81.29,73.92
		c-44.75,0-81.04-33.18-81.04-73.92L8.19,29.37L8.19,29.37z"/>
	<g>
		<path class="st7" d="M129.63,19.89L129.63,19.89c0.01,8.77-4.57,18.62-12.24,26.36c-8.33,8.4-18.82,13.03-29.52,13.03l-0.06-0.01
			c-3.09,0.01-6.22-0.39-9.31-1.16c-2.94-0.74-5.84-1.83-8.6-3.23c-13.85-7.04-23.64-21.44-23.8-35.02
			c-0.02-2.03-1.69-3.66-3.71-3.64c-0.98,0.01-1.9,0.41-2.58,1.11c-0.69,0.7-1.06,1.63-1.04,2.61c0.2,16.21,11.65,33.28,27.83,41.52
			c3.27,1.66,6.67,2.94,10.13,3.81c3.62,0.91,7.35,1.37,11.09,1.38l0.06,0.01c12.68-0.01,25.02-5.41,34.74-15.21
			c9-9.08,14.38-20.87,14.38-31.55c0.01-2.04-1.64-3.69-3.67-3.69C131.29,16.19,129.63,17.85,129.63,19.89z M117.65,46.49
			c7.73-7.8,12.35-17.74,12.35-26.6h-0.01c0-1.84,1.5-3.34,3.33-3.34s3.33,1.5,3.33,3.34c-0.01,10.59-5.35,22.29-14.29,31.3
			c-9.65,9.73-21.9,15.09-34.49,15.09l-0.06,0.01c-3.72-0.02-7.42-0.48-11.01-1.38c-3.43-0.86-6.81-2.13-10.06-3.78
			C50.66,52.95,39.29,36.01,39.1,19.92c-0.01-0.89,0.33-1.73,0.94-2.36c0.62-0.64,1.45-0.99,2.34-1c1.83-0.02,3.34,1.45,3.36,3.29
			c0.17,13.7,10.04,28.23,24,35.33c2.79,1.42,5.71,2.52,8.68,3.26c3.11,0.78,6.27,1.18,9.39,1.18l0.06-0.01
			C98.68,59.62,109.25,54.96,117.65,46.49z"/>
	</g>
	<path class="st7" d="M135.45,29.54c-0.03,0.11-0.06,0.23-0.09,0.34l-3.25-1.19l-3.33-1.21c0.03-0.11,0.06-0.23,0.09-0.34l3.35,1.22
		L135.45,29.54L135.45,29.54z M127.59,45.38c-0.07,0.09-0.14,0.19-0.21,0.28l-2.45-2.06l-2.92-2.45c0.07-0.09,0.14-0.19,0.21-0.28
		l2.93,2.47L127.59,45.38L127.59,45.38z M114.58,57.91c-0.1,0.07-0.19,0.13-0.29,0.2l-1.43-2.48l0,0l-2.08-3.61
		c0.1-0.07,0.19-0.13,0.29-0.2l2.09,3.63l-0.15,0.09l0.15-0.09L114.58,57.91L114.58,57.91z M97.68,65.36
		c-0.11,0.03-0.23,0.05-0.34,0.08l-0.44-2.53l-0.77-4.38c0.11-0.03,0.23-0.05,0.34-0.08l0.77,4.4L97.68,65.36L97.68,65.36z
		 M79.03,65.59c-0.11-0.02-0.23-0.05-0.34-0.07L79.13,63l0.77-4.4c0.11,0.02,0.23,0.05,0.34,0.07l-0.77,4.39L79.03,65.59
		L79.03,65.59z M61.88,58.5c-0.1-0.06-0.2-0.13-0.29-0.19L63,55.87l2.1-3.64c0.1,0.07,0.19,0.13,0.29,0.2l-2.08,3.62L61.88,58.5
		L61.88,58.5z M48.56,46.01c-0.07-0.09-0.14-0.19-0.21-0.28l2.41-2.03l2.92-2.46c0.07,0.09,0.14,0.19,0.21,0.28l-2.91,2.44
		L48.56,46.01L48.56,46.01z M40.47,30.04c-0.03-0.11-0.07-0.23-0.1-0.34l3.22-1.18l3.35-1.22c0.03,0.11,0.06,0.23,0.09,0.34
		l-3.32,1.21L40.47,30.04L40.47,30.04z"/>
	<path class="st7" d="M82.51,44.83h0.25c0.11,0.06,0.25,0.09,0.4,0.09h2.88c0.15,0,0.29-0.03,0.41-0.09h0.25v1.14h-0.23
		c-0.12-0.28-0.29-0.48-0.51-0.6c-0.14-0.08-0.3-0.11-0.47-0.11h-0.42v3.53c0,0.1,0.02,0.18,0.06,0.23s0.13,0.1,0.25,0.13v0.23
		h-1.57v-0.23c0.12-0.04,0.2-0.08,0.25-0.13c0.04-0.05,0.06-0.12,0.06-0.23v-3.53h-0.35c-0.23,0-0.41,0.04-0.55,0.11
		c-0.22,0.11-0.38,0.31-0.49,0.61H82.5v-1.15H82.51z"/>
	<path class="st7" d="M87.02,44.94h1.57v0.23c-0.13,0.02-0.23,0.08-0.27,0.19c-0.03,0.06-0.04,0.13-0.04,0.23v3.13
		c0,0.1,0.01,0.18,0.03,0.23c0.05,0.11,0.14,0.17,0.28,0.19v0.23h-1.57v-0.23c0.13-0.01,0.21-0.07,0.26-0.16
		c0.03-0.07,0.05-0.15,0.05-0.25V45.6c0-0.11-0.01-0.19-0.04-0.25c-0.05-0.1-0.14-0.15-0.27-0.17L87.02,44.94L87.02,44.94z"/>
	<path class="st7" d="M89.09,44.94h3.12c0.1,0,0.17-0.01,0.2-0.02c0.03-0.01,0.06-0.04,0.09-0.1h0.16v1.13h-0.23
		c-0.08-0.28-0.2-0.47-0.37-0.56c-0.14-0.08-0.36-0.12-0.65-0.12h-1.05v1.6h0.7c0.18,0,0.32-0.03,0.41-0.09
		c0.09-0.06,0.14-0.16,0.14-0.32h0.23v1.14h-0.23c-0.01-0.14-0.05-0.23-0.12-0.3s-0.17-0.1-0.29-0.1h-0.83v1.82h1.51
		c0.25,0,0.46-0.08,0.63-0.23c0.17-0.15,0.28-0.34,0.32-0.56h0.23v1.12H89.1v-0.23c0.14-0.01,0.23-0.07,0.28-0.16
		c0.03-0.06,0.05-0.15,0.05-0.25v-3.13c0-0.11-0.02-0.2-0.04-0.25c-0.05-0.09-0.15-0.14-0.28-0.16v-0.23H89.09z"/>
	<path class="st7" d="M70.91,51.73l0.08-0.17c0.04,0.01,0.07,0.02,0.1,0.02c0.11,0,0.2-0.07,0.25-0.19l0.83-1.87
		c0.16-0.37,0.41-0.59,0.74-0.67c0.28-0.07,0.59-0.03,0.91,0.11c0.41,0.18,0.68,0.44,0.82,0.77c0.13,0.3,0.12,0.61-0.01,0.92
		c-0.13,0.29-0.3,0.5-0.53,0.65c-0.31,0.2-0.65,0.22-1.01,0.05c-0.12-0.05-0.22-0.11-0.31-0.18c-0.13-0.1-0.24-0.22-0.32-0.36
		l-0.39,0.88c-0.03,0.07-0.03,0.14-0.01,0.21s0.07,0.13,0.14,0.17l-0.08,0.17L70.91,51.73L70.91,51.73z M73.03,49.51l-0.36,0.81
		c-0.05,0.11-0.05,0.23,0.02,0.35c0.06,0.12,0.16,0.21,0.3,0.28c0.19,0.08,0.35,0.06,0.49-0.07c0.11-0.1,0.23-0.29,0.35-0.57
		c0.13-0.3,0.2-0.51,0.2-0.64c0.01-0.19-0.09-0.33-0.29-0.42c-0.13-0.06-0.26-0.07-0.39-0.04C73.22,49.25,73.1,49.35,73.03,49.51
		L73.03,49.51z"/>
	<path class="st7" d="M73.87,52.94c0.08,0,0.16-0.02,0.24-0.06c0.08-0.04,0.17-0.11,0.25-0.2l1.72-1.77
		c0.03-0.04,0.07-0.08,0.1-0.13s0.05-0.1,0.07-0.15c0.01-0.03,0-0.07-0.04-0.1s-0.09-0.06-0.16-0.08l0.06-0.18
		c0.16,0.05,0.3,0.07,0.44,0.05c0.09-0.01,0.18-0.05,0.27-0.1L77,50.29l0.36,3.15c0.03,0.24,0.06,0.42,0.11,0.55
		c0.04,0.1,0.08,0.18,0.14,0.24l-0.06,0.18l-1.41-0.49l0.06-0.18c0.08,0.03,0.16,0.02,0.23-0.02s0.12-0.1,0.14-0.17
		c0.01-0.02,0.01-0.04,0.01-0.08s0-0.07,0-0.09l-0.04-0.37l-1.57-0.54l-0.23,0.25c-0.02,0.02-0.04,0.05-0.07,0.09
		s-0.05,0.07-0.06,0.1c-0.02,0.06-0.02,0.12,0.01,0.18s0.1,0.12,0.22,0.18l-0.06,0.18l-0.97-0.33L73.87,52.94L73.87,52.94z
		 M76.29,51.1l-1.1,1.14l-0.01,0.01l1.29,0.44l-0.16-1.59L76.29,51.1L76.29,51.1z"/>
	<path class="st7" d="M78.43,50.88l1.52,0.38l-0.05,0.18c-0.07-0.02-0.13-0.02-0.18-0.01c-0.05,0.01-0.08,0.04-0.09,0.09
		c-0.01,0.03-0.01,0.06,0,0.08c0,0.02,0.01,0.06,0.03,0.1l0.52,1.16l0.09,0.02l0.86-0.82c0.07-0.06,0.1-0.1,0.11-0.12
		c0.01-0.06,0-0.11-0.05-0.15s-0.11-0.07-0.2-0.09l0.05-0.18l0.95,0.24l-0.05,0.18c-0.16,0-0.29,0.06-0.42,0.16l-1.34,1.15
		l-0.31,1.25c-0.02,0.1-0.02,0.17,0.01,0.22c0.02,0.03,0.05,0.06,0.1,0.09l0.06,0.04L80,55.04l-1.27-0.32l0.05-0.18
		c0.08,0.01,0.15,0,0.21-0.04c0.07-0.04,0.11-0.1,0.13-0.18l0.31-1.25l-0.72-1.6c-0.05-0.12-0.1-0.21-0.15-0.27s-0.1-0.1-0.17-0.13
		L78.43,50.88L78.43,50.88z"/>
	<path class="st7" d="M84.28,52.24l-0.13,0.84l-0.2-0.03c-0.02-0.27-0.12-0.48-0.28-0.63c-0.13-0.12-0.29-0.19-0.49-0.22
		c-0.18-0.03-0.33,0-0.45,0.09c-0.1,0.08-0.17,0.18-0.19,0.31c-0.02,0.15,0.03,0.29,0.18,0.42c0.08,0.07,0.19,0.15,0.33,0.22
		c0.42,0.23,0.7,0.42,0.84,0.57c0.23,0.24,0.32,0.53,0.27,0.87c-0.05,0.33-0.21,0.59-0.49,0.77c-0.27,0.19-0.6,0.25-0.98,0.19
		c-0.13-0.02-0.24-0.05-0.35-0.09c-0.04-0.01-0.12-0.05-0.23-0.1s-0.17-0.08-0.17-0.08c-0.04-0.02-0.09-0.03-0.13-0.04
		c-0.04-0.01-0.08,0-0.11,0.01s-0.05,0.04-0.07,0.06l-0.01,0.01l-0.16-0.03l0.09-0.91l0.2,0.03c0.06,0.22,0.18,0.4,0.35,0.56
		s0.36,0.25,0.56,0.28c0.25,0.04,0.46,0,0.63-0.13c0.14-0.11,0.23-0.24,0.25-0.4s-0.03-0.3-0.18-0.42c-0.07-0.06-0.23-0.17-0.47-0.3
		c-0.3-0.17-0.5-0.31-0.62-0.44c-0.25-0.25-0.34-0.55-0.29-0.88c0.05-0.3,0.19-0.53,0.43-0.69c0.24-0.17,0.5-0.23,0.8-0.18
		c0.17,0.03,0.32,0.08,0.45,0.16c0.01,0.01,0.07,0.05,0.17,0.13c0.05,0.04,0.09,0.06,0.13,0.06c0.04,0.01,0.07,0,0.1-0.01
		s0.05-0.03,0.07-0.05L84.28,52.24L84.28,52.24z"/>
	<path class="st7" d="M87.18,55.98l-0.13-0.21c0.26-0.15,0.47-0.35,0.63-0.61c0.17-0.25,0.25-0.52,0.26-0.8h-0.02
		c-0.06,0.04-0.13,0.08-0.23,0.11c-0.09,0.03-0.19,0.05-0.3,0.04c-0.26-0.01-0.49-0.09-0.67-0.25c-0.24-0.21-0.35-0.51-0.34-0.91
		c0.01-0.39,0.14-0.68,0.39-0.87c0.22-0.18,0.52-0.26,0.88-0.25c0.37,0.01,0.66,0.13,0.87,0.35c0.23,0.25,0.34,0.62,0.33,1.1
		c-0.01,0.37-0.09,0.7-0.23,0.99c-0.14,0.29-0.34,0.56-0.6,0.8c-0.1,0.09-0.24,0.19-0.41,0.29C87.45,55.86,87.3,55.93,87.18,55.98
		L87.18,55.98z M87.58,54.16c0.2,0.01,0.33-0.07,0.39-0.25c0.03-0.1,0.06-0.29,0.07-0.58c0.01-0.31,0-0.51-0.02-0.59
		c-0.05-0.17-0.18-0.26-0.38-0.27c-0.2-0.01-0.33,0.07-0.39,0.24c-0.03,0.09-0.06,0.29-0.07,0.59s0,0.5,0.02,0.59
		C87.25,54.06,87.37,54.15,87.58,54.16L87.58,54.16z"/>
	<path class="st7" d="M90.6,52.18l2.56-0.32c0.08-0.01,0.14-0.02,0.16-0.03c0.03-0.01,0.05-0.04,0.06-0.09l0.13-0.02l0.11,0.93
		l-0.19,0.02c-0.09-0.22-0.21-0.36-0.36-0.42c-0.12-0.05-0.3-0.06-0.54-0.03l-0.86,0.11l0.16,1.31l0.57-0.07
		c0.15-0.02,0.26-0.06,0.32-0.11c0.07-0.06,0.09-0.15,0.08-0.27l0.2-0.04l0.12,0.93l-0.19,0.02c-0.02-0.11-0.07-0.19-0.13-0.23
		c-0.06-0.05-0.15-0.06-0.25-0.05l-0.68,0.08l0.15,1.24l0.01,0.08c0.01,0.07,0.03,0.12,0.06,0.15c0.03,0.03,0.11,0.06,0.22,0.09
		l0.02,0.19l-1.29,0.16l-0.02-0.19c0.11-0.02,0.18-0.08,0.21-0.16c0.02-0.05,0.03-0.13,0.02-0.21l-0.31-2.57
		c-0.01-0.09-0.03-0.16-0.06-0.2c-0.05-0.07-0.13-0.1-0.25-0.11L90.6,52.18L90.6,52.18z"/>
	<path class="st7" d="M95.18,51.38c0.53-0.12,1.02-0.03,1.45,0.27c0.4,0.29,0.66,0.67,0.77,1.16c0.12,0.54,0.04,1.02-0.24,1.45
		c-0.27,0.41-0.65,0.68-1.13,0.79c-0.49,0.11-0.94,0.04-1.36-0.21c-0.44-0.27-0.73-0.67-0.85-1.2c-0.11-0.49-0.05-0.95,0.18-1.38
		C94.25,51.8,94.65,51.5,95.18,51.38L95.18,51.38z M95.25,51.65c-0.3,0.07-0.51,0.21-0.61,0.43c-0.13,0.28-0.12,0.74,0.02,1.37
		c0.13,0.58,0.31,0.97,0.52,1.17c0.2,0.19,0.46,0.24,0.79,0.17c0.33-0.08,0.54-0.24,0.64-0.49c0.1-0.28,0.09-0.71-0.05-1.29
		c-0.14-0.63-0.34-1.04-0.58-1.24C95.8,51.62,95.55,51.58,95.25,51.65L95.25,51.65z"/>
	<path class="st7" d="M97.05,50.89l1.45-0.5c0.34-0.12,0.63-0.17,0.85-0.17c0.42,0.01,0.7,0.22,0.84,0.62
		c0.08,0.24,0.08,0.47-0.02,0.68c-0.07,0.16-0.18,0.3-0.32,0.42L99.86,52l1.11,0.93c0.07,0.06,0.14,0.1,0.21,0.12
		s0.14,0.03,0.23,0.01l0.06,0.18l-0.95,0.33l-1.31-1.11c-0.08-0.07-0.16-0.11-0.22-0.11c-0.07-0.01-0.17,0.01-0.31,0.06l0.38,1.1
		c0.04,0.11,0.07,0.17,0.09,0.19c0.05,0.04,0.13,0.06,0.26,0.05l0.06,0.18l-1.23,0.42l-0.06-0.18l0.06-0.04
		c0.05-0.03,0.08-0.07,0.09-0.1c0.03-0.07,0.02-0.16-0.01-0.27l-0.84-2.45c-0.04-0.11-0.09-0.18-0.15-0.22
		c-0.04-0.02-0.08-0.03-0.14-0.03h-0.07L97.05,50.89L97.05,50.89z M98.13,50.82l0.46,1.33L99.02,52c0.17-0.06,0.29-0.16,0.36-0.31
		s0.07-0.33,0-0.53c-0.1-0.28-0.25-0.45-0.47-0.5c-0.13-0.03-0.29-0.01-0.48,0.06L98.13,50.82L98.13,50.82z"/>
	<path class="st7" d="M102.49,48.67l0.46-0.22l1.37,2.81c0.04,0.08,0.07,0.13,0.11,0.16c0.07,0.06,0.16,0.07,0.27,0.04l0.08,0.17
		l-1.17,0.57l-0.08-0.17c0.09-0.05,0.14-0.13,0.14-0.22c0-0.06-0.02-0.13-0.05-0.21l-1.04-2.14l-0.03,0.02
		c-0.07,0.23-0.17,0.45-0.3,0.68l-0.13-0.26c0.1-0.17,0.18-0.36,0.25-0.59C102.44,49.08,102.48,48.87,102.49,48.67L102.49,48.67z"/>
	<path class="st7" d="M57.03,51.13l-0.57,0.46L55.2,50.5l0.1-0.12l0.29-0.06c0.04-0.01,0.1-0.02,0.18-0.04
		c0.15-0.04,0.24-0.06,0.26-0.07c0.46-0.12,0.8-0.24,1.03-0.34c0.2-0.09,0.34-0.18,0.43-0.28s0.13-0.2,0.12-0.3
		c-0.01-0.1-0.06-0.19-0.15-0.27c-0.07-0.06-0.15-0.1-0.23-0.11c-0.06-0.01-0.17-0.01-0.32,0l-0.04-0.2
		c0.21-0.05,0.39-0.06,0.57-0.03c0.19,0.03,0.36,0.11,0.51,0.25c0.18,0.16,0.29,0.35,0.3,0.56c0.02,0.19-0.04,0.36-0.16,0.5
		c-0.11,0.13-0.28,0.23-0.52,0.3c-0.2,0.06-0.44,0.1-0.74,0.13c-0.06,0-0.34,0.02-0.83,0.05l0-0.01l0.58,0.51
		c0.05,0.04,0.09,0.07,0.13,0.08c0.06,0.02,0.13,0.01,0.2-0.02L57.03,51.13L57.03,51.13z"/>
	<path class="st7" d="M70.85,58.28l-0.13-0.16c0.19-0.17,0.38-0.26,0.57-0.29c0.15-0.02,0.31,0,0.47,0.06s0.28,0.16,0.34,0.28
		c0.07,0.12,0.07,0.25,0.03,0.37c-0.05,0.13-0.15,0.24-0.31,0.33c-0.12,0.07-0.25,0.13-0.39,0.16l-0.01,0.03
		c0.02,0,0.05,0.01,0.08,0.03c0.17,0.06,0.28,0.17,0.35,0.31c0.07,0.14,0.07,0.31,0,0.5c-0.05,0.14-0.14,0.26-0.25,0.36
		c-0.15,0.13-0.34,0.23-0.59,0.29c-0.13,0.03-0.26,0.04-0.4,0.04c-0.21,0-0.4-0.04-0.58-0.11c-0.06-0.02-0.12-0.05-0.18-0.08
		l0.13-0.19c0.33,0.13,0.61,0.13,0.85,0c0.18-0.1,0.31-0.24,0.38-0.44c0.05-0.13,0.05-0.24,0.02-0.34c-0.04-0.1-0.11-0.16-0.21-0.2
		c-0.09-0.04-0.2-0.04-0.32-0.01l-0.03-0.2c0.25-0.05,0.44-0.11,0.57-0.17c0.21-0.09,0.34-0.21,0.4-0.36
		c0.02-0.06,0.03-0.12,0.02-0.17c-0.02-0.09-0.08-0.16-0.19-0.2c-0.07-0.03-0.15-0.04-0.23-0.02
		C71.11,58.11,70.99,58.17,70.85,58.28L70.85,58.28z"/>
	<path class="st7" d="M87.81,61.69h0.44v1.72c0.06,0,0.11-0.02,0.16-0.06s0.09-0.11,0.13-0.21h0.15l-0.17,0.83h-0.27v0.72h-0.63
		v-0.73H86.5v-0.3L87.81,61.69L87.81,61.69z M86.91,63.41h0.71V62.4h-0.03L86.91,63.41L86.91,63.41z"/>
	<path class="st7" d="M104.2,58.17l0.69-0.29l0.05-0.02c0.03-0.01,0.06-0.03,0.07-0.04c0.02-0.02,0.03-0.04,0.04-0.07l0.14-0.06
		l0.12,0.61l-0.8,0.34l0.1,0.55c0.13-0.15,0.28-0.26,0.46-0.34c0.21-0.09,0.41-0.11,0.59-0.07c0.23,0.05,0.4,0.21,0.51,0.46
		c0.14,0.33,0.13,0.65-0.02,0.96c-0.15,0.31-0.4,0.55-0.76,0.7c-0.07,0.03-0.14,0.05-0.19,0.07c-0.06,0.02-0.12,0.03-0.2,0.05
		l-0.02-0.2c0.32-0.14,0.52-0.34,0.6-0.61c0.06-0.22,0.04-0.46-0.06-0.7c-0.06-0.14-0.14-0.24-0.25-0.28
		c-0.11-0.05-0.21-0.05-0.32,0c-0.1,0.04-0.18,0.11-0.24,0.22l-0.29,0.01L104.2,58.17L104.2,58.17z"/>
	<path class="st7" d="M118.54,47.94l0.19,0.05c-0.06,0.23-0.06,0.46-0.01,0.7c0.05,0.25,0.15,0.46,0.31,0.62l0.01-0.01
		c0.01-0.05,0.03-0.11,0.06-0.18c0.04-0.08,0.09-0.15,0.15-0.21c0.16-0.15,0.33-0.23,0.53-0.24c0.26-0.02,0.49,0.09,0.71,0.33
		c0.21,0.23,0.3,0.47,0.27,0.72c-0.03,0.23-0.15,0.44-0.36,0.64c-0.22,0.21-0.45,0.3-0.7,0.3c-0.28-0.01-0.55-0.16-0.82-0.44
		c-0.2-0.22-0.35-0.45-0.43-0.7c-0.09-0.25-0.13-0.52-0.11-0.8c0-0.11,0.03-0.24,0.07-0.4S118.49,48.04,118.54,47.94L118.54,47.94z
		 M119.35,49.21c-0.12,0.11-0.15,0.23-0.08,0.37c0.03,0.07,0.13,0.2,0.29,0.37c0.17,0.18,0.29,0.29,0.35,0.33
		c0.13,0.07,0.25,0.05,0.37-0.07c0.12-0.11,0.15-0.23,0.09-0.36c-0.03-0.07-0.13-0.2-0.3-0.38c-0.17-0.18-0.28-0.29-0.35-0.32
		C119.59,49.08,119.47,49.1,119.35,49.21L119.35,49.21z"/>
	<path class="st7" d="M128.14,36.54l-0.72-0.48l0.81-1.4l0.14,0.08c0.14,0.15,0.34,0.38,0.61,0.66c0.29,0.32,0.54,0.58,0.75,0.79
		c0.28,0.29,0.49,0.5,0.66,0.64l-0.35,0.61c-0.22-0.19-0.47-0.51-0.77-0.97c-0.26-0.4-0.5-0.81-0.72-1.24l-0.42,0.73l-0.03,0.05
		c-0.04,0.06-0.05,0.12-0.05,0.16c0.01,0.08,0.07,0.15,0.18,0.23L128.14,36.54L128.14,36.54z"/>
	<path class="st7" d="M47.93,35.25l0.21,0.35l-2.16,1.3c-0.06,0.03-0.1,0.07-0.12,0.1c-0.04,0.06-0.05,0.14-0.01,0.22l-0.13,0.08
		l-0.54-0.9l0.13-0.08c0.05,0.07,0.11,0.1,0.18,0.1c0.05,0,0.1-0.02,0.16-0.06l1.65-0.99l-0.02-0.03c-0.19-0.04-0.38-0.11-0.57-0.19
		l0.2-0.12c0.14,0.07,0.3,0.12,0.49,0.16C47.61,35.24,47.78,35.26,47.93,35.25L47.93,35.25z"/>
	<path class="st7" d="M43.91,18.39l0.03,0.21c-0.03,0.1-0.04,0.22-0.02,0.34l0.39,2.35c0.02,0.12,0.06,0.23,0.13,0.32l0.03,0.2
		l-0.93,0.15l-0.03-0.19c0.21-0.14,0.35-0.3,0.42-0.5c0.04-0.13,0.05-0.26,0.03-0.4l-0.06-0.34L41.03,21
		c-0.08,0.01-0.14,0.04-0.18,0.08c-0.04,0.04-0.06,0.12-0.07,0.22l-0.19,0.03l-0.21-1.28l0.19-0.03c0.05,0.09,0.09,0.16,0.14,0.18
		c0.04,0.03,0.11,0.04,0.2,0.02l2.87-0.47l-0.05-0.29c-0.03-0.19-0.09-0.33-0.16-0.44c-0.12-0.17-0.31-0.27-0.56-0.31l-0.03-0.19
		L43.91,18.39L43.91,18.39z"/>
	<path class="st7" d="M44.44,22.09l0.21,1.28l-0.19,0.03c-0.04-0.11-0.1-0.17-0.19-0.2c-0.05-0.01-0.11-0.01-0.19,0l-2.55,0.42
		c-0.08,0.01-0.14,0.03-0.18,0.06c-0.08,0.05-0.12,0.14-0.12,0.25l-0.19,0.03l-0.21-1.28l0.19-0.03c0.03,0.1,0.08,0.17,0.17,0.19
		c0.06,0.02,0.13,0.02,0.21,0.01l2.55-0.42c0.08-0.01,0.15-0.04,0.19-0.07c0.07-0.05,0.11-0.14,0.1-0.24L44.44,22.09L44.44,22.09z"
		/>
	<path class="st7" d="M44.73,23.78l0.42,2.55c0.01,0.08,0.03,0.14,0.04,0.16c0.01,0.03,0.04,0.05,0.09,0.06l0.02,0.13l-0.92,0.15
		l-0.03-0.18c0.22-0.1,0.35-0.22,0.41-0.37c0.05-0.12,0.05-0.31,0.01-0.55l-0.14-0.86l-1.3,0.22l0.09,0.57
		c0.02,0.15,0.07,0.25,0.13,0.32s0.15,0.09,0.28,0.07l0.03,0.19l-0.92,0.15L42.9,26.2c0.11-0.03,0.18-0.08,0.23-0.14
		c0.04-0.07,0.06-0.15,0.04-0.25l-0.11-0.68l-1.48,0.25l0.2,1.24c0.03,0.2,0.12,0.36,0.27,0.48c0.15,0.12,0.31,0.18,0.5,0.18
		l0.03,0.19l-0.91,0.15l-0.53-3.24l0.19-0.03c0.03,0.11,0.09,0.18,0.17,0.2c0.06,0.02,0.13,0.02,0.21,0.01l2.55-0.42
		c0.09-0.02,0.16-0.04,0.2-0.07c0.07-0.05,0.1-0.14,0.1-0.25L44.73,23.78L44.73,23.78z"/>
	<path class="st7" d="M130.38,26.86l0.03-0.21c0.06-0.09,0.11-0.19,0.13-0.32l0.38-2.35c0.02-0.12,0.01-0.24-0.02-0.35l0.03-0.2
		l0.93,0.15l-0.03,0.19c-0.25,0.06-0.43,0.17-0.55,0.34c-0.08,0.11-0.13,0.23-0.16,0.37l-0.05,0.34l2.87,0.47
		c0.08,0.01,0.15,0.01,0.2-0.02s0.09-0.09,0.14-0.19l0.19,0.03l-0.21,1.28l-0.19-0.03c-0.02-0.1-0.04-0.18-0.07-0.22
		c-0.03-0.04-0.09-0.07-0.18-0.08l-2.87-0.47l-0.05,0.29c-0.03,0.19-0.02,0.34,0.02,0.47c0.06,0.2,0.2,0.36,0.43,0.48l-0.03,0.19
		L130.38,26.86L130.38,26.86z"/>
	<path class="st7" d="M131.06,23.19l0.21-1.28l0.19,0.03c0,0.11,0.04,0.2,0.12,0.25c0.05,0.03,0.11,0.05,0.18,0.06l2.55,0.41
		c0.08,0.01,0.15,0.01,0.19,0c0.09-0.02,0.16-0.09,0.19-0.2l0.19,0.03l-0.21,1.28l-0.19-0.03c0.01-0.1-0.03-0.18-0.1-0.24
		c-0.05-0.04-0.12-0.06-0.2-0.08l-2.55-0.41c-0.09-0.01-0.15-0.01-0.21,0c-0.09,0.03-0.14,0.09-0.17,0.2L131.06,23.19L131.06,23.19z
		"/>
	<path class="st7" d="M131.33,21.49l0.41-2.55c0.01-0.08,0.02-0.14,0.01-0.17c0-0.03-0.03-0.06-0.07-0.09l0.02-0.13l0.92,0.15
		l-0.03,0.19c-0.24,0.03-0.4,0.1-0.51,0.23c-0.08,0.1-0.14,0.27-0.18,0.52l-0.14,0.86l1.3,0.21l0.09-0.57
		c0.02-0.15,0.02-0.26-0.02-0.34c-0.03-0.08-0.12-0.13-0.24-0.15l0.03-0.19l0.93,0.15l-0.03,0.19c-0.11-0.01-0.2,0.01-0.26,0.06
		s-0.1,0.12-0.12,0.23l-0.11,0.68l1.48,0.24l0.2-1.24c0.03-0.2,0-0.38-0.1-0.55c-0.1-0.16-0.24-0.27-0.41-0.33l0.03-0.19l0.91,0.15
		l-0.52,3.24l-0.18-0.03c0.01-0.11-0.03-0.19-0.1-0.25c-0.05-0.04-0.11-0.06-0.2-0.08l-2.55-0.41c-0.09-0.01-0.16-0.01-0.21,0
		c-0.08,0.03-0.14,0.1-0.17,0.21L131.33,21.49L131.33,21.49z"/>
	<g>
		<path class="st7" d="M56.63,42.81l0.51,0.6l0.93,1.04l0.97,1.01l1,0.98l1.03,0.95l1.07,0.92l1.1,0.89l1.13,0.86l1.16,0.82
			l1.19,0.79l1.21,0.75l1.24,0.71l1.27,0.68l0.24,0.12l0.25,0.12l0.25,0.12l0.25,0.12l0.25,0.12l0.25,0.12l0.25,0.11l0.25,0.11
			l0.26,0.11L72.95,55l0.26,0.11l0.26,0.11l0.26,0.11l0.26,0.1l0.26,0.1l0.26,0.1l0.26,0.1l0.26,0.1l0.26,0.09L75.56,56l0.27,0.09
			l0.27,0.09l0.27,0.09l0.27,0.09l0.27,0.08l0.27,0.08l0.27,0.08l0.27,0.08l0.27,0.08l0.27,0.07l0.27,0.07l0.27,0.07l0.27,0.07
			l0.28,0.07l0.28,0.06l0.28,0.06l0.28,0.06l0.28,0.06l0.28,0.06l0.28,0.05l0.28,0.05l0.28,0.05l0.28,0.05l0.28,0.05l0.28,0.04
			l0.28,0.04l0.28,0.04l0.28,0.04l0.28,0.04l0.28,0.03l0.28,0.03l0.28,0.03l0.28,0.03L84.95,58l0.29,0.02l0.29,0.02l0.29,0.02
			l0.29,0.01l0.29,0.01l0.29,0.01l0.29,0.01l0.27,0.01l0.59-0.01h1.01h0.09l1.03-0.04L91,57.99l1.02-0.1l1.01-0.13l1.01-0.16l1-0.19
			L96,57.17l0.98-0.24l0.97-0.27l0.96-0.29l0.96-0.31l0.95-0.34l0.94-0.36l0.93-0.39l0.92-0.41l0.91-0.43l0.89-0.45l0.88-0.47
			l0.87-0.49l0.86-0.51l0.85-0.53l0.83-0.55l0.82-0.57l0.81-0.59l0.79-0.6l0.78-0.62l0.77-0.64l0.75-0.65l0.73-0.67l0.72-0.68
			l0.7-0.69l0.68-0.7l0.67-0.72l0.65-0.73l0.39-0.46C118.96,42.81,56.63,42.81,56.63,42.81z M118.2,43.17
			c-0.15,0.17-0.53,0.59-0.53,0.59L117,44.47l-0.68,0.7l-0.7,0.69l-0.71,0.68l-0.73,0.66l-0.74,0.65l-0.76,0.63l-0.77,0.62
			l-0.79,0.6l-0.8,0.58l-0.81,0.56l-0.83,0.55l-0.84,0.53l-0.85,0.51l-0.86,0.49l-0.88,0.47l-0.89,0.45l-0.9,0.43l-0.91,0.41
			l-0.92,0.38l-0.93,0.36l-0.94,0.34l-0.95,0.31l-0.96,0.29l-0.96,0.26l-0.97,0.24l-0.98,0.21l-0.99,0.19l-1,0.16l-1,0.13l-1.01,0.1
			l-1.02,0.07l-1.02,0.04h-0.09H87.8l-0.58,0.01l-0.26-0.01l-0.28-0.01l-0.28-0.01l-0.28-0.01l-0.28-0.01l-0.28-0.02l-0.28-0.02
			L85,57.66l-0.28-0.02l-0.28-0.03l-0.28-0.03l-0.28-0.03l-0.28-0.03l-0.28-0.03l-0.28-0.04l-0.28-0.04l-0.28-0.04l-0.28-0.04
			l-0.28-0.04l-0.28-0.05l-0.28-0.05l-0.28-0.05l-0.28-0.05L80.52,57l-0.27-0.06l-0.27-0.06l-0.27-0.06l-0.27-0.06l-0.27-0.06
			l-0.27-0.07l-0.27-0.07l-0.27-0.07l-0.27-0.07l-0.27-0.07l-0.27-0.08l-0.27-0.08L77,56.1l-0.27-0.08l-0.26-0.08l-0.26-0.09
			l-0.26-0.09l-0.26-0.09l-0.26-0.09l-0.26-0.09l-0.26-0.1l-0.26-0.1l-0.26-0.1l-0.26-0.1l-0.26-0.1l-0.26-0.1l-0.26-0.11
			l-0.25-0.11l-0.25-0.11l-0.25-0.11l-0.25-0.11l-0.25-0.11l-0.25-0.12l-0.25-0.12l-0.25-0.12l-0.25-0.12l-0.25-0.12l-0.24-0.12
			l-1.27-0.67l-1.23-0.71l-1.2-0.74l-1.18-0.78l-1.15-0.82l-1.12-0.85l-1.09-0.89l-1.06-0.92l-1.03-0.95l-0.99-0.97l-0.96-1
			l-0.93-1.03c0,0-0.01-0.02-0.02-0.02C58.13,43.17,117.44,43.17,118.2,43.17z"/>
		<path class="st7" d="M56.83,32.03v9.08h9.15v-9.08H56.83z M65.63,32.38c0,0.33,0,8.05,0,8.38c-0.33,0-8.12,0-8.45,0
			c0-0.33,0-8.05,0-8.38C57.51,32.38,65.3,32.38,65.63,32.38z"/>
		<path class="st7" d="M65.63,32.03v9.08h9.15v-9.08H65.63z M74.43,32.38c0,0.33,0,8.05,0,8.38c-0.33,0-8.11,0-8.45,0
			c0-0.33,0-8.05,0-8.38C66.31,32.38,74.1,32.38,74.43,32.38z"/>
		<path class="st7" d="M74.43,32.03v9.08h9.15v-9.08H74.43z M83.22,32.38c0,0.33,0,8.05,0,8.38c-0.33,0-8.12,0-8.45,0
			c0-0.33,0-8.05,0-8.38C75.11,32.38,82.89,32.38,83.22,32.38z"/>
		<path class="st7" d="M83.22,32.03v9.08h9.15v-9.08H83.22z M92.02,32.38c0,0.33,0,8.05,0,8.38c-0.33,0-8.11,0-8.45,0
			c0-0.33,0-8.05,0-8.38C83.9,32.38,91.69,32.38,92.02,32.38z"/>
		<path class="st7" d="M92.02,32.03v9.08h9.15v-9.08H92.02z M100.81,32.38c0,0.33,0,8.05,0,8.38c-0.33,0-8.11,0-8.45,0
			c0-0.33,0-8.05,0-8.38C92.7,32.38,100.48,32.38,100.81,32.38z"/>
		<path class="st7" d="M100.81,32.03v9.08h9.15v-9.08H100.81z M109.61,32.38c0,0.33,0,8.05,0,8.38c-0.33,0-8.12,0-8.45,0
			c0-0.33,0-8.05,0-8.38C101.5,32.38,109.28,32.38,109.61,32.38z"/>
		<path class="st7" d="M109.61,32.03v9.08h9.15v-9.08H109.61z M118.41,32.38c0,0.33,0,8.05,0,8.38c-0.33,0-8.11,0-8.45,0
			c0-0.33,0-8.05,0-8.38C110.29,32.38,118.08,32.38,118.41,32.38z"/>
	</g>
	<path class="st7" d="M61.55,34.85h0.48v2.94c0,0.08,0.01,0.14,0.02,0.18c0.04,0.08,0.11,0.13,0.22,0.15v0.18h-1.22v-0.18
		c0.1-0.01,0.17-0.05,0.21-0.13c0.03-0.05,0.04-0.12,0.04-0.2v-2.25h-0.03c-0.16,0.16-0.33,0.31-0.53,0.45v-0.27
		c0.15-0.1,0.3-0.23,0.45-0.4C61.34,35.17,61.46,35.01,61.55,34.85L61.55,34.85z"/>
	<path class="st7" d="M71.29,37.48l-0.15,0.84H69.2v-0.19l0.21-0.28c0.03-0.04,0.07-0.09,0.13-0.18c0.1-0.15,0.17-0.24,0.18-0.26
		c0.31-0.46,0.52-0.82,0.65-1.09c0.11-0.23,0.16-0.42,0.16-0.57c0-0.16-0.04-0.28-0.13-0.36s-0.2-0.12-0.34-0.12
		c-0.1,0-0.2,0.03-0.29,0.08c-0.06,0.04-0.16,0.12-0.28,0.24l-0.19-0.15c0.14-0.2,0.3-0.36,0.47-0.46c0.19-0.12,0.4-0.17,0.63-0.17
		c0.29,0,0.52,0.09,0.69,0.26c0.16,0.16,0.24,0.34,0.24,0.56c0,0.2-0.08,0.42-0.23,0.66c-0.13,0.2-0.31,0.43-0.55,0.68
		c-0.05,0.05-0.28,0.28-0.69,0.68v0.02h0.9c0.07,0,0.13-0.01,0.18-0.03c0.07-0.03,0.12-0.09,0.16-0.17L71.29,37.48L71.29,37.48z"/>
	<path class="st7" d="M78.34,35.62l-0.21-0.12c0.14-0.26,0.3-0.45,0.5-0.56c0.15-0.09,0.33-0.13,0.54-0.13
		c0.2,0,0.37,0.05,0.49,0.16c0.12,0.11,0.18,0.24,0.18,0.4s-0.07,0.32-0.2,0.49c-0.1,0.13-0.22,0.24-0.36,0.34v0.04
		c0.02,0,0.06-0.01,0.1-0.01c0.21,0,0.38,0.06,0.51,0.19c0.14,0.13,0.2,0.31,0.2,0.54c0,0.17-0.04,0.34-0.12,0.49
		c-0.1,0.2-0.28,0.39-0.52,0.56c-0.12,0.09-0.27,0.16-0.42,0.21c-0.23,0.08-0.45,0.12-0.68,0.12c-0.08,0-0.15,0-0.23-0.01l0.06-0.26
		c0.41,0,0.72-0.12,0.92-0.35c0.16-0.18,0.24-0.39,0.24-0.64c0-0.16-0.04-0.29-0.12-0.37c-0.08-0.09-0.19-0.13-0.31-0.13
		c-0.12,0-0.24,0.04-0.35,0.12l-0.11-0.2c0.25-0.16,0.43-0.31,0.55-0.42c0.19-0.19,0.28-0.37,0.28-0.56c0-0.08-0.02-0.14-0.05-0.2
		c-0.06-0.09-0.15-0.14-0.29-0.14c-0.09,0-0.17,0.02-0.26,0.07C78.55,35.32,78.43,35.44,78.34,35.62L78.34,35.62z"/>
	<path class="st7" d="M88.12,34.82h0.52v2c0.07,0,0.13-0.02,0.18-0.07s0.11-0.13,0.15-0.24h0.18l-0.2,0.97h-0.31v0.84H87.9v-0.86
		h-1.3v-0.34L88.12,34.82L88.12,34.82z M87.07,36.83h0.83v-1.18h-0.03L87.07,36.83L87.07,36.83z"/>
	<path class="st7" d="M96.09,34.87h0.87h0.06c0.04,0,0.07,0,0.1-0.01s0.05-0.03,0.08-0.05h0.18l-0.15,0.7h-1.01l-0.14,0.64
		c0.21-0.1,0.43-0.15,0.65-0.15c0.27,0,0.49,0.07,0.67,0.2c0.22,0.16,0.33,0.41,0.33,0.73c0,0.41-0.15,0.75-0.46,1.02
		c-0.3,0.27-0.68,0.4-1.13,0.4c-0.09,0-0.17,0-0.24-0.01s-0.15-0.02-0.24-0.04l0.07-0.22c0.41,0,0.71-0.13,0.92-0.38
		c0.17-0.21,0.26-0.47,0.26-0.78c0-0.18-0.05-0.32-0.14-0.42s-0.21-0.15-0.35-0.15c-0.12,0-0.24,0.04-0.35,0.12l-0.31-0.12
		L96.09,34.87L96.09,34.87z"/>
	<path class="st7" d="M105.84,34.8l0.13,0.2c-0.23,0.15-0.42,0.35-0.57,0.59c-0.15,0.25-0.23,0.51-0.23,0.77h0.02
		c0.05-0.04,0.12-0.07,0.19-0.1c0.1-0.04,0.2-0.06,0.3-0.06c0.25,0,0.46,0.07,0.64,0.22c0.23,0.19,0.35,0.47,0.35,0.85
		c0,0.36-0.11,0.64-0.34,0.84c-0.2,0.17-0.48,0.26-0.82,0.26c-0.35,0-0.63-0.1-0.83-0.31c-0.23-0.23-0.34-0.57-0.34-1.03
		c0-0.34,0.06-0.66,0.18-0.94s0.3-0.54,0.54-0.77c0.09-0.09,0.22-0.19,0.37-0.29C105.59,34.92,105.72,34.84,105.84,34.8L105.84,34.8
		z M105.52,36.52c-0.19,0-0.31,0.08-0.36,0.25c-0.03,0.09-0.04,0.28-0.04,0.55c0,0.29,0.01,0.48,0.04,0.56
		c0.05,0.16,0.18,0.24,0.37,0.24s0.31-0.08,0.36-0.24c0.03-0.09,0.04-0.28,0.04-0.56c0-0.29-0.01-0.47-0.04-0.55
		C105.83,36.61,105.71,36.52,105.52,36.52L105.52,36.52z"/>
	<path class="st7" d="M113.33,35.85l0.06-1h1.88v0.19c-0.08,0.23-0.18,0.56-0.31,1c-0.15,0.48-0.27,0.89-0.36,1.22
		c-0.13,0.45-0.22,0.79-0.27,1.04h-0.82c0.07-0.33,0.24-0.78,0.53-1.35c0.25-0.5,0.53-0.98,0.83-1.45h-0.98h-0.06
		c-0.09,0-0.15,0.02-0.19,0.05c-0.07,0.06-0.11,0.16-0.13,0.31h-0.18V35.85z"/>
	<g>
		<path class="st8" d="M89.17,22.76c1.57-2.29-0.76-5.27-1.35-5.84l-0.07-0.06l-0.07,0.06c-0.59,0.57-2.92,3.55-1.35,5.84
			c0,0,1.44,3.35-0.14,7.47c0,0,1.15-0.66,1.5,0.29l0.05,0.14l0.05-0.14c0.36-0.95,1.5-0.29,1.5-0.29
			C87.73,26.11,89.17,22.76,89.17,22.76z"/>
		<path class="st8" d="M85.6,23.02c-0.6-0.79-1.5-1.12-2.01-0.74c-0.5,0.38-0.42,1.33,0.18,2.11c0.36,0.47,0.65,0.73,1.26,0.87
			c0.26,0.05,0.8-0.05,0.99,0.36c0.56,1.06,0.15,2.4,0.15,2.4C87.34,24.8,85.6,23.02,85.6,23.02z"/>
		<path class="st8" d="M81.47,23.74c-1.26-0.49-2.54-0.24-2.85,0.54c-0.31,0.79,0.46,1.81,1.72,2.3c0.76,0.29,1.28,0.38,2.08,0.13
			c0.33-0.12,0.89-0.61,1.41-0.27c1.4,0.83,1.9,2.65,1.9,2.65C84.75,24.57,81.47,23.74,81.47,23.74z"/>
		<path class="st8" d="M78.02,27.01c-1.65,0.2-2.9,1.22-2.78,2.27c0.11,1.06,1.55,1.75,3.2,1.55c0.99-0.12,1.61-0.33,2.33-1.08
			c0.29-0.33,0.62-1.2,1.37-1.12c2,0.1,3.59,1.83,3.59,1.83C82.06,26,78.02,27.01,78.02,27.01z"/>
		<path class="st8" d="M90,23.02c0.6-0.79,1.5-1.12,2.01-0.74c0.5,0.38,0.42,1.33-0.18,2.11c-0.36,0.47-0.65,0.73-1.26,0.87
			c-0.26,0.05-0.8-0.05-0.99,0.36c-0.56,1.06-0.15,2.4-0.15,2.4C88.25,24.8,90,23.02,90,23.02z"/>
		<path class="st8" d="M94.13,23.74c1.26-0.49,2.54-0.24,2.85,0.54c0.31,0.79-0.46,1.81-1.72,2.3c-0.76,0.29-1.28,0.38-2.08,0.13
			c-0.33-0.12-0.89-0.61-1.41-0.27c-1.4,0.83-1.9,2.65-1.9,2.65C90.85,24.57,94.13,23.74,94.13,23.74z"/>
		<path class="st8" d="M97.58,27.01c1.65,0.2,2.9,1.22,2.78,2.27c-0.11,1.06-1.55,1.75-3.2,1.55c-0.99-0.12-1.61-0.33-2.33-1.08
			c-0.29-0.33-0.62-1.2-1.37-1.12c-2,0.1-3.59,1.83-3.59,1.83C93.54,26,97.58,27.01,97.58,27.01z"/>
	</g>
</g>
</svg>
